<svg xmlns="http://www.w3.org/2000/svg" width="157.128" height="84.783" viewBox="0 0 157.128 84.783">
  <g id="Grupo_231" data-name="Grupo 231" transform="translate(-688.79 -445.284)">
    <g id="Grupo_84" data-name="Grupo 84" transform="translate(0 34.724)">
      <rect id="Rectángulo_1" data-name="Rectángulo 1" width="10.679" height="33.415" rx="1.754" transform="translate(785.288 435.918) rotate(90)" fill="#242fff"/>
      <rect id="Rectángulo_2" data-name="Rectángulo 2" width="10.679" height="31.045" rx="1.754" transform="translate(741.194 414.56) rotate(90)" fill="#242fff"/>
      <rect id="Rectángulo_3" data-name="Rectángulo 3" width="10.679" height="31.045" rx="1.754" transform="translate(741.194 484.663) rotate(90)" fill="#242fff"/>
      <rect id="Rectángulo_4" data-name="Rectángulo 4" width="10.679" height="14.296" rx="1.754" transform="translate(810.263 435.918) rotate(90)" fill="#242fff"/>
      <rect id="Rectángulo_5" data-name="Rectángulo 5" width="10.679" height="10.679" rx="1.754" transform="translate(820.943 446.597) rotate(90)" fill="#242fff"/>
      <rect id="Rectángulo_6" data-name="Rectángulo 6" width="10.679" height="10.679" rx="1.754" transform="translate(795.967 446.597) rotate(90)" fill="#242fff"/>
      <rect id="Rectángulo_7" data-name="Rectángulo 7" width="10.679" height="10.679" rx="1.754" transform="translate(751.873 425.239) rotate(90)" fill="#242fff"/>
      <rect id="Rectángulo_8" data-name="Rectángulo 8" width="10.679" height="10.679" rx="1.754" transform="translate(751.873 473.984) rotate(90)" fill="#242fff"/>
      <rect id="Rectángulo_9" data-name="Rectángulo 9" width="10.679" height="10.679" rx="1.754" transform="translate(710.149 425.239) rotate(90)" fill="#242fff"/>
      <rect id="Rectángulo_10" data-name="Rectángulo 10" width="17.337" height="17.337" rx="1.754" transform="translate(725.671 446.283) rotate(90)" fill="#242fff"/>
      <rect id="Rectángulo_11" data-name="Rectángulo 11" width="38.066" height="10.679" rx="1.754" transform="translate(699.47 435.918) rotate(90)" fill="#242fff"/>
      <rect id="Rectángulo_12" data-name="Rectángulo 12" width="10.679" height="10.679" rx="1.754" transform="translate(710.149 473.984) rotate(90)" fill="#242fff"/>
      <rect id="Rectángulo_13" data-name="Rectángulo 13" width="10.679" height="14.296" rx="1.754" transform="translate(835.239 435.918) rotate(90)" fill="#242fff"/>
      <rect id="Rectángulo_14" data-name="Rectángulo 14" width="10.679" height="83.366" rx="1.754" transform="translate(835.239 463.305) rotate(90)" fill="#242fff"/>
      <rect id="Rectángulo_15" data-name="Rectángulo 15" width="10.679" height="16.708" rx="1.754" transform="translate(845.918 463.305) rotate(180)" fill="#242fff"/>
    </g>
    <g id="Grupo_85" data-name="Grupo 85" transform="translate(0 34.724)">
      <rect id="Rectángulo_16" data-name="Rectángulo 16" width="10.679" height="33.415" rx="1.754" transform="translate(785.288 431.918) rotate(90)" fill="#1cdbaa"/>
      <rect id="Rectángulo_17" data-name="Rectángulo 17" width="10.679" height="31.045" rx="1.754" transform="translate(741.194 410.56) rotate(90)" fill="#1cdbaa"/>
      <rect id="Rectángulo_18" data-name="Rectángulo 18" width="10.679" height="31.045" rx="1.754" transform="translate(741.194 480.663) rotate(90)" fill="#1cdbaa"/>
      <rect id="Rectángulo_19" data-name="Rectángulo 19" width="10.679" height="14.296" rx="1.754" transform="translate(810.263 431.918) rotate(90)" fill="#1cdbaa"/>
      <rect id="Rectángulo_20" data-name="Rectángulo 20" width="10.679" height="10.679" rx="1.754" transform="translate(820.943 442.597) rotate(90)" fill="#1cdbaa"/>
      <rect id="Rectángulo_21" data-name="Rectángulo 21" width="10.679" height="10.679" rx="1.754" transform="translate(795.967 442.597) rotate(90)" fill="#1cdbaa"/>
      <rect id="Rectángulo_22" data-name="Rectángulo 22" width="10.679" height="10.679" rx="1.754" transform="translate(751.873 421.239) rotate(90)" fill="#1cdbaa"/>
      <rect id="Rectángulo_23" data-name="Rectángulo 23" width="10.679" height="10.679" rx="1.754" transform="translate(751.873 469.984) rotate(90)" fill="#1cdbaa"/>
      <rect id="Rectángulo_24" data-name="Rectángulo 24" width="10.679" height="10.679" rx="1.754" transform="translate(710.149 421.239) rotate(90)" fill="#1cdbaa"/>
      <rect id="Rectángulo_25" data-name="Rectángulo 25" width="17.337" height="17.337" rx="1.754" transform="translate(725.671 442.283) rotate(90)" fill="#1cdbaa"/>
      <rect id="Rectángulo_26" data-name="Rectángulo 26" width="38.066" height="10.679" rx="1.754" transform="translate(699.47 431.918) rotate(90)" fill="#1cdbaa"/>
      <rect id="Rectángulo_27" data-name="Rectángulo 27" width="10.679" height="10.679" rx="1.754" transform="translate(710.149 469.984) rotate(90)" fill="#1cdbaa"/>
      <rect id="Rectángulo_28" data-name="Rectángulo 28" width="10.679" height="14.296" rx="1.754" transform="translate(835.239 431.918) rotate(90)" fill="#1cdbaa"/>
      <rect id="Rectángulo_29" data-name="Rectángulo 29" width="10.679" height="83.366" rx="1.754" transform="translate(835.239 459.305) rotate(90)" fill="#1cdbaa"/>
      <rect id="Rectángulo_30" data-name="Rectángulo 30" width="10.679" height="16.708" rx="1.754" transform="translate(845.918 459.305) rotate(180)" fill="#1cdbaa"/>
    </g>
  </g>
</svg>
