<svg xmlns="http://www.w3.org/2000/svg" width="295.771" height="68.64" viewBox="0 0 295.771 68.64"><defs><style>.a{fill:#1cdbaa;}.b{fill:#439ffb;}.c{fill:#ffebef;}</style></defs><g transform="translate(-483.31 -7272.359)"><g transform="translate(-374.329 6977.698)"><rect class="a" width="7.192" height="22.504" transform="translate(922.625 322.685) rotate(90)"/><rect class="a" width="7.192" height="20.907" transform="translate(892.93 308.302) rotate(90)"/><rect class="a" width="7.192" height="20.907" transform="translate(892.93 355.513) rotate(90)"/><rect class="a" width="7.192" height="9.628" transform="translate(939.445 322.685) rotate(90)"/><rect class="a" width="7.192" height="7.192" transform="translate(946.637 329.877) rotate(90)"/><rect class="a" width="7.192" height="7.192" transform="translate(929.817 329.877) rotate(90)"/><rect class="a" width="7.192" height="7.192" transform="translate(900.122 315.494) rotate(90)"/><rect class="a" width="7.192" height="7.192" transform="translate(900.122 348.321) rotate(90)"/><rect class="a" width="7.192" height="7.192" transform="translate(872.023 315.494) rotate(90)"/><rect class="a" width="11.675" height="11.675" transform="translate(882.476 329.666) rotate(90)"/><rect class="a" width="25.635" height="7.192" transform="translate(864.831 322.685) rotate(90)"/><rect class="a" width="7.192" height="7.192" transform="translate(872.023 348.321) rotate(90)"/><rect class="a" width="7.192" height="9.628" transform="translate(956.265 322.685) rotate(90)"/><rect class="a" width="7.192" height="56.143" transform="translate(956.265 341.129) rotate(90)"/><rect class="a" width="7.192" height="11.252" transform="translate(963.456 341.129) rotate(180)"/></g><g transform="translate(-475.594 6969.525)"><g transform="translate(1090.594 302.835)"><rect class="b" width="8.456" height="26.505" transform="translate(34.433 8.456)"/><rect class="b" width="8.456" height="17.45" transform="translate(60.047 8.456)"/><rect class="b" width="8.456" height="8.456" transform="translate(34.433 26.505)"/><rect class="b" width="8.456" height="8.456" transform="translate(34.433 34.962)"/><rect class="b" width="51.346" height="33.679" transform="translate(0 34.962)"/><rect class="b" width="17.157" height="8.456" transform="translate(42.89)"/></g></g><g transform="translate(-366.002 7102.163)"><g transform="translate(1079.331 173.941)"><g transform="translate(0 42.168)"><rect class="c" width="6.104" height="6.104"/><rect class="c" width="6.104" height="6.104" transform="translate(6.104 6.104)"/><rect class="c" width="6.104" height="6.104" transform="translate(0 12.209)"/><rect class="c" width="6.104" height="6.104" transform="translate(12.209)"/><rect class="c" width="6.104" height="6.104" transform="translate(12.209 12.209)"/></g><g transform="translate(47.44 29.959)"><rect class="c" width="6.104" height="6.104"/><rect class="c" width="6.104" height="6.104" transform="translate(6.104 6.104)"/><rect class="c" width="6.104" height="6.104" transform="translate(0 12.209)"/><rect class="c" width="6.104" height="6.104" transform="translate(12.209)"/><rect class="c" width="6.104" height="6.104" transform="translate(12.209 12.209)"/></g><g transform="translate(14.674)"><rect class="c" width="6.104" height="6.104"/><rect class="c" width="6.104" height="6.104" transform="translate(6.104 6.104)"/><rect class="c" width="6.104" height="6.104" transform="translate(0 12.209)"/><rect class="c" width="6.104" height="6.104" transform="translate(12.209)"/><rect class="c" width="6.104" height="6.104" transform="translate(12.209 12.209)"/></g></g></g></g></svg>