<svg xmlns="http://www.w3.org/2000/svg" width="196.919" height="41.501" viewBox="0 0 196.919 41.501">
  <g id="Grupo_147" data-name="Grupo 147" transform="translate(0 0)">
    <path id="Trazado_101" data-name="Trazado 101" d="M1194.408,452.146v41.5h36.128v-41.5Zm25.811,25.984h-15.334V473.05h15.334Zm0-10.46h-15.334v-5.079h15.334Z" transform="translate(-1142.531 -452.146)" fill="#ffebef"/>
    <path id="Trazado_102" data-name="Trazado 102" d="M1194.408,452.146v41.5h36.128v-41.5Zm25.811,25.984h-15.334V473.05h15.334Zm0-10.46h-15.334v-5.079h15.334Z" transform="translate(-1194.408 -452.146)" fill="#ffebef"/>
    <path id="Trazado_103" data-name="Trazado 103" d="M1194.408,452.146v41.5h36.128v-41.5Zm25.811,25.984h-15.334V473.05h15.334Zm0-10.46h-15.334v-5.079h15.334Z" transform="translate(-1090.655 -452.146)" fill="#ffebef"/>
    <g id="Grupo_110" data-name="Grupo 110" transform="translate(153.188 0.069)">
      <g id="Grupo_107" data-name="Grupo 107" transform="translate(0 0)">
        <g id="Grupo_104" data-name="Grupo 104" transform="translate(0 28.045)">
          <rect id="Rectángulo_53" data-name="Rectángulo 53" width="4.06" height="4.06" fill="#439ffb"/>
          <rect id="Rectángulo_54" data-name="Rectángulo 54" width="4.06" height="4.06" transform="translate(4.06 4.06)" fill="#439ffb"/>
          <rect id="Rectángulo_55" data-name="Rectángulo 55" width="4.06" height="4.06" transform="translate(0 8.12)" fill="#439ffb"/>
          <rect id="Rectángulo_56" data-name="Rectángulo 56" width="4.06" height="4.06" transform="translate(8.12)" fill="#439ffb"/>
          <rect id="Rectángulo_57" data-name="Rectángulo 57" width="4.06" height="4.06" transform="translate(8.12 8.12)" fill="#439ffb"/>
        </g>
        <g id="Grupo_105" data-name="Grupo 105" transform="translate(31.552 19.926)">
          <rect id="Rectángulo_58" data-name="Rectángulo 58" width="4.06" height="4.06" fill="#439ffb"/>
          <rect id="Rectángulo_59" data-name="Rectángulo 59" width="4.06" height="4.06" transform="translate(4.06 4.06)" fill="#439ffb"/>
          <rect id="Rectángulo_60" data-name="Rectángulo 60" width="4.06" height="4.06" transform="translate(0 8.12)" fill="#439ffb"/>
          <rect id="Rectángulo_61" data-name="Rectángulo 61" width="4.06" height="4.06" transform="translate(8.12)" fill="#439ffb"/>
          <rect id="Rectángulo_62" data-name="Rectángulo 62" width="4.06" height="4.06" transform="translate(8.12 8.12)" fill="#439ffb"/>
        </g>
        <g id="Grupo_106" data-name="Grupo 106" transform="translate(9.759)">
          <rect id="Rectángulo_63" data-name="Rectángulo 63" width="4.06" height="4.06" fill="#439ffb"/>
          <rect id="Rectángulo_64" data-name="Rectángulo 64" width="4.06" height="4.06" transform="translate(4.06 4.06)" fill="#439ffb"/>
          <rect id="Rectángulo_65" data-name="Rectángulo 65" width="4.06" height="4.06" transform="translate(0 8.12)" fill="#439ffb"/>
          <rect id="Rectángulo_66" data-name="Rectángulo 66" width="4.06" height="4.06" transform="translate(8.12)" fill="#439ffb"/>
          <rect id="Rectángulo_67" data-name="Rectángulo 67" width="4.06" height="4.06" transform="translate(8.12 8.12)" fill="#439ffb"/>
        </g>
      </g>
    </g>
  </g>
</svg>
