<svg xmlns="http://www.w3.org/2000/svg" width="187.794" height="42" viewBox="0 0 187.794 42">
  <g id="Grupo_135" data-name="Grupo 135" transform="translate(0.5 0)">
    <path id="Trazado_194" data-name="Trazado 194" d="M1194.408,452.146v41.391h36.033V452.146Zm25.743,25.915h-15.294V473h15.294Zm0-10.432h-15.294v-5.065h15.294Z" transform="translate(-1104.013 -452.146)" fill="#fff"/>
    <g id="Grupo_134" data-name="Grupo 134" transform="translate(143.679 0.069)">
      <g id="Grupo_107" data-name="Grupo 107" transform="translate(0 0)">
        <g id="Grupo_104" data-name="Grupo 104" transform="translate(0 27.971)">
          <rect id="Rectángulo_53" data-name="Rectángulo 53" width="4.049" height="4.049" fill="#439ffb"/>
          <rect id="Rectángulo_54" data-name="Rectángulo 54" width="4.049" height="4.049" transform="translate(4.049 4.049)" fill="#439ffb"/>
          <rect id="Rectángulo_55" data-name="Rectángulo 55" width="4.049" height="4.049" transform="translate(0 8.098)" fill="#439ffb"/>
          <rect id="Rectángulo_56" data-name="Rectángulo 56" width="4.049" height="4.049" transform="translate(8.098)" fill="#439ffb"/>
          <rect id="Rectángulo_57" data-name="Rectángulo 57" width="4.049" height="4.049" transform="translate(8.098 8.098)" fill="#439ffb"/>
        </g>
        <g id="Grupo_105" data-name="Grupo 105" transform="translate(31.468 19.873)">
          <rect id="Rectángulo_58" data-name="Rectángulo 58" width="4.049" height="4.049" fill="#439ffb"/>
          <rect id="Rectángulo_59" data-name="Rectángulo 59" width="4.049" height="4.049" transform="translate(4.049 4.049)" fill="#439ffb"/>
          <rect id="Rectángulo_60" data-name="Rectángulo 60" width="4.049" height="4.049" transform="translate(0 8.098)" fill="#439ffb"/>
          <rect id="Rectángulo_61" data-name="Rectángulo 61" width="4.049" height="4.049" transform="translate(8.098)" fill="#439ffb"/>
          <rect id="Rectángulo_62" data-name="Rectángulo 62" width="4.049" height="4.049" transform="translate(8.098 8.098)" fill="#439ffb"/>
        </g>
        <g id="Grupo_106" data-name="Grupo 106" transform="translate(9.734)">
          <rect id="Rectángulo_63" data-name="Rectángulo 63" width="4.049" height="4.049" fill="#439ffb"/>
          <rect id="Rectángulo_64" data-name="Rectángulo 64" width="4.049" height="4.049" transform="translate(4.049 4.049)" fill="#439ffb"/>
          <rect id="Rectángulo_65" data-name="Rectángulo 65" width="4.049" height="4.049" transform="translate(0 8.098)" fill="#439ffb"/>
          <rect id="Rectángulo_66" data-name="Rectángulo 66" width="4.049" height="4.049" transform="translate(8.098)" fill="#439ffb"/>
          <rect id="Rectángulo_67" data-name="Rectángulo 67" width="4.049" height="4.049" transform="translate(8.098 8.098)" fill="#439ffb"/>
        </g>
      </g>
    </g>
    <g id="Grupo_112" data-name="Grupo 112" transform="translate(74.668 0.615) rotate(90)">
      <rect id="Rectángulo_1243" data-name="Rectángulo 1243" width="15.237" height="4.275" transform="translate(28.061 4.275) rotate(180)" fill="#1cdbaa" stroke="#1cdbaa" stroke-width="1"/>
      <rect id="Rectángulo_1244" data-name="Rectángulo 1244" width="15.237" height="4.275" transform="translate(28.061 40.885) rotate(180)" fill="#1cdbaa" stroke="#1cdbaa" stroke-width="1"/>
      <rect id="Rectángulo_1245" data-name="Rectángulo 1245" width="4.275" height="4.275" transform="translate(12.824 8.549) rotate(180)" fill="#1cdbaa" stroke="#1cdbaa" stroke-width="1"/>
      <rect id="Rectángulo_1246" data-name="Rectángulo 1246" width="4.275" height="4.275" transform="translate(22.58 22.58) rotate(180)" fill="#1cdbaa" stroke="#1cdbaa" stroke-width="1"/>
      <rect id="Rectángulo_1247" data-name="Rectángulo 1247" width="4.275" height="4.275" transform="translate(22.58 74.668) rotate(180)" fill="#1cdbaa" stroke="#1cdbaa" stroke-width="1"/>
      <rect id="Rectángulo_1248" data-name="Rectángulo 1248" width="4.275" height="4.275" transform="translate(22.58 26.855) rotate(180)" fill="#1cdbaa" stroke="#1cdbaa" stroke-width="1"/>
      <rect id="Rectángulo_1249" data-name="Rectángulo 1249" width="4.275" height="4.275" transform="translate(22.58 18.305) rotate(180)" fill="#1cdbaa" stroke="#1cdbaa" stroke-width="1"/>
      <rect id="Rectángulo_1250" data-name="Rectángulo 1250" width="4.275" height="4.275" transform="translate(14.031 22.58) rotate(-90)" fill="#1cdbaa" stroke="#1cdbaa" stroke-width="1"/>
      <rect id="Rectángulo_1251" data-name="Rectángulo 1251" width="4.275" height="4.275" transform="translate(22.58 22.58) rotate(-90)" fill="#1cdbaa" stroke="#1cdbaa" stroke-width="1"/>
      <rect id="Rectángulo_1252" data-name="Rectángulo 1252" width="4.275" height="4.275" transform="translate(8.549 12.824) rotate(180)" fill="#1cdbaa" stroke="#1cdbaa" stroke-width="1"/>
      <rect id="Rectángulo_1253" data-name="Rectángulo 1253" width="4.275" height="4.275" transform="translate(28.061 4.275)" fill="#1cdbaa" stroke="#1cdbaa" stroke-width="1"/>
      <rect id="Rectángulo_1254" data-name="Rectángulo 1254" width="4.275" height="4.275" transform="translate(32.336 8.549)" fill="#1cdbaa" stroke="#1cdbaa" stroke-width="1"/>
      <rect id="Rectángulo_1255" data-name="Rectángulo 1255" width="4.275" height="4.275" transform="translate(12.824 36.611) rotate(180)" fill="#1cdbaa" stroke="#1cdbaa" stroke-width="1"/>
      <rect id="Rectángulo_1256" data-name="Rectángulo 1256" width="4.275" height="4.275" transform="translate(8.549 32.336) rotate(180)" fill="#1cdbaa" stroke="#1cdbaa" stroke-width="1"/>
      <rect id="Rectángulo_1257" data-name="Rectángulo 1257" width="4.275" height="4.275" transform="translate(28.061 32.336)" fill="#1cdbaa" stroke="#1cdbaa" stroke-width="1"/>
      <rect id="Rectángulo_1258" data-name="Rectángulo 1258" width="4.275" height="4.275" transform="translate(32.336 28.061)" fill="#1cdbaa" stroke="#1cdbaa" stroke-width="1"/>
      <rect id="Rectángulo_1259" data-name="Rectángulo 1259" width="15.237" height="4.275" transform="translate(4.275 12.824) rotate(90)" fill="#1cdbaa" stroke="#1cdbaa" stroke-width="1"/>
      <rect id="Rectángulo_1260" data-name="Rectángulo 1260" width="15.237" height="4.275" transform="translate(40.885 12.824) rotate(90)" fill="#1cdbaa" stroke="#1cdbaa" stroke-width="1"/>
      <rect id="Rectángulo_1261" data-name="Rectángulo 1261" width="29.508" height="4.275" transform="translate(19.236 40.885) rotate(90)" fill="#1cdbaa" stroke="#1cdbaa" stroke-width="1"/>
      <rect id="Rectángulo_1262" data-name="Rectángulo 1262" width="29.508" height="4.275" transform="translate(25.924 40.885) rotate(90)" fill="#1cdbaa" stroke="#1cdbaa" stroke-width="1"/>
    </g>
  </g>
</svg>
