<svg xmlns="http://www.w3.org/2000/svg" width="282.857" height="63.064" viewBox="0 0 282.857 63.064"><defs><style>.a{fill:#fff;}.b{fill:#439ffb;}.c{fill:#ff33eb;stroke:#ff33eb;}</style></defs><g transform="translate(-505.224 -2485)"><path class="a" d="M1194.408,452.146v62.4h54.321v-62.4Zm38.808,39.068H1210.16v-7.637h23.056Zm0-15.727H1210.16v-7.636h23.056Z" transform="translate(-552.408 2032.854)"/><g transform="translate(-357.002 2311.163)"><g transform="translate(1079.331 173.941)"><g transform="translate(0 42.168)"><rect class="b" width="6.104" height="6.104"/><rect class="b" width="6.104" height="6.104" transform="translate(6.104 6.104)"/><rect class="b" width="6.104" height="6.104" transform="translate(0 12.209)"/><rect class="b" width="6.104" height="6.104" transform="translate(12.209)"/><rect class="b" width="6.104" height="6.104" transform="translate(12.209 12.209)"/></g><g transform="translate(47.44 29.959)"><rect class="b" width="6.104" height="6.104"/><rect class="b" width="6.104" height="6.104" transform="translate(6.104 6.104)"/><rect class="b" width="6.104" height="6.104" transform="translate(0 12.209)"/><rect class="b" width="6.104" height="6.104" transform="translate(12.209)"/><rect class="b" width="6.104" height="6.104" transform="translate(12.209 12.209)"/></g><g transform="translate(14.674)"><rect class="b" width="6.104" height="6.104"/><rect class="b" width="6.104" height="6.104" transform="translate(6.104 6.104)"/><rect class="b" width="6.104" height="6.104" transform="translate(0 12.209)"/><rect class="b" width="6.104" height="6.104" transform="translate(12.209)"/><rect class="b" width="6.104" height="6.104" transform="translate(12.209 12.209)"/></g></g></g><g transform="translate(712.252 1547.81) rotate(90)"><rect class="c" width="22.971" height="6.444" transform="translate(980.422 100.406) rotate(180)"/><rect class="c" width="22.971" height="6.444" transform="translate(980.422 155.599) rotate(180)"/><rect class="c" width="6.444" height="6.444" transform="translate(957.451 106.851) rotate(180)"/><rect class="c" width="6.444" height="6.444" transform="translate(972.159 128.002) rotate(180)"/><rect class="c" width="6.444" height="6.444" transform="translate(972.159 206.528) rotate(180)"/><rect class="c" width="6.444" height="6.444" transform="translate(972.159 134.447) rotate(180)"/><rect class="c" width="6.444" height="6.444" transform="translate(972.159 121.558) rotate(180)"/><rect class="c" width="6.444" height="6.444" transform="translate(959.27 128.002) rotate(-90)"/><rect class="c" width="6.444" height="6.444" transform="translate(972.159 128.002) rotate(-90)"/><rect class="c" width="6.444" height="6.444" transform="translate(951.007 113.295) rotate(180)"/><rect class="c" width="6.444" height="6.444" transform="translate(980.422 100.406)"/><rect class="c" width="6.444" height="6.444" transform="translate(986.866 106.851)"/><rect class="c" width="6.444" height="6.444" transform="translate(957.451 149.154) rotate(180)"/><rect class="c" width="6.444" height="6.444" transform="translate(951.007 142.71) rotate(180)"/><rect class="c" width="6.444" height="6.444" transform="translate(980.422 142.71)"/><rect class="c" width="6.444" height="6.444" transform="translate(986.866 136.266)"/><rect class="c" width="22.971" height="6.444" transform="translate(944.562 113.295) rotate(90)"/><rect class="c" width="22.971" height="6.444" transform="translate(999.755 113.295) rotate(90)"/><rect class="c" width="44.485" height="6.444" transform="translate(967.117 155.599) rotate(90)"/><rect class="c" width="44.485" height="6.444" transform="translate(977.2 155.599) rotate(90)"/></g></g></svg>