<svg xmlns="http://www.w3.org/2000/svg" width="287.838" height="124.381" viewBox="0 0 287.838 124.381"><defs><style>.a{fill:#439ffb;}.b{fill:#fff;}.c{fill:#ff33eb;}</style></defs><g transform="translate(-821 -4267.657)"><g transform="translate(-36.639 3972.698)"><rect class="a" width="10.679" height="33.415" transform="translate(954.137 329.66) rotate(90)"/><rect class="a" width="10.679" height="31.045" transform="translate(910.042 308.302) rotate(90)"/><rect class="a" width="10.679" height="31.045" transform="translate(910.042 378.405) rotate(90)"/><rect class="a" width="10.679" height="14.296" transform="translate(979.112 329.66) rotate(90)"/><rect class="a" width="10.679" height="10.679" transform="translate(989.791 340.339) rotate(90)"/><rect class="a" width="10.679" height="10.679" transform="translate(964.816 340.339) rotate(90)"/><rect class="a" width="10.679" height="10.679" transform="translate(920.721 318.981) rotate(90)"/><rect class="a" width="10.679" height="10.679" transform="translate(920.721 367.726) rotate(90)"/><rect class="a" width="10.679" height="10.679" transform="translate(878.997 318.981) rotate(90)"/><rect class="a" width="17.337" height="17.337" transform="translate(894.52 340.025) rotate(90)"/><rect class="a" width="38.066" height="10.679" transform="translate(868.318 329.66) rotate(90)"/><rect class="a" width="10.679" height="10.679" transform="translate(878.997 367.726) rotate(90)"/><rect class="a" width="10.679" height="14.296" transform="translate(1004.087 329.66) rotate(90)"/><rect class="a" width="10.679" height="83.366" transform="translate(1004.087 357.047) rotate(90)"/><rect class="a" width="10.679" height="16.708" transform="translate(1014.767 357.047) rotate(180)"/></g><g transform="translate(-89.915 3964.822)"><g transform="translate(1090.594 302.835)"><rect class="b" width="13.352" height="41.849" transform="translate(54.366 13.352)"/><rect class="b" width="13.352" height="27.551" transform="translate(94.807 13.352)"/><rect class="b" width="13.352" height="13.352" transform="translate(54.366 41.849)"/><rect class="b" width="13.352" height="13.352" transform="translate(54.366 55.2)"/><rect class="b" width="81.07" height="53.175" transform="translate(0 55.2)"/><rect class="b" width="27.09" height="13.352" transform="translate(67.718)"/></g></g><g transform="translate(-25.721 3964.251)"><rect class="c" width="10.679" height="10.679" transform="translate(1004.087 395.749) rotate(90)"/><rect class="c" width="30.918" height="10.679" transform="translate(979.112 406.428) rotate(180)"/><rect class="c" width="10.679" height="10.679" transform="translate(1004.087 417.107) rotate(90)"/><rect class="c" width="58.391" height="10.679" transform="translate(979.112 427.786) rotate(180)"/></g></g></svg>