<svg xmlns="http://www.w3.org/2000/svg" width="65.753" height="60.481" viewBox="0 0 65.753 60.481"><defs><style>.a{fill:#ff33eb;}</style></defs><g transform="translate(-1079.331 -173.941)"><g transform="translate(1079.331 173.941)"><g transform="translate(0 42.168)"><rect class="a" width="6.104" height="6.104"/><rect class="a" width="6.104" height="6.104" transform="translate(6.104 6.104)"/><rect class="a" width="6.104" height="6.104" transform="translate(0 12.209)"/><rect class="a" width="6.104" height="6.104" transform="translate(12.209)"/><rect class="a" width="6.104" height="6.104" transform="translate(12.209 12.209)"/></g><g transform="translate(47.44 29.959)"><rect class="a" width="6.104" height="6.104"/><rect class="a" width="6.104" height="6.104" transform="translate(6.104 6.104)"/><rect class="a" width="6.104" height="6.104" transform="translate(0 12.209)"/><rect class="a" width="6.104" height="6.104" transform="translate(12.209)"/><rect class="a" width="6.104" height="6.104" transform="translate(12.209 12.209)"/></g><g transform="translate(14.674)"><rect class="a" width="6.104" height="6.104"/><rect class="a" width="6.104" height="6.104" transform="translate(6.104 6.104)"/><rect class="a" width="6.104" height="6.104" transform="translate(0 12.209)"/><rect class="a" width="6.104" height="6.104" transform="translate(12.209)"/><rect class="a" width="6.104" height="6.104" transform="translate(12.209 12.209)"/></g></g></g></svg>