<svg xmlns="http://www.w3.org/2000/svg" width="296.081" height="62.399" viewBox="0 0 296.081 62.399"><defs><style>.a{fill:#439ffb;}.b{fill:#ff9bd1;}</style></defs><g transform="translate(-492 -4457)"><path class="a" d="M1194.408,452.146v62.4h54.321v-62.4Zm38.808,39.068H1210.16v-7.637h23.056Zm0-15.727H1210.16v-7.636h23.056Z" transform="translate(-624.408 4004.854)"/><path class="a" d="M1194.408,452.146v62.4h54.321v-62.4Zm38.808,39.068H1210.16v-7.637h23.056Zm0-15.727H1210.16v-7.636h23.056Z" transform="translate(-702.408 4004.854)"/><path class="a" d="M1194.408,452.146v62.4h54.321v-62.4Zm38.808,39.068H1210.16v-7.637h23.056Zm0-15.727H1210.16v-7.636h23.056Z" transform="translate(-546.408 4004.854)"/><g transform="translate(-357.002 4283.163)"><g transform="translate(1079.331 173.941)"><g transform="translate(0 42.168)"><rect class="b" width="6.104" height="6.104"/><rect class="b" width="6.104" height="6.104" transform="translate(6.104 6.104)"/><rect class="b" width="6.104" height="6.104" transform="translate(0 12.209)"/><rect class="b" width="6.104" height="6.104" transform="translate(12.209)"/><rect class="b" width="6.104" height="6.104" transform="translate(12.209 12.209)"/></g><g transform="translate(47.44 29.959)"><rect class="b" width="6.104" height="6.104"/><rect class="b" width="6.104" height="6.104" transform="translate(6.104 6.104)"/><rect class="b" width="6.104" height="6.104" transform="translate(0 12.209)"/><rect class="b" width="6.104" height="6.104" transform="translate(12.209)"/><rect class="b" width="6.104" height="6.104" transform="translate(12.209 12.209)"/></g><g transform="translate(14.674)"><rect class="b" width="6.104" height="6.104"/><rect class="b" width="6.104" height="6.104" transform="translate(6.104 6.104)"/><rect class="b" width="6.104" height="6.104" transform="translate(0 12.209)"/><rect class="b" width="6.104" height="6.104" transform="translate(12.209)"/><rect class="b" width="6.104" height="6.104" transform="translate(12.209 12.209)"/></g></g></g></g></svg>