<svg xmlns="http://www.w3.org/2000/svg" width="374.107" height="140.665" viewBox="0 0 374.107 140.665"><defs><style>.a{fill:#fff;}.b{fill:#ff33eb;}.c{fill:#439ffb;}</style></defs><g transform="translate(-127.893 -4258.976)"><path class="a" d="M1194.408,452.146V562.787h96.318V452.146Zm68.812,69.272h-40.881V507.877h40.881Zm0-27.885h-40.881v-13.54h40.881Z" transform="translate(-912.408 3836.854)"/><g transform="translate(394.252 3367.049) rotate(90)"><rect class="b" width="35.18" height="9.87" transform="translate(1002.907 103.831) rotate(180)"/><rect class="b" width="35.18" height="9.87" transform="translate(1002.907 188.36) rotate(180)"/><rect class="b" width="9.87" height="9.87" transform="translate(967.727 113.701) rotate(180)"/><rect class="b" width="9.87" height="9.87" transform="translate(990.252 146.096) rotate(180)"/><rect class="b" width="9.87" height="9.87" transform="translate(990.252 266.359) rotate(180)"/><rect class="b" width="9.87" height="9.87" transform="translate(990.252 155.965) rotate(180)"/><rect class="b" width="9.87" height="9.87" transform="translate(990.252 136.226) rotate(180)"/><rect class="b" width="9.87" height="9.87" transform="translate(970.512 146.095) rotate(-90)"/><rect class="b" width="9.87" height="9.87" transform="translate(990.252 146.096) rotate(-90)"/><rect class="b" width="9.87" height="9.87" transform="translate(957.857 123.571) rotate(180)"/><rect class="b" width="9.87" height="9.87" transform="translate(1002.907 103.831)"/><rect class="b" width="9.87" height="9.87" transform="translate(1012.776 113.701)"/><rect class="b" width="9.87" height="9.87" transform="translate(967.727 178.49) rotate(180)"/><rect class="b" width="9.87" height="9.87" transform="translate(957.857 168.62) rotate(180)"/><rect class="b" width="9.87" height="9.87" transform="translate(1002.907 168.62)"/><rect class="b" width="9.87" height="9.87" transform="translate(1012.776 158.751)"/><rect class="b" width="35.18" height="9.87" transform="translate(947.988 123.571) rotate(90)"/><rect class="b" width="35.18" height="9.87" transform="translate(1032.516 123.571) rotate(90)"/><rect class="b" width="68.13" height="9.87" transform="translate(982.531 188.36) rotate(90)"/><rect class="b" width="68.13" height="9.87" transform="translate(997.972 188.36) rotate(90)"/></g><g transform="translate(-677.013 4085.035)"><g transform="translate(1079.331 173.941)"><g transform="translate(0 63.928)"><rect class="c" width="9.254" height="9.254"/><rect class="c" width="9.254" height="9.254" transform="translate(9.254 9.254)"/><rect class="c" width="9.254" height="9.254" transform="translate(0 18.509)"/><rect class="c" width="9.254" height="9.254" transform="translate(18.509)"/><rect class="c" width="9.254" height="9.254" transform="translate(18.509 18.509)"/></g><g transform="translate(71.92 45.419)"><rect class="c" width="9.254" height="9.254"/><rect class="c" width="9.254" height="9.254" transform="translate(9.254 9.254)"/><rect class="c" width="9.254" height="9.254" transform="translate(0 18.509)"/><rect class="c" width="9.254" height="9.254" transform="translate(18.509)"/><rect class="c" width="9.254" height="9.254" transform="translate(18.509 18.509)"/></g><g transform="translate(22.246)"><rect class="c" width="9.254" height="9.254"/><rect class="c" width="9.254" height="9.254" transform="translate(9.254 9.254)"/><rect class="c" width="9.254" height="9.254" transform="translate(0 18.509)"/><rect class="c" width="9.254" height="9.254" transform="translate(18.509)"/><rect class="c" width="9.254" height="9.254" transform="translate(18.509 18.509)"/></g></g></g></g></svg>