<svg xmlns="http://www.w3.org/2000/svg" width="1280" height="164.066" viewBox="0 0 1280 164.066"><defs><style>.a{fill:#fb361d;}.b{fill:#ff33eb;}.c{fill:#f6650f;}.d{fill:#242fff;}.e{fill:#1cdbaa;}</style></defs><g transform="translate(0 -331.276)"><path class="a" d="M187.653,385.753a2.022,2.022,0,0,1-.616-1.485V340.129a2.065,2.065,0,0,1,.616-1.45,1.972,1.972,0,0,1,1.486-.653h11.886a1.969,1.969,0,0,1,1.486.653,2.07,2.07,0,0,1,.616,1.45v36.094a1.971,1.971,0,0,0,.652,1.485,2.062,2.062,0,0,0,1.45.616h11.959a2.068,2.068,0,0,1,1.45.617,1.97,1.97,0,0,1,.651,1.485v3.842a1.97,1.97,0,0,1-.651,1.485,2.067,2.067,0,0,1-1.45.616H189.139A2.026,2.026,0,0,1,187.653,385.753Z"/><path class="a" d="M236.031,385.753a1.971,1.971,0,0,1-.652-1.485v-3.842a2.1,2.1,0,0,0-2.1-2.1h-3.841a2.1,2.1,0,0,1-2.1-2.1V348.174a2.065,2.065,0,0,1,.616-1.45,1.97,1.97,0,0,1,1.486-.652h3.841a2.023,2.023,0,0,0,1.486-.616,1.946,1.946,0,0,0,.616-1.414v-3.913a2.242,2.242,0,0,1,2.1-2.1h20a2.24,2.24,0,0,1,2.1,2.1v3.913a2.108,2.108,0,0,0,2.03,2.03h3.913a2.24,2.24,0,0,1,2.1,2.1v28.049a1.971,1.971,0,0,1-.652,1.485,2.068,2.068,0,0,1-1.451.616h-3.913a1.943,1.943,0,0,0-1.414.617,2.022,2.022,0,0,0-.616,1.485v3.842a1.97,1.97,0,0,1-.651,1.485,2.068,2.068,0,0,1-1.451.616h-20A2.062,2.062,0,0,1,236.031,385.753Zm13.463-7.429a1.972,1.972,0,0,0,1.426-.616,2.015,2.015,0,0,0,.621-1.485V348.174a2.059,2.059,0,0,0-.621-1.45,1.921,1.921,0,0,0-1.426-.652h-3.949a2.035,2.035,0,0,0-1.463.652,2,2,0,0,0-.658,1.45v28.049a1.96,1.96,0,0,0,.658,1.485,2.091,2.091,0,0,0,1.463.616Z"/><path class="a" d="M284.338,385.753a2.022,2.022,0,0,1-.616-1.485v-3.842a2.1,2.1,0,0,1,2.1-2.1H297.71a2.108,2.108,0,0,0,2.1-2.111v-3.859a2.11,2.11,0,0,0-2.1-2.111h-3.842a2.243,2.243,0,0,1-2.1-2.111v-3.859a2.11,2.11,0,0,0-2.1-2.111l-3.842.072a1.968,1.968,0,0,1-1.485-.652,2.06,2.06,0,0,1-.616-1.449V348.174a2.065,2.065,0,0,1,.616-1.45,1.968,1.968,0,0,1,1.485-.652h3.842a2.022,2.022,0,0,0,1.485-.616,1.943,1.943,0,0,0,.617-1.414v-3.913a2.242,2.242,0,0,1,2.1-2.1h19.941a2.237,2.237,0,0,1,2.092,2.1v3.913a1.9,1.9,0,0,1-.649,1.414,2.05,2.05,0,0,1-1.443.616H301.9a2.226,2.226,0,0,0-2.092,2.082v3.88a1.983,1.983,0,0,0,.649,1.436,2,2,0,0,0,1.443.647h3.9a2.1,2.1,0,0,1,2.02,2.03v3.913a2.237,2.237,0,0,0,2.093,2.1h3.9a2.049,2.049,0,0,1,1.443.619,1.985,1.985,0,0,1,.649,1.492v11.94a1.987,1.987,0,0,1-.649,1.493,2.048,2.048,0,0,1-1.443.618h-3.9a2.047,2.047,0,0,0-1.443.617,1.973,1.973,0,0,0-.65,1.485v3.842a2.031,2.031,0,0,1-.613,1.485,1.93,1.93,0,0,1-1.407.616H285.823A2.022,2.022,0,0,1,284.338,385.753Z"/><path class="a" d="M356.815,385.753a2.019,2.019,0,0,1-.617-1.485V340.129a2.062,2.062,0,0,1,.617-1.45,1.969,1.969,0,0,1,1.485-.653h28.049a2.24,2.24,0,0,1,2.1,2.1v3.913a2.11,2.11,0,0,0,2.031,2.03h3.913a2.24,2.24,0,0,1,2.1,2.1v28.049a1.971,1.971,0,0,1-.652,1.485,2.067,2.067,0,0,1-1.45.616h-3.913a1.942,1.942,0,0,0-1.414.617,2.019,2.019,0,0,0-.617,1.485v3.842a1.97,1.97,0,0,1-.651,1.485,2.067,2.067,0,0,1-1.45.616H358.3A2.022,2.022,0,0,1,356.815,385.753Zm21.543-7.429a1.97,1.97,0,0,0,1.426-.616,2.015,2.015,0,0,0,.621-1.485V348.174a2.059,2.059,0,0,0-.621-1.45,1.92,1.92,0,0,0-1.426-.652h-3.949a2.035,2.035,0,0,0-1.463.652,2,2,0,0,0-.658,1.45v28.049a1.96,1.96,0,0,0,.658,1.485,2.091,2.091,0,0,0,1.463.616Z"/><path class="a" d="M413.2,385.753a2.022,2.022,0,0,1-.616-1.485V348.174a2.066,2.066,0,0,1,.616-1.45,1.97,1.97,0,0,1,1.486-.652h3.841a2.024,2.024,0,0,0,1.486-.616,1.946,1.946,0,0,0,.616-1.414v-3.913a2.242,2.242,0,0,1,2.1-2.1h20a2.24,2.24,0,0,1,2.1,2.1v3.913a2.108,2.108,0,0,0,2.03,2.03h3.913a2.24,2.24,0,0,1,2.1,2.1v36.094a1.976,1.976,0,0,1-.65,1.485,2.051,2.051,0,0,1-1.443.616h-11.9a2.048,2.048,0,0,1-1.443-.616,1.973,1.973,0,0,1-.65-1.485V372.381a2.015,2.015,0,0,0-.621-1.485,1.973,1.973,0,0,0-1.426-.617H430.8a2.092,2.092,0,0,0-1.463.617,1.96,1.96,0,0,0-.658,1.485v11.887a2.1,2.1,0,0,1-2.1,2.1H414.687A2.024,2.024,0,0,1,413.2,385.753Zm21.544-23.519a1.921,1.921,0,0,0,1.426-.652,2.053,2.053,0,0,0,.621-1.449V348.174a2.059,2.059,0,0,0-.621-1.45,1.921,1.921,0,0,0-1.426-.652H430.8a2.035,2.035,0,0,0-1.463.652,2,2,0,0,0-.658,1.45v11.959a2,2,0,0,0,.658,1.449,2.035,2.035,0,0,0,1.463.652Z"/><path class="a" d="M477.67,385.753a1.968,1.968,0,0,1-.652-1.485V348.174a2.067,2.067,0,0,0-.617-1.45,1.968,1.968,0,0,0-1.485-.652H463.029a2.022,2.022,0,0,1-1.485-.616,1.942,1.942,0,0,1-.616-1.414v-3.913a2.065,2.065,0,0,1,.616-1.45,1.969,1.969,0,0,1,1.485-.653h44.139a2.244,2.244,0,0,1,2.1,2.1v3.913a1.894,1.894,0,0,1-.653,1.414,2.065,2.065,0,0,1-1.45.616H495.209a2.24,2.24,0,0,0-2.1,2.1v36.094a2.027,2.027,0,0,1-.617,1.485,1.943,1.943,0,0,1-1.413.616H479.119A2.061,2.061,0,0,1,477.67,385.753Z"/><path class="a" d="M526.012,385.753a1.969,1.969,0,0,1-.653-1.485v-3.842a2.1,2.1,0,0,0-2.1-2.1h-3.842a2.1,2.1,0,0,1-2.1-2.1V348.174a2.065,2.065,0,0,1,.616-1.45,1.968,1.968,0,0,1,1.485-.652h3.842a2.022,2.022,0,0,0,1.485-.616,1.946,1.946,0,0,0,.616-1.414v-3.913a2.244,2.244,0,0,1,2.1-2.1h20a2.242,2.242,0,0,1,2.1,2.1v3.913a2.108,2.108,0,0,0,2.03,2.03h3.913a2.24,2.24,0,0,1,2.1,2.1v28.049a1.968,1.968,0,0,1-.652,1.485,2.066,2.066,0,0,1-1.45.616H551.6a1.943,1.943,0,0,0-1.414.617,2.022,2.022,0,0,0-.616,1.485v3.842a1.968,1.968,0,0,1-.652,1.485,2.065,2.065,0,0,1-1.45.616h-20A2.06,2.06,0,0,1,526.012,385.753Zm13.463-7.429a1.97,1.97,0,0,0,1.425-.616,2.012,2.012,0,0,0,.622-1.485V348.174a2.056,2.056,0,0,0-.622-1.45,1.919,1.919,0,0,0-1.425-.652h-3.95a2.031,2.031,0,0,0-1.462.652,2,2,0,0,0-.659,1.45v28.049a1.957,1.957,0,0,0,.659,1.485,2.087,2.087,0,0,0,1.462.616Z"/><path class="a" d="M574.317,385.753a2.022,2.022,0,0,1-.616-1.485v-3.842a2.1,2.1,0,0,1,2.1-2.1H587.69a2.02,2.02,0,0,0,1.485-.618,2.042,2.042,0,0,0,.616-1.493v-3.859a2.041,2.041,0,0,0-.616-1.492,2.021,2.021,0,0,0-1.485-.619h-3.842a2,2,0,0,1-1.449-.654,2.025,2.025,0,0,1-.653-1.457v-3.859a2.108,2.108,0,0,0-2.1-2.111l-3.842.072a1.971,1.971,0,0,1-1.486-.652,2.06,2.06,0,0,1-.616-1.449V348.174a2.065,2.065,0,0,1,.616-1.45,1.971,1.971,0,0,1,1.486-.652h3.842a2.022,2.022,0,0,0,1.485-.616,1.946,1.946,0,0,0,.616-1.414v-3.913a2.244,2.244,0,0,1,2.1-2.1h19.94a2.236,2.236,0,0,1,2.093,2.1v3.913a1.9,1.9,0,0,1-.649,1.414,2.052,2.052,0,0,1-1.444.616h-11.9a2.228,2.228,0,0,0-2.093,2.082v3.88a2.228,2.228,0,0,0,2.093,2.083h3.9a2.1,2.1,0,0,1,2.021,2.03v3.913a2.019,2.019,0,0,0,.649,1.45,2,2,0,0,0,1.444.652h3.9a2.051,2.051,0,0,1,1.444.619,1.989,1.989,0,0,1,.649,1.492v11.94a1.991,1.991,0,0,1-.649,1.493,2.05,2.05,0,0,1-1.444.618h-3.9a2.05,2.05,0,0,0-1.444.617,1.976,1.976,0,0,0-.649,1.485v3.842a2.031,2.031,0,0,1-.613,1.485,1.932,1.932,0,0,1-1.408.616H575.8A2.026,2.026,0,0,1,574.317,385.753Z"/><path class="a" d="M646.794,385.753a2.022,2.022,0,0,1-.616-1.485V340.129a2.065,2.065,0,0,1,.616-1.45,1.969,1.969,0,0,1,1.485-.653h28.049a2.242,2.242,0,0,1,2.1,2.1v3.913a2.108,2.108,0,0,0,2.03,2.03h3.913a2.016,2.016,0,0,1,1.45.65,2,2,0,0,1,.653,1.443v11.9a2,2,0,0,1-.653,1.444,2.019,2.019,0,0,1-1.45.649l-3.913.072a1.947,1.947,0,0,0-1.414.617,2.022,2.022,0,0,0-.616,1.485v3.842a2.24,2.24,0,0,1-2.1,2.1H664.369a2.063,2.063,0,0,0-1.449.617,1.968,1.968,0,0,0-.652,1.485v11.887a2.1,2.1,0,0,1-2.1,2.1H648.279A2.022,2.022,0,0,1,646.794,385.753Zm21.544-23.591a1.928,1.928,0,0,0,1.426-.649,2.044,2.044,0,0,0,.621-1.444v-11.9a2.041,2.041,0,0,0-.621-1.443,1.926,1.926,0,0,0-1.426-.65h-3.949a2.039,2.039,0,0,0-1.463.65,1.982,1.982,0,0,0-.658,1.443v11.9a1.984,1.984,0,0,0,.658,1.444,2.041,2.041,0,0,0,1.463.649Z"/><path class="a" d="M703.181,385.753a2.022,2.022,0,0,1-.616-1.485V340.129a2.065,2.065,0,0,1,.616-1.45,1.969,1.969,0,0,1,1.485-.653h28.049a2.242,2.242,0,0,1,2.1,2.1v3.913a1.893,1.893,0,0,1-.652,1.414,2.065,2.065,0,0,1-1.45.616H720.756a2.242,2.242,0,0,0-2.1,2.1v3.914a2.244,2.244,0,0,0,2.1,2.1h11.959a2.07,2.07,0,0,1,1.45.616,1.894,1.894,0,0,1,.652,1.413v3.914a2.24,2.24,0,0,1-2.1,2.1H720.756a2.065,2.065,0,0,0-1.449.617,1.969,1.969,0,0,0-.653,1.485v11.887a1.969,1.969,0,0,0,.653,1.485,2.06,2.06,0,0,0,1.449.616h11.959a2.067,2.067,0,0,1,1.45.617,1.968,1.968,0,0,1,.652,1.485v3.842a1.968,1.968,0,0,1-.652,1.485,2.065,2.065,0,0,1-1.45.616H704.666A2.022,2.022,0,0,1,703.181,385.753Z"/><path class="a" d="M751.523,385.753a2.019,2.019,0,0,1-.617-1.485V340.129a2.062,2.062,0,0,1,.617-1.45,1.969,1.969,0,0,1,1.485-.653h28.049a2.24,2.24,0,0,1,2.1,2.1v3.913a2.11,2.11,0,0,0,2.031,2.03H789.1a2.24,2.24,0,0,1,2.1,2.1v11.959a2.24,2.24,0,0,1-2.1,2.1h-3.913a1.945,1.945,0,0,0-1.414.617,2.019,2.019,0,0,0-.617,1.485v3.842a2.058,2.058,0,0,0,.617,1.449,1.892,1.892,0,0,0,1.414.652H789.1a2.068,2.068,0,0,1,1.45.617,1.971,1.971,0,0,1,.652,1.485v11.887a1.976,1.976,0,0,1-.65,1.485,2.05,2.05,0,0,1-1.443.616H777.206a2.048,2.048,0,0,1-1.443-.616,1.973,1.973,0,0,1-.65-1.485V372.381a2.015,2.015,0,0,0-.621-1.485,1.97,1.97,0,0,0-1.425-.617h-3.95a2.092,2.092,0,0,0-1.463.617,1.96,1.96,0,0,0-.658,1.485v11.887a2.1,2.1,0,0,1-2.1,2.1H753.008A2.022,2.022,0,0,1,751.523,385.753Zm21.544-23.519a1.919,1.919,0,0,0,1.425-.652,2.053,2.053,0,0,0,.621-1.449V348.174a2.059,2.059,0,0,0-.621-1.45,1.919,1.919,0,0,0-1.425-.652h-3.95a2.035,2.035,0,0,0-1.463.652,2,2,0,0,0-.658,1.45v11.959a2,2,0,0,0,.658,1.449,2.035,2.035,0,0,0,1.463.652Z"/><path class="a" d="M807.91,385.753a2.022,2.022,0,0,1-.616-1.485v-3.842a2.1,2.1,0,0,1,2.1-2.1h11.886a2.107,2.107,0,0,0,2.1-2.111v-3.859a2.108,2.108,0,0,0-2.1-2.111h-3.841a2.006,2.006,0,0,1-1.45-.654,2.028,2.028,0,0,1-.652-1.457v-3.859a2.108,2.108,0,0,0-2.1-2.111l-3.841.072a1.97,1.97,0,0,1-1.486-.652,2.06,2.06,0,0,1-.616-1.449V348.174a2.066,2.066,0,0,1,.616-1.45,1.97,1.97,0,0,1,1.486-.652h3.841a2.024,2.024,0,0,0,1.486-.616,1.946,1.946,0,0,0,.616-1.414v-3.913a2.242,2.242,0,0,1,2.1-2.1h19.94a2,2,0,0,1,1.443.653,2.016,2.016,0,0,1,.65,1.45v3.913a1.9,1.9,0,0,1-.65,1.414,2.048,2.048,0,0,1-1.443.616h-11.9a2.226,2.226,0,0,0-2.093,2.082v3.88a2.226,2.226,0,0,0,2.093,2.083h3.9a2.1,2.1,0,0,1,2.021,2.03v3.913a2.235,2.235,0,0,0,2.092,2.1h3.9a2.047,2.047,0,0,1,1.443.619,1.986,1.986,0,0,1,.65,1.492v11.94a1.988,1.988,0,0,1-.65,1.493,2.046,2.046,0,0,1-1.443.618h-3.9a2.049,2.049,0,0,0-1.443.617,1.972,1.972,0,0,0-.649,1.485v3.842a2.028,2.028,0,0,1-.614,1.485,1.93,1.93,0,0,1-1.407.616H809.4A2.024,2.024,0,0,1,807.91,385.753Z"/><path class="a" d="M864.333,385.753a1.971,1.971,0,0,1-.652-1.485v-3.842a2.1,2.1,0,0,0-2.1-2.1h-3.842a2.1,2.1,0,0,1-2.1-2.1V348.174a2.065,2.065,0,0,1,.616-1.45,1.968,1.968,0,0,1,1.485-.652h3.842a2.026,2.026,0,0,0,1.486-.616,1.946,1.946,0,0,0,.616-1.414v-3.913a2.242,2.242,0,0,1,2.1-2.1h20a2.242,2.242,0,0,1,2.1,2.1v3.913a2.108,2.108,0,0,0,2.03,2.03h3.913a2.242,2.242,0,0,1,2.1,2.1v28.049a1.969,1.969,0,0,1-.653,1.485,2.066,2.066,0,0,1-1.45.616h-3.913a1.943,1.943,0,0,0-1.414.617,2.022,2.022,0,0,0-.616,1.485v3.842a1.968,1.968,0,0,1-.652,1.485,2.065,2.065,0,0,1-1.45.616h-20A2.061,2.061,0,0,1,864.333,385.753Zm13.463-7.429a1.972,1.972,0,0,0,1.426-.616,2.015,2.015,0,0,0,.621-1.485V348.174a2.059,2.059,0,0,0-.621-1.45,1.921,1.921,0,0,0-1.426-.652h-3.949a2.033,2.033,0,0,0-1.463.652,2,2,0,0,0-.658,1.45v28.049a1.956,1.956,0,0,0,.658,1.485,2.09,2.09,0,0,0,1.463.616Z"/><path class="a" d="M912.639,385.753a2.022,2.022,0,0,1-.616-1.485V340.129a2.066,2.066,0,0,1,.616-1.45,1.969,1.969,0,0,1,1.485-.653h11.887a1.969,1.969,0,0,1,1.485.653,2.07,2.07,0,0,1,.616,1.45v3.913a1.884,1.884,0,0,0,.659,1.414,2.087,2.087,0,0,0,1.462.616h3.95a1.919,1.919,0,0,1,1.425.652,2.055,2.055,0,0,1,.622,1.45v3.914a2.237,2.237,0,0,0,2.092,2.1h3.9a2.241,2.241,0,0,0,2.093-2.1V340.129a2.069,2.069,0,0,1,.612-1.45,1.883,1.883,0,0,1,1.407-.653h3.9a2.239,2.239,0,0,1,2.092,2.1v44.139a1.973,1.973,0,0,1-.65,1.485,2.049,2.049,0,0,1-1.442.616H938.322a2.05,2.05,0,0,1-1.443-.616,1.972,1.972,0,0,1-.649-1.485V372.381a2.012,2.012,0,0,0-.622-1.485,1.97,1.97,0,0,0-1.425-.617h-3.95a2.031,2.031,0,0,1-1.462-.652,2,2,0,0,1-.659-1.449v-3.842a2.1,2.1,0,0,0-2.1-2.1h-3.842a2.065,2.065,0,0,0-1.449.617,1.969,1.969,0,0,0-.653,1.485v19.932a2.1,2.1,0,0,1-2.1,2.1h-3.842A2.022,2.022,0,0,1,912.639,385.753Z"/><path class="a" d="M969.026,385.753a2.022,2.022,0,0,1-.616-1.485V348.174a2.065,2.065,0,0,1,.616-1.45,1.971,1.971,0,0,1,1.486-.652h3.842a2.022,2.022,0,0,0,1.485-.616,1.946,1.946,0,0,0,.616-1.414v-3.913a2.244,2.244,0,0,1,2.1-2.1h20a2.24,2.24,0,0,1,2.1,2.1v3.913a2.108,2.108,0,0,0,2.03,2.03h3.914a2.24,2.24,0,0,1,2.1,2.1v36.094a1.976,1.976,0,0,1-.65,1.485,2.05,2.05,0,0,1-1.443.616h-11.9a2.048,2.048,0,0,1-1.443-.616,1.973,1.973,0,0,1-.65-1.485V372.381A2.015,2.015,0,0,0,992,370.9a1.971,1.971,0,0,0-1.426-.617h-3.949a2.092,2.092,0,0,0-1.463.617,1.96,1.96,0,0,0-.658,1.485v11.887a2.1,2.1,0,0,1-2.1,2.1H970.512A2.026,2.026,0,0,1,969.026,385.753Zm21.544-23.519a1.919,1.919,0,0,0,1.426-.652,2.053,2.053,0,0,0,.621-1.449V348.174a2.059,2.059,0,0,0-.621-1.45,1.919,1.919,0,0,0-1.426-.652h-3.949a2.035,2.035,0,0,0-1.463.652,2,2,0,0,0-.658,1.45v11.959a2,2,0,0,0,.658,1.449,2.035,2.035,0,0,0,1.463.652Z"/><path class="a" d="M1025.413,385.753a2.022,2.022,0,0,1-.616-1.485V340.129a2.065,2.065,0,0,1,.616-1.45,1.969,1.969,0,0,1,1.486-.653h11.886a1.972,1.972,0,0,1,1.486.653,2.07,2.07,0,0,1,.616,1.45v36.094a1.971,1.971,0,0,0,.652,1.485,2.062,2.062,0,0,0,1.449.616h11.959a2.069,2.069,0,0,1,1.451.617,1.97,1.97,0,0,1,.651,1.485v3.842a1.97,1.97,0,0,1-.651,1.485,2.067,2.067,0,0,1-1.451.616H1026.9A2.023,2.023,0,0,1,1025.413,385.753Z"/><path class="a" d="M1065.711,385.753a2.022,2.022,0,0,1-.616-1.485V340.129a2.066,2.066,0,0,1,.616-1.45,1.968,1.968,0,0,1,1.485-.653h28.049a2.242,2.242,0,0,1,2.1,2.1v3.913a1.893,1.893,0,0,1-.652,1.414,2.065,2.065,0,0,1-1.45.616h-11.959a2.24,2.24,0,0,0-2.1,2.1v3.914a2.242,2.242,0,0,0,2.1,2.1h11.959a2.069,2.069,0,0,1,1.45.616,1.894,1.894,0,0,1,.652,1.413v3.914a2.24,2.24,0,0,1-2.1,2.1h-11.959a2.067,2.067,0,0,0-1.449.617,1.968,1.968,0,0,0-.652,1.485v11.887a1.968,1.968,0,0,0,.652,1.485,2.061,2.061,0,0,0,1.449.616h11.959a2.066,2.066,0,0,1,1.45.617,1.968,1.968,0,0,1,.652,1.485v3.842a1.968,1.968,0,0,1-.652,1.485,2.065,2.065,0,0,1-1.45.616H1067.2A2.022,2.022,0,0,1,1065.711,385.753Z"/><path class="a" d="M1114.053,385.753a2.022,2.022,0,0,1-.616-1.485v-3.842a2.1,2.1,0,0,1,2.1-2.1h11.887a2.02,2.02,0,0,0,1.485-.618,2.042,2.042,0,0,0,.616-1.493v-3.859a2.042,2.042,0,0,0-.616-1.492,2.021,2.021,0,0,0-1.485-.619h-3.842a2.243,2.243,0,0,1-2.1-2.111v-3.859a2.11,2.11,0,0,0-2.1-2.111l-3.842.072a1.968,1.968,0,0,1-1.485-.652,2.06,2.06,0,0,1-.616-1.449V348.174a2.065,2.065,0,0,1,.616-1.45,1.968,1.968,0,0,1,1.485-.652h3.842a2.022,2.022,0,0,0,1.485-.616,1.947,1.947,0,0,0,.617-1.414v-3.913a2.242,2.242,0,0,1,2.1-2.1h19.941a2.236,2.236,0,0,1,2.092,2.1v3.913a1.9,1.9,0,0,1-.649,1.414,2.05,2.05,0,0,1-1.443.616h-11.905a2.229,2.229,0,0,0-2.093,2.082v3.88a2.228,2.228,0,0,0,2.093,2.083h3.9a2.1,2.1,0,0,1,2.02,2.03v3.913a2.237,2.237,0,0,0,2.093,2.1h3.9a2.049,2.049,0,0,1,1.443.619,1.985,1.985,0,0,1,.649,1.492v11.94a1.987,1.987,0,0,1-.649,1.493,2.048,2.048,0,0,1-1.443.618h-3.9a2.047,2.047,0,0,0-1.443.617,1.973,1.973,0,0,0-.65,1.485v3.842a2.031,2.031,0,0,1-.613,1.485,1.93,1.93,0,0,1-1.407.616h-19.977A2.022,2.022,0,0,1,1114.053,385.753Z"/><path class="a" d="M1208.018,386.869h-11.959a2.55,2.55,0,0,1-1.792-.753h0a2.46,2.46,0,0,1-.81-1.848V364.336a1.6,1.6,0,0,0-1.6-1.6h-3.842a2.446,2.446,0,0,1-1.851-.817,2.581,2.581,0,0,1-.751-1.8v-3.949a1.481,1.481,0,0,0-.471-1.074,1.528,1.528,0,0,0-1.13-.473h-3.842a2.463,2.463,0,0,1-1.849-.8,2.543,2.543,0,0,1-.753-1.787V340.119a2.543,2.543,0,0,1,.754-1.787,2.467,2.467,0,0,1,1.848-.806h19.984a2.493,2.493,0,0,1,1.862.807,2.556,2.556,0,0,1,.759,1.8v20a1.508,1.508,0,0,0,.51,1.094,1.546,1.546,0,0,0,1.111.507h3.95a1.426,1.426,0,0,0,1.063-.5,1.558,1.558,0,0,0,.484-1.1v-20a2.732,2.732,0,0,1,2.593-2.6h11.9a2.733,2.733,0,0,1,2.592,2.593v11.906a2.477,2.477,0,0,1-.8,1.8,2.517,2.517,0,0,1-1.807.794h-3.932a1.458,1.458,0,0,0-1.065.474,1.475,1.475,0,0,0-.473,1.073v3.949a2.753,2.753,0,0,1-2.611,2.621h-3.932a1.591,1.591,0,0,0-1.115.482,1.473,1.473,0,0,0-.5,1.12v19.932a2.518,2.518,0,0,1-.763,1.839A2.438,2.438,0,0,1,1208.018,386.869Zm-28.049-48.343a1.481,1.481,0,0,0-1.122.495,1.553,1.553,0,0,0-.48,1.1v11.906a1.554,1.554,0,0,0,.479,1.1,1.478,1.478,0,0,0,1.123.494h3.842a2.506,2.506,0,0,1,1.839.769,2.465,2.465,0,0,1,.762,1.778v3.949a1.592,1.592,0,0,0,.481,1.121,1.466,1.466,0,0,0,1.121.5h3.842a2.605,2.605,0,0,1,2.6,2.6v19.932a1.48,1.48,0,0,0,.495,1.122h0a1.568,1.568,0,0,0,1.106.479h11.959a1.45,1.45,0,0,0,1.059-.469,1.529,1.529,0,0,0,.47-1.132V364.336a2.462,2.462,0,0,1,.811-1.85,2.58,2.58,0,0,1,1.8-.752h3.932a1.523,1.523,0,0,0,1.1-.51,1.542,1.542,0,0,0,.51-1.111v-3.949a2.621,2.621,0,0,1,2.538-2.547h3.932a1.536,1.536,0,0,0,1.1-.505,1.5,1.5,0,0,0,.507-1.087V340.119a1.741,1.741,0,0,0-1.592-1.593h-11.9a1.509,1.509,0,0,0-1.09.505,1.533,1.533,0,0,0-.5,1.1v20a2.548,2.548,0,0,1-.759,1.794,2.41,2.41,0,0,1-1.788.807h-3.95a2.527,2.527,0,0,1-1.814-.8,2.491,2.491,0,0,1-.807-1.8v-20a1.563,1.563,0,0,0-.483-1.105,1.506,1.506,0,0,0-1.138-.5Z"/><path class="b" d="M187.653,379.5a2.022,2.022,0,0,1-.616-1.485V333.88a2.065,2.065,0,0,1,.616-1.45,1.972,1.972,0,0,1,1.486-.653h11.886a1.969,1.969,0,0,1,1.486.653,2.07,2.07,0,0,1,.616,1.45v36.094a1.971,1.971,0,0,0,.652,1.485,2.062,2.062,0,0,0,1.45.616h11.959a2.068,2.068,0,0,1,1.45.617,1.97,1.97,0,0,1,.651,1.485v3.842a1.97,1.97,0,0,1-.651,1.485,2.067,2.067,0,0,1-1.45.616H189.139A2.026,2.026,0,0,1,187.653,379.5Z"/><path class="b" d="M236.031,379.5a1.971,1.971,0,0,1-.652-1.485v-3.842a2.1,2.1,0,0,0-2.1-2.1h-3.841a2.1,2.1,0,0,1-2.1-2.1V341.925a2.065,2.065,0,0,1,.616-1.45,1.97,1.97,0,0,1,1.486-.652h3.841a2.023,2.023,0,0,0,1.486-.616,1.946,1.946,0,0,0,.616-1.414V333.88a2.242,2.242,0,0,1,2.1-2.1h20a2.24,2.24,0,0,1,2.1,2.1v3.913a2.108,2.108,0,0,0,2.03,2.03h3.913a2.24,2.24,0,0,1,2.1,2.1v28.049a1.971,1.971,0,0,1-.652,1.485,2.068,2.068,0,0,1-1.451.616h-3.913a1.943,1.943,0,0,0-1.414.617,2.022,2.022,0,0,0-.616,1.485v3.842a1.97,1.97,0,0,1-.651,1.485,2.068,2.068,0,0,1-1.451.616h-20A2.062,2.062,0,0,1,236.031,379.5Zm13.463-7.429a1.972,1.972,0,0,0,1.426-.616,2.015,2.015,0,0,0,.621-1.485V341.925a2.059,2.059,0,0,0-.621-1.45,1.921,1.921,0,0,0-1.426-.652h-3.949a2.035,2.035,0,0,0-1.463.652,2,2,0,0,0-.658,1.45v28.049a1.96,1.96,0,0,0,.658,1.485,2.091,2.091,0,0,0,1.463.616Z"/><path class="b" d="M284.338,379.5a2.022,2.022,0,0,1-.616-1.485v-3.842a2.1,2.1,0,0,1,2.1-2.1H297.71a2.108,2.108,0,0,0,2.1-2.111v-3.859a2.11,2.11,0,0,0-2.1-2.111h-3.842a2.243,2.243,0,0,1-2.1-2.111v-3.859a2.11,2.11,0,0,0-2.1-2.111l-3.842.072a1.968,1.968,0,0,1-1.485-.652,2.06,2.06,0,0,1-.616-1.449V341.925a2.065,2.065,0,0,1,.616-1.45,1.968,1.968,0,0,1,1.485-.652h3.842a2.022,2.022,0,0,0,1.485-.616,1.943,1.943,0,0,0,.617-1.414V333.88a2.242,2.242,0,0,1,2.1-2.1h19.941a2.237,2.237,0,0,1,2.092,2.1v3.913a1.9,1.9,0,0,1-.649,1.414,2.05,2.05,0,0,1-1.443.616H301.9a2.226,2.226,0,0,0-2.092,2.082v3.88a1.983,1.983,0,0,0,.649,1.436,2,2,0,0,0,1.443.647h3.9a2.1,2.1,0,0,1,2.02,2.03v3.913a2.237,2.237,0,0,0,2.093,2.1h3.9a2.049,2.049,0,0,1,1.443.619,1.985,1.985,0,0,1,.649,1.492v11.94a1.987,1.987,0,0,1-.649,1.493,2.048,2.048,0,0,1-1.443.618h-3.9a2.047,2.047,0,0,0-1.443.617,1.973,1.973,0,0,0-.65,1.485v3.842a2.031,2.031,0,0,1-.613,1.485,1.93,1.93,0,0,1-1.407.616H285.823A2.022,2.022,0,0,1,284.338,379.5Z"/><path class="b" d="M356.815,379.5a2.019,2.019,0,0,1-.617-1.485V333.88a2.062,2.062,0,0,1,.617-1.45,1.969,1.969,0,0,1,1.485-.653h28.049a2.24,2.24,0,0,1,2.1,2.1v3.913a2.11,2.11,0,0,0,2.031,2.03h3.913a2.24,2.24,0,0,1,2.1,2.1v28.049a1.971,1.971,0,0,1-.652,1.485,2.067,2.067,0,0,1-1.45.616h-3.913a1.942,1.942,0,0,0-1.414.617,2.019,2.019,0,0,0-.617,1.485v3.842a1.97,1.97,0,0,1-.651,1.485,2.067,2.067,0,0,1-1.45.616H358.3A2.022,2.022,0,0,1,356.815,379.5Zm21.543-7.429a1.97,1.97,0,0,0,1.426-.616,2.015,2.015,0,0,0,.621-1.485V341.925a2.059,2.059,0,0,0-.621-1.45,1.92,1.92,0,0,0-1.426-.652h-3.949a2.035,2.035,0,0,0-1.463.652,2,2,0,0,0-.658,1.45v28.049a1.96,1.96,0,0,0,.658,1.485,2.091,2.091,0,0,0,1.463.616Z"/><path class="b" d="M413.2,379.5a2.022,2.022,0,0,1-.616-1.485V341.925a2.065,2.065,0,0,1,.616-1.45,1.97,1.97,0,0,1,1.486-.652h3.841a2.024,2.024,0,0,0,1.486-.616,1.946,1.946,0,0,0,.616-1.414V333.88a2.242,2.242,0,0,1,2.1-2.1h20a2.24,2.24,0,0,1,2.1,2.1v3.913a2.108,2.108,0,0,0,2.03,2.03h3.913a2.24,2.24,0,0,1,2.1,2.1v36.094a1.976,1.976,0,0,1-.65,1.485,2.051,2.051,0,0,1-1.443.616h-11.9a2.048,2.048,0,0,1-1.443-.616,1.973,1.973,0,0,1-.65-1.485V366.132a2.015,2.015,0,0,0-.621-1.485,1.973,1.973,0,0,0-1.426-.617H430.8a2.092,2.092,0,0,0-1.463.617,1.96,1.96,0,0,0-.658,1.485v11.887a2.1,2.1,0,0,1-2.1,2.1H414.687A2.024,2.024,0,0,1,413.2,379.5Zm21.544-23.519a1.921,1.921,0,0,0,1.426-.652,2.053,2.053,0,0,0,.621-1.449V341.925a2.059,2.059,0,0,0-.621-1.45,1.921,1.921,0,0,0-1.426-.652H430.8a2.035,2.035,0,0,0-1.463.652,2,2,0,0,0-.658,1.45v11.959a2,2,0,0,0,.658,1.449,2.035,2.035,0,0,0,1.463.652Z"/><path class="b" d="M477.67,379.5a1.968,1.968,0,0,1-.652-1.485V341.925a2.067,2.067,0,0,0-.617-1.45,1.968,1.968,0,0,0-1.485-.652H463.029a2.022,2.022,0,0,1-1.485-.616,1.942,1.942,0,0,1-.616-1.414V333.88a2.065,2.065,0,0,1,.616-1.45,1.969,1.969,0,0,1,1.485-.653h44.139a2.244,2.244,0,0,1,2.1,2.1v3.913a1.894,1.894,0,0,1-.653,1.414,2.065,2.065,0,0,1-1.45.616H495.209a2.24,2.24,0,0,0-2.1,2.1v36.094a2.027,2.027,0,0,1-.617,1.485,1.943,1.943,0,0,1-1.413.616H479.119A2.061,2.061,0,0,1,477.67,379.5Z"/><path class="b" d="M526.012,379.5a1.969,1.969,0,0,1-.653-1.485v-3.842a2.1,2.1,0,0,0-2.1-2.1h-3.842a2.1,2.1,0,0,1-2.1-2.1V341.925a2.065,2.065,0,0,1,.616-1.45,1.968,1.968,0,0,1,1.485-.652h3.842a2.022,2.022,0,0,0,1.485-.616,1.946,1.946,0,0,0,.616-1.414V333.88a2.244,2.244,0,0,1,2.1-2.1h20a2.242,2.242,0,0,1,2.1,2.1v3.913a2.108,2.108,0,0,0,2.03,2.03h3.913a2.24,2.24,0,0,1,2.1,2.1v28.049a1.968,1.968,0,0,1-.652,1.485,2.066,2.066,0,0,1-1.45.616H551.6a1.943,1.943,0,0,0-1.414.617,2.022,2.022,0,0,0-.616,1.485v3.842a1.968,1.968,0,0,1-.652,1.485,2.065,2.065,0,0,1-1.45.616h-20A2.06,2.06,0,0,1,526.012,379.5Zm13.463-7.429a1.97,1.97,0,0,0,1.425-.616,2.012,2.012,0,0,0,.622-1.485V341.925a2.056,2.056,0,0,0-.622-1.45,1.919,1.919,0,0,0-1.425-.652h-3.95a2.031,2.031,0,0,0-1.462.652,2,2,0,0,0-.659,1.45v28.049a1.957,1.957,0,0,0,.659,1.485,2.087,2.087,0,0,0,1.462.616Z"/><path class="b" d="M574.317,379.5a2.022,2.022,0,0,1-.616-1.485v-3.842a2.1,2.1,0,0,1,2.1-2.1H587.69a2.02,2.02,0,0,0,1.485-.618,2.042,2.042,0,0,0,.616-1.493v-3.859a2.108,2.108,0,0,0-2.1-2.111h-3.842a2,2,0,0,1-1.449-.654,2.025,2.025,0,0,1-.653-1.457v-3.859a2.108,2.108,0,0,0-2.1-2.111l-3.842.072a1.971,1.971,0,0,1-1.486-.652,2.06,2.06,0,0,1-.616-1.449V341.925a2.065,2.065,0,0,1,.616-1.45,1.971,1.971,0,0,1,1.486-.652h3.842a2.022,2.022,0,0,0,1.485-.616,1.946,1.946,0,0,0,.616-1.414V333.88a2.244,2.244,0,0,1,2.1-2.1h19.94a2.236,2.236,0,0,1,2.093,2.1v3.913a1.9,1.9,0,0,1-.649,1.414,2.052,2.052,0,0,1-1.444.616h-11.9a2.228,2.228,0,0,0-2.093,2.082v3.88a2.228,2.228,0,0,0,2.093,2.083h3.9a2.1,2.1,0,0,1,2.021,2.03v3.913a2.019,2.019,0,0,0,.649,1.45,2,2,0,0,0,1.444.652h3.9a2.051,2.051,0,0,1,1.444.619,1.989,1.989,0,0,1,.649,1.492v11.94a1.991,1.991,0,0,1-.649,1.493,2.05,2.05,0,0,1-1.444.618h-3.9a2.05,2.05,0,0,0-1.444.617,1.976,1.976,0,0,0-.649,1.485v3.842a2.031,2.031,0,0,1-.613,1.485,1.932,1.932,0,0,1-1.408.616H575.8A2.026,2.026,0,0,1,574.317,379.5Z"/><path class="b" d="M646.794,379.5a2.022,2.022,0,0,1-.616-1.485V333.88a2.065,2.065,0,0,1,.616-1.45,1.969,1.969,0,0,1,1.485-.653h28.049a2.242,2.242,0,0,1,2.1,2.1v3.913a2.108,2.108,0,0,0,2.03,2.03h3.913a2.016,2.016,0,0,1,1.45.65,2,2,0,0,1,.653,1.443v11.9a2,2,0,0,1-.653,1.444,2.019,2.019,0,0,1-1.45.649l-3.913.072a1.947,1.947,0,0,0-1.414.617,2.022,2.022,0,0,0-.616,1.485v3.842a2.24,2.24,0,0,1-2.1,2.1H664.369a2.063,2.063,0,0,0-1.449.617,1.968,1.968,0,0,0-.652,1.485v11.887a2.1,2.1,0,0,1-2.1,2.1H648.279A2.022,2.022,0,0,1,646.794,379.5Zm21.544-23.591a1.928,1.928,0,0,0,1.426-.649,2.044,2.044,0,0,0,.621-1.444v-11.9a2.041,2.041,0,0,0-.621-1.443,1.926,1.926,0,0,0-1.426-.65h-3.949a2.039,2.039,0,0,0-1.463.65,1.982,1.982,0,0,0-.658,1.443v11.9a1.984,1.984,0,0,0,.658,1.444,2.041,2.041,0,0,0,1.463.649Z"/><path class="b" d="M703.181,379.5a2.022,2.022,0,0,1-.616-1.485V333.88a2.065,2.065,0,0,1,.616-1.45,1.969,1.969,0,0,1,1.485-.653h28.049a2.242,2.242,0,0,1,2.1,2.1v3.913a1.893,1.893,0,0,1-.652,1.414,2.065,2.065,0,0,1-1.45.616H720.756a2.242,2.242,0,0,0-2.1,2.1v3.914a2.244,2.244,0,0,0,2.1,2.1h11.959a2.07,2.07,0,0,1,1.45.616,1.894,1.894,0,0,1,.652,1.413v3.914a2.24,2.24,0,0,1-2.1,2.1H720.756a2.065,2.065,0,0,0-1.449.617,1.969,1.969,0,0,0-.653,1.485v11.887a1.969,1.969,0,0,0,.653,1.485,2.06,2.06,0,0,0,1.449.616h11.959a2.067,2.067,0,0,1,1.45.617,1.968,1.968,0,0,1,.652,1.485v3.842a1.968,1.968,0,0,1-.652,1.485,2.065,2.065,0,0,1-1.45.616H704.666A2.022,2.022,0,0,1,703.181,379.5Z"/><path class="b" d="M751.523,379.5a2.019,2.019,0,0,1-.617-1.485V333.88a2.062,2.062,0,0,1,.617-1.45,1.969,1.969,0,0,1,1.485-.653h28.049a2.24,2.24,0,0,1,2.1,2.1v3.913a2.11,2.11,0,0,0,2.031,2.03H789.1a2.24,2.24,0,0,1,2.1,2.1v11.959a2.24,2.24,0,0,1-2.1,2.1h-3.913a1.945,1.945,0,0,0-1.414.617,2.019,2.019,0,0,0-.617,1.485v3.842a2.058,2.058,0,0,0,.617,1.449,1.892,1.892,0,0,0,1.414.652H789.1a2.068,2.068,0,0,1,1.45.617,1.971,1.971,0,0,1,.652,1.485v11.887a1.976,1.976,0,0,1-.65,1.485,2.05,2.05,0,0,1-1.443.616H777.206a2.048,2.048,0,0,1-1.443-.616,1.973,1.973,0,0,1-.65-1.485V366.132a2.015,2.015,0,0,0-.621-1.485,1.97,1.97,0,0,0-1.425-.617h-3.95a2.092,2.092,0,0,0-1.463.617,1.96,1.96,0,0,0-.658,1.485v11.887a2.1,2.1,0,0,1-2.1,2.1H753.008A2.022,2.022,0,0,1,751.523,379.5Zm21.544-23.519a1.919,1.919,0,0,0,1.425-.652,2.053,2.053,0,0,0,.621-1.449V341.925a2.059,2.059,0,0,0-.621-1.45,1.919,1.919,0,0,0-1.425-.652h-3.95a2.035,2.035,0,0,0-1.463.652,2,2,0,0,0-.658,1.45v11.959a2,2,0,0,0,.658,1.449,2.035,2.035,0,0,0,1.463.652Z"/><path class="b" d="M807.91,379.5a2.022,2.022,0,0,1-.616-1.485v-3.842a2.1,2.1,0,0,1,2.1-2.1h11.886a2.107,2.107,0,0,0,2.1-2.111v-3.859a2.108,2.108,0,0,0-2.1-2.111h-3.841a2.006,2.006,0,0,1-1.45-.654,2.028,2.028,0,0,1-.652-1.457v-3.859a2.108,2.108,0,0,0-2.1-2.111l-3.841.072a1.97,1.97,0,0,1-1.486-.652,2.06,2.06,0,0,1-.616-1.449V341.925a2.066,2.066,0,0,1,.616-1.45,1.97,1.97,0,0,1,1.486-.652h3.841a2.024,2.024,0,0,0,1.486-.616,1.946,1.946,0,0,0,.616-1.414V333.88a2.242,2.242,0,0,1,2.1-2.1h19.94a2,2,0,0,1,1.443.653,2.016,2.016,0,0,1,.65,1.45v3.913a1.9,1.9,0,0,1-.65,1.414,2.048,2.048,0,0,1-1.443.616h-11.9a2.226,2.226,0,0,0-2.093,2.082v3.88a2.226,2.226,0,0,0,2.093,2.083h3.9a2.1,2.1,0,0,1,2.021,2.03v3.913a2.235,2.235,0,0,0,2.092,2.1h3.9a2.047,2.047,0,0,1,1.443.619,1.986,1.986,0,0,1,.65,1.492v11.94a1.988,1.988,0,0,1-.65,1.493,2.046,2.046,0,0,1-1.443.618h-3.9a2.049,2.049,0,0,0-1.443.617,1.972,1.972,0,0,0-.649,1.485v3.842a2.028,2.028,0,0,1-.614,1.485,1.93,1.93,0,0,1-1.407.616H809.4A2.024,2.024,0,0,1,807.91,379.5Z"/><path class="b" d="M864.333,379.5a1.971,1.971,0,0,1-.652-1.485v-3.842a2.1,2.1,0,0,0-2.1-2.1h-3.842a2.1,2.1,0,0,1-2.1-2.1V341.925a2.065,2.065,0,0,1,.616-1.45,1.968,1.968,0,0,1,1.485-.652h3.842a2.026,2.026,0,0,0,1.486-.616,1.946,1.946,0,0,0,.616-1.414V333.88a2.242,2.242,0,0,1,2.1-2.1h20a2.242,2.242,0,0,1,2.1,2.1v3.913a2.108,2.108,0,0,0,2.03,2.03h3.913a2.242,2.242,0,0,1,2.1,2.1v28.049a1.969,1.969,0,0,1-.653,1.485,2.066,2.066,0,0,1-1.45.616h-3.913a1.943,1.943,0,0,0-1.414.617,2.022,2.022,0,0,0-.616,1.485v3.842a1.968,1.968,0,0,1-.652,1.485,2.065,2.065,0,0,1-1.45.616h-20A2.061,2.061,0,0,1,864.333,379.5Zm13.463-7.429a1.972,1.972,0,0,0,1.426-.616,2.015,2.015,0,0,0,.621-1.485V341.925a2.059,2.059,0,0,0-.621-1.45,1.921,1.921,0,0,0-1.426-.652h-3.949a2.033,2.033,0,0,0-1.463.652,2,2,0,0,0-.658,1.45v28.049a1.956,1.956,0,0,0,.658,1.485,2.09,2.09,0,0,0,1.463.616Z"/><path class="b" d="M912.639,379.5a2.022,2.022,0,0,1-.616-1.485V333.88a2.066,2.066,0,0,1,.616-1.45,1.969,1.969,0,0,1,1.485-.653h11.887a1.969,1.969,0,0,1,1.485.653,2.07,2.07,0,0,1,.616,1.45v3.913a1.884,1.884,0,0,0,.659,1.414,2.087,2.087,0,0,0,1.462.616h3.95a1.919,1.919,0,0,1,1.425.652,2.055,2.055,0,0,1,.622,1.45v3.914a2.237,2.237,0,0,0,2.092,2.1h3.9a2.241,2.241,0,0,0,2.093-2.1V333.88a2.069,2.069,0,0,1,.612-1.45,1.883,1.883,0,0,1,1.407-.653h3.9a2.239,2.239,0,0,1,2.092,2.1v44.139a1.973,1.973,0,0,1-.65,1.485,2.049,2.049,0,0,1-1.442.616H938.322a2.05,2.05,0,0,1-1.443-.616,1.972,1.972,0,0,1-.649-1.485V366.132a2.012,2.012,0,0,0-.622-1.485,1.97,1.97,0,0,0-1.425-.617h-3.95a2.031,2.031,0,0,1-1.462-.652,2,2,0,0,1-.659-1.449v-3.842a2.1,2.1,0,0,0-2.1-2.1h-3.842a2.065,2.065,0,0,0-1.449.617,1.969,1.969,0,0,0-.653,1.485v19.932a2.1,2.1,0,0,1-2.1,2.1h-3.842A2.022,2.022,0,0,1,912.639,379.5Z"/><path class="b" d="M969.026,379.5a2.022,2.022,0,0,1-.616-1.485V341.925a2.065,2.065,0,0,1,.616-1.45,1.971,1.971,0,0,1,1.486-.652h3.842a2.022,2.022,0,0,0,1.485-.616,1.946,1.946,0,0,0,.616-1.414V333.88a2.244,2.244,0,0,1,2.1-2.1h20a2.24,2.24,0,0,1,2.1,2.1v3.913a2.108,2.108,0,0,0,2.03,2.03h3.914a2.24,2.24,0,0,1,2.1,2.1v36.094a1.976,1.976,0,0,1-.65,1.485,2.05,2.05,0,0,1-1.443.616h-11.9a2.048,2.048,0,0,1-1.443-.616,1.973,1.973,0,0,1-.65-1.485V366.132a2.015,2.015,0,0,0-.621-1.485,1.971,1.971,0,0,0-1.426-.617h-3.949a2.092,2.092,0,0,0-1.463.617,1.96,1.96,0,0,0-.658,1.485v11.887a2.1,2.1,0,0,1-2.1,2.1H970.512A2.026,2.026,0,0,1,969.026,379.5Zm21.544-23.519a1.919,1.919,0,0,0,1.426-.652,2.053,2.053,0,0,0,.621-1.449V341.925a2.059,2.059,0,0,0-.621-1.45,1.919,1.919,0,0,0-1.426-.652h-3.949a2.035,2.035,0,0,0-1.463.652,2,2,0,0,0-.658,1.45v11.959a2,2,0,0,0,.658,1.449,2.035,2.035,0,0,0,1.463.652Z"/><path class="b" d="M1025.413,379.5a2.022,2.022,0,0,1-.616-1.485V333.88a2.065,2.065,0,0,1,.616-1.45,1.969,1.969,0,0,1,1.486-.653h11.886a1.972,1.972,0,0,1,1.486.653,2.069,2.069,0,0,1,.616,1.45v36.094a1.971,1.971,0,0,0,.652,1.485,2.062,2.062,0,0,0,1.449.616h11.959a2.069,2.069,0,0,1,1.451.617,1.97,1.97,0,0,1,.651,1.485v3.842a1.97,1.97,0,0,1-.651,1.485,2.067,2.067,0,0,1-1.451.616H1026.9A2.023,2.023,0,0,1,1025.413,379.5Z"/><path class="b" d="M1065.711,379.5a2.022,2.022,0,0,1-.616-1.485V333.88a2.065,2.065,0,0,1,.616-1.45,1.968,1.968,0,0,1,1.485-.653h28.049a2.242,2.242,0,0,1,2.1,2.1v3.913a1.893,1.893,0,0,1-.652,1.414,2.065,2.065,0,0,1-1.45.616h-11.959a2.24,2.24,0,0,0-2.1,2.1v3.914a2.242,2.242,0,0,0,2.1,2.1h11.959a2.069,2.069,0,0,1,1.45.616,1.894,1.894,0,0,1,.652,1.413v3.914a2.24,2.24,0,0,1-2.1,2.1h-11.959a2.067,2.067,0,0,0-1.449.617,1.968,1.968,0,0,0-.652,1.485v11.887a1.968,1.968,0,0,0,.652,1.485,2.061,2.061,0,0,0,1.449.616h11.959a2.066,2.066,0,0,1,1.45.617,1.968,1.968,0,0,1,.652,1.485v3.842a1.968,1.968,0,0,1-.652,1.485,2.065,2.065,0,0,1-1.45.616H1067.2A2.022,2.022,0,0,1,1065.711,379.5Z"/><path class="b" d="M1114.053,379.5a2.022,2.022,0,0,1-.616-1.485v-3.842a2.1,2.1,0,0,1,2.1-2.1h11.887a2.02,2.02,0,0,0,1.485-.618,2.043,2.043,0,0,0,.616-1.493v-3.859a2.108,2.108,0,0,0-2.1-2.111h-3.842a2.243,2.243,0,0,1-2.1-2.111v-3.859a2.11,2.11,0,0,0-2.1-2.111l-3.842.072a1.968,1.968,0,0,1-1.485-.652,2.06,2.06,0,0,1-.616-1.449V341.925a2.065,2.065,0,0,1,.616-1.45,1.968,1.968,0,0,1,1.485-.652h3.842a2.022,2.022,0,0,0,1.485-.616,1.947,1.947,0,0,0,.617-1.414V333.88a2.242,2.242,0,0,1,2.1-2.1h19.941a2.236,2.236,0,0,1,2.092,2.1v3.913a1.9,1.9,0,0,1-.649,1.414,2.05,2.05,0,0,1-1.443.616h-11.905a2.229,2.229,0,0,0-2.093,2.082v3.88a2.228,2.228,0,0,0,2.093,2.083h3.9a2.1,2.1,0,0,1,2.02,2.03v3.913a2.237,2.237,0,0,0,2.093,2.1h3.9a2.049,2.049,0,0,1,1.443.619,1.985,1.985,0,0,1,.649,1.492v11.94a1.987,1.987,0,0,1-.649,1.493,2.048,2.048,0,0,1-1.443.618h-3.9a2.047,2.047,0,0,0-1.443.617,1.973,1.973,0,0,0-.65,1.485v3.842a2.031,2.031,0,0,1-.613,1.485,1.93,1.93,0,0,1-1.407.616h-19.977A2.022,2.022,0,0,1,1114.053,379.5Z"/><path class="c" d="M1208.018,380.62h-11.959a2.554,2.554,0,0,1-1.793-.753,2.463,2.463,0,0,1-.809-1.848V358.087a1.6,1.6,0,0,0-1.6-1.6h-3.842a2.446,2.446,0,0,1-1.851-.817,2.581,2.581,0,0,1-.751-1.8v-3.949a1.481,1.481,0,0,0-.471-1.074,1.527,1.527,0,0,0-1.13-.473h-3.842a2.463,2.463,0,0,1-1.849-.805,2.544,2.544,0,0,1-.753-1.788v-11.9a2.542,2.542,0,0,1,.754-1.787,2.467,2.467,0,0,1,1.848-.806h19.984a2.493,2.493,0,0,1,1.862.807,2.556,2.556,0,0,1,.759,1.8v20a1.508,1.508,0,0,0,.51,1.094,1.546,1.546,0,0,0,1.111.507h3.95a1.427,1.427,0,0,0,1.063-.5,1.558,1.558,0,0,0,.484-1.1v-20a2.732,2.732,0,0,1,2.593-2.6h11.9a2.733,2.733,0,0,1,2.592,2.593v11.9a2.478,2.478,0,0,1-.8,1.8,2.517,2.517,0,0,1-1.807.794h-3.932a1.458,1.458,0,0,0-1.065.474,1.475,1.475,0,0,0-.473,1.073v3.949a2.753,2.753,0,0,1-2.611,2.621h-3.932a1.591,1.591,0,0,0-1.115.482,1.473,1.473,0,0,0-.5,1.12v19.932a2.518,2.518,0,0,1-.763,1.839A2.438,2.438,0,0,1,1208.018,380.62Zm-28.049-48.343a1.481,1.481,0,0,0-1.122.495,1.553,1.553,0,0,0-.48,1.1v11.9a1.555,1.555,0,0,0,.479,1.1,1.478,1.478,0,0,0,1.123.494h3.842a2.506,2.506,0,0,1,1.839.769,2.465,2.465,0,0,1,.762,1.778v3.949a1.592,1.592,0,0,0,.481,1.121,1.466,1.466,0,0,0,1.121.5h3.842a2.605,2.605,0,0,1,2.6,2.6v19.932a1.479,1.479,0,0,0,.495,1.122h0a1.568,1.568,0,0,0,1.106.479h11.959a1.448,1.448,0,0,0,1.059-.47,1.525,1.525,0,0,0,.47-1.131V358.087a2.462,2.462,0,0,1,.811-1.85,2.58,2.58,0,0,1,1.8-.752h3.932a1.523,1.523,0,0,0,1.1-.51,1.542,1.542,0,0,0,.51-1.111v-3.949a2.621,2.621,0,0,1,2.538-2.547h3.932a1.536,1.536,0,0,0,1.1-.505,1.5,1.5,0,0,0,.507-1.088v-11.9a1.741,1.741,0,0,0-1.592-1.593h-11.9a1.505,1.505,0,0,0-1.09.505,1.532,1.532,0,0,0-.5,1.1v20a2.548,2.548,0,0,1-.759,1.794,2.41,2.41,0,0,1-1.788.807h-3.95a2.527,2.527,0,0,1-1.814-.8,2.491,2.491,0,0,1-.807-1.8v-20a1.563,1.563,0,0,0-.483-1.105,1.506,1.506,0,0,0-1.138-.5Z"/><path class="a" d="M55.248,386.869H43.289a2.552,2.552,0,0,1-1.792-.753h0a2.459,2.459,0,0,1-.809-1.848V364.336a1.6,1.6,0,0,0-1.6-1.6H35.244a2.445,2.445,0,0,1-1.85-.817,2.58,2.58,0,0,1-.751-1.8v-3.949a1.482,1.482,0,0,0-.472-1.074,1.526,1.526,0,0,0-1.13-.473H27.2a2.463,2.463,0,0,1-1.848-.8,2.543,2.543,0,0,1-.753-1.787V340.119a2.543,2.543,0,0,1,.754-1.787,2.465,2.465,0,0,1,1.847-.806H47.184a2.492,2.492,0,0,1,1.861.807,2.553,2.553,0,0,1,.76,1.8v20a1.508,1.508,0,0,0,.51,1.094,1.544,1.544,0,0,0,1.111.507h3.949a1.428,1.428,0,0,0,1.064-.5,1.559,1.559,0,0,0,.484-1.1v-20a2.732,2.732,0,0,1,2.593-2.6h11.9a2.733,2.733,0,0,1,2.593,2.593v11.906a2.478,2.478,0,0,1-.805,1.8,2.516,2.516,0,0,1-1.807.794H67.47a1.621,1.621,0,0,0-1.538,1.547v3.949a2.755,2.755,0,0,1-2.612,2.621H59.389a1.587,1.587,0,0,0-1.115.482,1.474,1.474,0,0,0-.5,1.12v19.932a2.517,2.517,0,0,1-.762,1.839A2.44,2.44,0,0,1,55.248,386.869ZM27.2,338.526a1.485,1.485,0,0,0-1.122.495,1.552,1.552,0,0,0-.479,1.1v11.906a1.553,1.553,0,0,0,.478,1.1,1.481,1.481,0,0,0,1.123.494h3.842a2.509,2.509,0,0,1,1.84.769,2.465,2.465,0,0,1,.762,1.778v3.949a1.6,1.6,0,0,0,.48,1.121,1.469,1.469,0,0,0,1.121.5h3.842a2.605,2.605,0,0,1,2.6,2.6v19.932a1.48,1.48,0,0,0,.495,1.122h0a1.568,1.568,0,0,0,1.105.479H55.248a1.452,1.452,0,0,0,1.06-.469,1.532,1.532,0,0,0,.469-1.132V364.336a2.463,2.463,0,0,1,.812-1.85,2.579,2.579,0,0,1,1.8-.752H63.32a1.521,1.521,0,0,0,1.1-.51,1.539,1.539,0,0,0,.511-1.111v-3.949a2.619,2.619,0,0,1,2.538-2.547H71.4a1.534,1.534,0,0,0,1.1-.505,1.5,1.5,0,0,0,.508-1.087V340.119a1.74,1.74,0,0,0-1.593-1.593h-11.9a1.507,1.507,0,0,0-1.09.505,1.528,1.528,0,0,0-.5,1.1v20a2.549,2.549,0,0,1-.76,1.794,2.408,2.408,0,0,1-1.788.807H51.426a2.53,2.53,0,0,1-1.815-.8,2.49,2.49,0,0,1-.806-1.8v-20a1.561,1.561,0,0,0-.484-1.105,1.506,1.506,0,0,0-1.137-.5Z"/><path class="a" d="M111.635,386.869H83.586a2.6,2.6,0,0,1-2.6-2.6V340.129a2.554,2.554,0,0,1,.753-1.793,2.461,2.461,0,0,1,1.849-.81h28.049a2.735,2.735,0,0,1,2.6,2.6v3.913a2.376,2.376,0,0,1-.808,1.777,2.554,2.554,0,0,1-1.793.753H99.676a1.744,1.744,0,0,0-1.6,1.6v3.914a1.747,1.747,0,0,0,1.6,1.6h11.959a2.558,2.558,0,0,1,1.793.752,2.383,2.383,0,0,1,.808,1.777v3.914a2.733,2.733,0,0,1-2.6,2.6H99.676a1.579,1.579,0,0,0-1.107.48,1.48,1.48,0,0,0-.5,1.122v11.887a1.48,1.48,0,0,0,.5,1.122,1.574,1.574,0,0,0,1.107.479h11.959a2.563,2.563,0,0,1,1.793.752,2.463,2.463,0,0,1,.808,1.85v3.842a2.455,2.455,0,0,1-.808,1.848A2.554,2.554,0,0,1,111.635,386.869ZM83.586,338.526a1.479,1.479,0,0,0-1.122.5,1.575,1.575,0,0,0-.48,1.107v44.139a1.53,1.53,0,0,0,.47,1.132h0a1.529,1.529,0,0,0,1.132.469h28.049a1.574,1.574,0,0,0,1.107-.479,1.481,1.481,0,0,0,.494-1.122v-3.842a1.477,1.477,0,0,0-.5-1.122,1.573,1.573,0,0,0-1.106-.48H99.676a2.554,2.554,0,0,1-1.793-.753,2.461,2.461,0,0,1-.809-1.848V364.336a2.467,2.467,0,0,1,.809-1.849,2.558,2.558,0,0,1,1.793-.753h11.959a1.74,1.74,0,0,0,1.6-1.6v-3.914a1.4,1.4,0,0,0-.5-1.05,1.572,1.572,0,0,0-1.106-.479H99.676a2.739,2.739,0,0,1-2.6-2.6v-3.914a2.737,2.737,0,0,1,2.6-2.6h11.959a1.574,1.574,0,0,0,1.107-.479,1.407,1.407,0,0,0,.494-1.051v-3.913a1.742,1.742,0,0,0-1.6-1.6Z"/><path class="a" d="M151.9,386.869H131.928a2.6,2.6,0,0,1-2.6-2.6v-3.842a2.605,2.605,0,0,1,2.6-2.6h11.887a1.526,1.526,0,0,0,1.131-.471,1.546,1.546,0,0,0,.47-1.14v-3.859a1.61,1.61,0,0,0-1.6-1.611h-3.842a2.494,2.494,0,0,1-1.8-.8,2.522,2.522,0,0,1-.8-1.81v-3.859a1.61,1.61,0,0,0-1.6-1.611l-3.832.072a2.466,2.466,0,0,1-1.859-.809,2.55,2.55,0,0,1-.753-1.792V348.174a2.554,2.554,0,0,1,.753-1.793,2.457,2.457,0,0,1,1.849-.809h3.842a1.528,1.528,0,0,0,1.131-.469,1.45,1.45,0,0,0,.47-1.061v-3.913a2.739,2.739,0,0,1,2.6-2.6h19.94a2.486,2.486,0,0,1,1.8.8,2.513,2.513,0,0,1,.795,1.8v3.913a2.385,2.385,0,0,1-.806,1.777,2.541,2.541,0,0,1-1.787.753h-11.9a1.513,1.513,0,0,0-1.091.5,1.493,1.493,0,0,0-.5,1.081v3.88a1.492,1.492,0,0,0,.5,1.081,1.511,1.511,0,0,0,1.091.5h3.9a2.6,2.6,0,0,1,2.521,2.53v3.913a1.524,1.524,0,0,0,.5,1.1,1.5,1.5,0,0,0,1.089.5h3.895a2.541,2.541,0,0,1,1.788.757,2.479,2.479,0,0,1,.8,1.854v11.94a2.476,2.476,0,0,1-.8,1.855,2.54,2.54,0,0,1-1.788.756h-3.895a1.557,1.557,0,0,0-1.1.48,1.48,1.48,0,0,0-.493,1.122v3.842a2.52,2.52,0,0,1-.759,1.838A2.424,2.424,0,0,1,151.9,386.869Zm-19.976-8.045a1.6,1.6,0,0,0-1.6,1.6v3.842a1.53,1.53,0,0,0,.47,1.132h0a1.527,1.527,0,0,0,1.132.469H151.9a1.434,1.434,0,0,0,1.053-.469,1.532,1.532,0,0,0,.468-1.132v-3.842a2.464,2.464,0,0,1,.8-1.848,2.546,2.546,0,0,1,1.788-.754h3.895a1.552,1.552,0,0,0,1.1-.48,1.5,1.5,0,0,0,.494-1.131v-11.94a1.491,1.491,0,0,0-.494-1.129,1.549,1.549,0,0,0-1.1-.482h-3.895a2.734,2.734,0,0,1-2.593-2.6v-3.913a1.6,1.6,0,0,0-1.521-1.53h-3.9a2.726,2.726,0,0,1-2.593-2.583v-3.88a2.724,2.724,0,0,1,2.593-2.582h11.9a1.553,1.553,0,0,0,1.1-.478,1.407,1.407,0,0,0,.494-1.052v-3.913a1.527,1.527,0,0,0-.5-1.1,1.507,1.507,0,0,0-1.089-.505h-19.94a1.746,1.746,0,0,0-1.6,1.6v3.913a2.437,2.437,0,0,1-.763,1.768,2.515,2.515,0,0,1-1.838.762h-3.842a1.475,1.475,0,0,0-1.122.495,1.571,1.571,0,0,0-.48,1.107v11.959a1.563,1.563,0,0,0,.48,1.105,1.474,1.474,0,0,0,1.122.5l3.832-.072a2.61,2.61,0,0,1,2.611,2.611v3.859a1.534,1.534,0,0,0,.507,1.1,1.512,1.512,0,0,0,1.1.507h3.842a2.61,2.61,0,0,1,2.6,2.611v3.859a2.607,2.607,0,0,1-2.6,2.611Z"/><path class="c" d="M55.248,380.619H43.289a2.552,2.552,0,0,1-1.792-.753h0a2.459,2.459,0,0,1-.809-1.848V358.086a1.6,1.6,0,0,0-1.6-1.6H35.244a2.445,2.445,0,0,1-1.85-.817,2.58,2.58,0,0,1-.751-1.8v-3.949a1.482,1.482,0,0,0-.472-1.074,1.526,1.526,0,0,0-1.13-.473H27.2a2.463,2.463,0,0,1-1.848-.8,2.543,2.543,0,0,1-.753-1.787V333.869a2.543,2.543,0,0,1,.754-1.787,2.465,2.465,0,0,1,1.847-.806H47.184a2.492,2.492,0,0,1,1.861.807,2.553,2.553,0,0,1,.76,1.8v20a1.508,1.508,0,0,0,.51,1.094,1.544,1.544,0,0,0,1.111.507h3.949a1.428,1.428,0,0,0,1.064-.5,1.559,1.559,0,0,0,.484-1.1v-20a2.732,2.732,0,0,1,2.593-2.6h11.9a2.733,2.733,0,0,1,2.593,2.593v11.906a2.478,2.478,0,0,1-.805,1.8,2.516,2.516,0,0,1-1.807.794H67.47a1.621,1.621,0,0,0-1.538,1.547v3.949a2.755,2.755,0,0,1-2.612,2.621H59.389a1.587,1.587,0,0,0-1.115.482,1.474,1.474,0,0,0-.5,1.12v19.932a2.517,2.517,0,0,1-.762,1.839A2.44,2.44,0,0,1,55.248,380.619ZM27.2,332.276a1.485,1.485,0,0,0-1.122.495,1.552,1.552,0,0,0-.479,1.1v11.906a1.553,1.553,0,0,0,.478,1.1,1.481,1.481,0,0,0,1.123.494h3.842a2.509,2.509,0,0,1,1.84.769,2.465,2.465,0,0,1,.762,1.778v3.949a1.6,1.6,0,0,0,.48,1.121,1.469,1.469,0,0,0,1.121.5h3.842a2.605,2.605,0,0,1,2.6,2.6v19.932a1.48,1.48,0,0,0,.495,1.122h0a1.568,1.568,0,0,0,1.105.479H55.248a1.452,1.452,0,0,0,1.06-.469,1.532,1.532,0,0,0,.469-1.132V358.086a2.463,2.463,0,0,1,.812-1.85,2.579,2.579,0,0,1,1.8-.752H63.32a1.521,1.521,0,0,0,1.1-.51,1.539,1.539,0,0,0,.511-1.111v-3.949a2.619,2.619,0,0,1,2.538-2.547H71.4a1.534,1.534,0,0,0,1.1-.505,1.5,1.5,0,0,0,.508-1.087V333.869a1.74,1.74,0,0,0-1.593-1.593h-11.9a1.507,1.507,0,0,0-1.09.505,1.528,1.528,0,0,0-.5,1.1v20a2.549,2.549,0,0,1-.76,1.794,2.408,2.408,0,0,1-1.788.807H51.426a2.53,2.53,0,0,1-1.815-.8,2.49,2.49,0,0,1-.806-1.8v-20a1.561,1.561,0,0,0-.484-1.105,1.506,1.506,0,0,0-1.137-.5Z"/><path class="c" d="M111.635,380.619H83.586a2.6,2.6,0,0,1-2.6-2.6V333.879a2.554,2.554,0,0,1,.753-1.793,2.461,2.461,0,0,1,1.849-.81h28.049a2.735,2.735,0,0,1,2.6,2.6v3.913a2.376,2.376,0,0,1-.808,1.777,2.554,2.554,0,0,1-1.793.753H99.676a1.744,1.744,0,0,0-1.6,1.6v3.914a1.747,1.747,0,0,0,1.6,1.6h11.959a2.558,2.558,0,0,1,1.793.752,2.383,2.383,0,0,1,.808,1.777v3.914a2.733,2.733,0,0,1-2.6,2.6H99.676a1.579,1.579,0,0,0-1.107.48,1.48,1.48,0,0,0-.5,1.122v11.887a1.48,1.48,0,0,0,.5,1.122,1.574,1.574,0,0,0,1.107.479h11.959a2.563,2.563,0,0,1,1.793.752,2.463,2.463,0,0,1,.808,1.85v3.842a2.455,2.455,0,0,1-.808,1.848A2.554,2.554,0,0,1,111.635,380.619ZM83.586,332.276a1.479,1.479,0,0,0-1.122.5,1.575,1.575,0,0,0-.48,1.107v44.139a1.53,1.53,0,0,0,.47,1.132h0a1.529,1.529,0,0,0,1.132.469h28.049a1.574,1.574,0,0,0,1.107-.479,1.481,1.481,0,0,0,.494-1.122v-3.842a1.477,1.477,0,0,0-.5-1.122,1.573,1.573,0,0,0-1.106-.48H99.676a2.554,2.554,0,0,1-1.793-.753,2.461,2.461,0,0,1-.809-1.848V358.086a2.467,2.467,0,0,1,.809-1.849,2.558,2.558,0,0,1,1.793-.753h11.959a1.74,1.74,0,0,0,1.6-1.6v-3.914a1.4,1.4,0,0,0-.5-1.05,1.572,1.572,0,0,0-1.106-.479H99.676a2.739,2.739,0,0,1-2.6-2.6v-3.914a2.737,2.737,0,0,1,2.6-2.6h11.959a1.574,1.574,0,0,0,1.107-.479,1.407,1.407,0,0,0,.494-1.051v-3.913a1.742,1.742,0,0,0-1.6-1.6Z"/><path class="c" d="M151.9,380.619H131.928a2.6,2.6,0,0,1-2.6-2.6v-3.842a2.605,2.605,0,0,1,2.6-2.6h11.887a1.526,1.526,0,0,0,1.131-.471,1.546,1.546,0,0,0,.47-1.14V366.1a1.61,1.61,0,0,0-1.6-1.611h-3.842a2.494,2.494,0,0,1-1.8-.8,2.522,2.522,0,0,1-.8-1.81v-3.859a1.61,1.61,0,0,0-1.6-1.611l-3.832.072a2.466,2.466,0,0,1-1.859-.809,2.55,2.55,0,0,1-.753-1.792V341.924a2.554,2.554,0,0,1,.753-1.793,2.457,2.457,0,0,1,1.849-.809h3.842a1.528,1.528,0,0,0,1.131-.469,1.45,1.45,0,0,0,.47-1.061v-3.913a2.739,2.739,0,0,1,2.6-2.6h19.94a2.486,2.486,0,0,1,1.8.8,2.513,2.513,0,0,1,.795,1.8v3.913a2.385,2.385,0,0,1-.806,1.777,2.541,2.541,0,0,1-1.787.753h-11.9a1.513,1.513,0,0,0-1.091.5,1.493,1.493,0,0,0-.5,1.081v3.88a1.492,1.492,0,0,0,.5,1.081,1.511,1.511,0,0,0,1.091.5h3.9a2.6,2.6,0,0,1,2.521,2.53v3.913a1.524,1.524,0,0,0,.5,1.1,1.5,1.5,0,0,0,1.089.5h3.895a2.541,2.541,0,0,1,1.788.757,2.479,2.479,0,0,1,.8,1.854v11.94a2.476,2.476,0,0,1-.8,1.855,2.54,2.54,0,0,1-1.788.756h-3.895a1.557,1.557,0,0,0-1.1.48,1.48,1.48,0,0,0-.493,1.122v3.842a2.52,2.52,0,0,1-.759,1.838A2.424,2.424,0,0,1,151.9,380.619Zm-19.976-8.045a1.6,1.6,0,0,0-1.6,1.6v3.842a1.53,1.53,0,0,0,.47,1.132h0a1.527,1.527,0,0,0,1.132.469H151.9a1.434,1.434,0,0,0,1.053-.469,1.532,1.532,0,0,0,.468-1.132v-3.842a2.464,2.464,0,0,1,.8-1.848,2.546,2.546,0,0,1,1.788-.754h3.895a1.552,1.552,0,0,0,1.1-.48,1.5,1.5,0,0,0,.494-1.131v-11.94a1.491,1.491,0,0,0-.494-1.129,1.549,1.549,0,0,0-1.1-.482h-3.895a2.734,2.734,0,0,1-2.593-2.6V349.9a1.6,1.6,0,0,0-1.521-1.53h-3.9a2.726,2.726,0,0,1-2.593-2.583V341.9a2.724,2.724,0,0,1,2.593-2.582h11.9a1.553,1.553,0,0,0,1.1-.478,1.407,1.407,0,0,0,.494-1.052v-3.913a1.527,1.527,0,0,0-.5-1.1,1.507,1.507,0,0,0-1.089-.505h-19.94a1.746,1.746,0,0,0-1.6,1.6v3.913a2.437,2.437,0,0,1-.763,1.768,2.515,2.515,0,0,1-1.838.762h-3.842a1.475,1.475,0,0,0-1.122.495,1.571,1.571,0,0,0-.48,1.107v11.959a1.563,1.563,0,0,0,.48,1.105,1.474,1.474,0,0,0,1.122.5l3.832-.072a2.61,2.61,0,0,1,2.611,2.611v3.859a1.534,1.534,0,0,0,.507,1.1,1.512,1.512,0,0,0,1.1.507h3.842a2.61,2.61,0,0,1,2.6,2.611v3.859a2.607,2.607,0,0,1-2.6,2.611Z"/><path class="a" d="M64.072,478.7H36.024a2.6,2.6,0,0,1-2.6-2.6V431.955a2.556,2.556,0,0,1,.753-1.793,2.46,2.46,0,0,1,1.849-.809H47.91a2.466,2.466,0,0,1,1.849.808,2.563,2.563,0,0,1,.753,1.794v36.094a1.478,1.478,0,0,0,.495,1.122,1.572,1.572,0,0,0,1.106.479H64.072a2.561,2.561,0,0,1,1.793.752,2.464,2.464,0,0,1,.809,1.85v3.842a2.453,2.453,0,0,1-.809,1.848A2.554,2.554,0,0,1,64.072,478.7ZM36.024,430.353a1.48,1.48,0,0,0-1.123.495,1.576,1.576,0,0,0-.479,1.107v44.139a1.526,1.526,0,0,0,.47,1.132h0a1.526,1.526,0,0,0,1.132.469H64.072a1.576,1.576,0,0,0,1.108-.479,1.481,1.481,0,0,0,.494-1.122v-3.842a1.478,1.478,0,0,0-.5-1.122,1.575,1.575,0,0,0-1.107-.48H52.113a2.555,2.555,0,0,1-1.793-.752,2.462,2.462,0,0,1-.808-1.849V431.955a1.571,1.571,0,0,0-.481-1.107,1.475,1.475,0,0,0-1.121-.495Z"/><path class="a" d="M104.37,478.7H76.321a2.6,2.6,0,0,1-2.6-2.6V431.955a2.556,2.556,0,0,1,.753-1.793,2.459,2.459,0,0,1,1.848-.809H104.37a2.735,2.735,0,0,1,2.6,2.6v3.913a2.381,2.381,0,0,1-.809,1.778,2.554,2.554,0,0,1-1.793.753H92.411a1.742,1.742,0,0,0-1.6,1.6v3.914a1.747,1.747,0,0,0,1.6,1.6H104.37a2.563,2.563,0,0,1,1.793.752,2.384,2.384,0,0,1,.809,1.777v3.914a2.737,2.737,0,0,1-2.6,2.6H92.411a1.575,1.575,0,0,0-1.106.479,1.481,1.481,0,0,0-.5,1.122v11.887a1.478,1.478,0,0,0,.5,1.122,1.572,1.572,0,0,0,1.106.479H104.37a2.563,2.563,0,0,1,1.793.752,2.464,2.464,0,0,1,.809,1.85v3.842a2.453,2.453,0,0,1-.809,1.848A2.554,2.554,0,0,1,104.37,478.7ZM76.321,430.353a1.48,1.48,0,0,0-1.122.495,1.576,1.576,0,0,0-.479,1.107v44.139a1.526,1.526,0,0,0,.47,1.132h0a1.525,1.525,0,0,0,1.131.469H104.37a1.576,1.576,0,0,0,1.108-.479,1.481,1.481,0,0,0,.494-1.122v-3.842a1.478,1.478,0,0,0-.5-1.122,1.575,1.575,0,0,0-1.107-.48H92.411a2.555,2.555,0,0,1-1.793-.752,2.462,2.462,0,0,1-.808-1.849V456.162a2.462,2.462,0,0,1,.808-1.848,2.559,2.559,0,0,1,1.793-.753H104.37a1.744,1.744,0,0,0,1.6-1.6v-3.914a1.406,1.406,0,0,0-.5-1.05,1.574,1.574,0,0,0-1.107-.479H92.411a2.737,2.737,0,0,1-2.6-2.6V440a2.733,2.733,0,0,1,2.6-2.6H104.37a1.577,1.577,0,0,0,1.108-.48,1.406,1.406,0,0,0,.494-1.051v-3.913a1.744,1.744,0,0,0-1.6-1.6Z"/><path class="a" d="M144.64,478.7H124.663a2.6,2.6,0,0,1-2.6-2.6v-3.842a2.6,2.6,0,0,1,2.6-2.6H136.55a1.53,1.53,0,0,0,1.132-.471,1.549,1.549,0,0,0,.469-1.14V464.18a1.608,1.608,0,0,0-1.6-1.611h-3.842a2.738,2.738,0,0,1-2.6-2.611V456.1a1.61,1.61,0,0,0-1.6-1.611l-3.832.073a2.463,2.463,0,0,1-1.858-.81,2.55,2.55,0,0,1-.753-1.792V440a2.554,2.554,0,0,1,.753-1.793,2.452,2.452,0,0,1,1.848-.808h3.842a1.533,1.533,0,0,0,1.132-.47,1.454,1.454,0,0,0,.47-1.061v-3.913a2.735,2.735,0,0,1,2.6-2.6h19.941a2.482,2.482,0,0,1,1.8.8,2.509,2.509,0,0,1,.795,1.8v3.913a2.387,2.387,0,0,1-.8,1.778,2.543,2.543,0,0,1-1.787.753h-11.9a1.515,1.515,0,0,0-1.091.5,1.494,1.494,0,0,0-.5,1.081v3.879a1.5,1.5,0,0,0,.5,1.082,1.515,1.515,0,0,0,1.091.5h3.9a2.6,2.6,0,0,1,2.52,2.53v3.913a1.528,1.528,0,0,0,.5,1.1,1.505,1.505,0,0,0,1.089.5h3.9a2.542,2.542,0,0,1,1.788.757,2.478,2.478,0,0,1,.8,1.854v11.94a2.479,2.479,0,0,1-.8,1.856,2.541,2.541,0,0,1-1.788.755h-3.9a1.559,1.559,0,0,0-1.1.48,1.481,1.481,0,0,0-.493,1.122v3.842a2.52,2.52,0,0,1-.759,1.838A2.417,2.417,0,0,1,144.64,478.7Zm-19.977-8.045a1.6,1.6,0,0,0-1.6,1.6v3.842a1.529,1.529,0,0,0,.469,1.132h0a1.529,1.529,0,0,0,1.132.469H144.64a1.436,1.436,0,0,0,1.052-.468,1.535,1.535,0,0,0,.468-1.133v-3.842a2.468,2.468,0,0,1,.8-1.848,2.547,2.547,0,0,1,1.788-.754h3.9a1.551,1.551,0,0,0,1.1-.48,1.493,1.493,0,0,0,.494-1.131V456.1a1.491,1.491,0,0,0-.494-1.129,1.553,1.553,0,0,0-1.1-.482h-3.9a2.485,2.485,0,0,1-1.8-.8,2.513,2.513,0,0,1-.795-1.8v-3.913a1.459,1.459,0,0,0-.468-1.062,1.443,1.443,0,0,0-1.052-.468h-3.9a2.724,2.724,0,0,1-2.593-2.583v-3.879a2.724,2.724,0,0,1,2.593-2.582h11.9a1.554,1.554,0,0,0,1.1-.479,1.406,1.406,0,0,0,.494-1.052v-3.913a1.524,1.524,0,0,0-.5-1.1,1.5,1.5,0,0,0-1.088-.505H132.708a1.744,1.744,0,0,0-1.6,1.6v3.913a2.437,2.437,0,0,1-.763,1.768,2.518,2.518,0,0,1-1.839.763h-3.842a1.481,1.481,0,0,0-1.122.494,1.574,1.574,0,0,0-.479,1.107v11.959a1.57,1.57,0,0,0,.479,1.106,1.477,1.477,0,0,0,1.122.5l3.832-.073a2.61,2.61,0,0,1,2.612,2.611v3.859a1.539,1.539,0,0,0,.506,1.1,1.516,1.516,0,0,0,1.095.506h3.842a2.608,2.608,0,0,1,2.6,2.611v3.859a2.605,2.605,0,0,1-2.6,2.611Z"/><path class="a" d="M203.734,477.579a1.971,1.971,0,0,1-.652-1.485V456.162a2.1,2.1,0,0,0-2.1-2.1h-3.842a1.961,1.961,0,0,1-1.486-.659,2.087,2.087,0,0,1-.616-1.462v-3.95a1.973,1.973,0,0,0-.616-1.425,2.012,2.012,0,0,0-1.485-.622h-3.842a1.976,1.976,0,0,1-1.486-.649,2.05,2.05,0,0,1-.616-1.443V431.945a2.049,2.049,0,0,1,.616-1.442,1.977,1.977,0,0,1,1.486-.65h19.984a2,2,0,0,1,1.5.652,2.06,2.06,0,0,1,.621,1.45v20a1.994,1.994,0,0,0,.659,1.449,2.034,2.034,0,0,0,1.462.653h3.95a1.917,1.917,0,0,0,1.425-.653,2.054,2.054,0,0,0,.622-1.449v-20a2.016,2.016,0,0,1,.649-1.45,2,2,0,0,1,1.444-.652h11.9a2.234,2.234,0,0,1,2.092,2.092v11.906a1.989,1.989,0,0,1-.656,1.443,2.024,2.024,0,0,1-1.455.649h-3.932a1.948,1.948,0,0,0-1.42.622,1.968,1.968,0,0,0-.618,1.425v3.95a2.26,2.26,0,0,1-2.111,2.121h-3.932a2.084,2.084,0,0,0-1.457.616,1.966,1.966,0,0,0-.654,1.485v19.932a2.026,2.026,0,0,1-.616,1.485,1.943,1.943,0,0,1-1.413.616H205.184A2.062,2.062,0,0,1,203.734,477.579Z"/><path class="a" d="M268.13,477.579a2.022,2.022,0,0,1-.616-1.485v-3.842a2.1,2.1,0,0,1,2.1-2.1H281.5a2.108,2.108,0,0,0,2.1-2.111V464.18a2.112,2.112,0,0,0-2.1-2.111H277.66a2,2,0,0,1-1.449-.654,2.022,2.022,0,0,1-.652-1.457V456.1a2.112,2.112,0,0,0-2.1-2.111l-3.842.073a1.969,1.969,0,0,1-1.485-.653,2.06,2.06,0,0,1-.616-1.449V440a2.065,2.065,0,0,1,.616-1.45,1.967,1.967,0,0,1,1.485-.651h3.842a2.023,2.023,0,0,0,1.485-.617,1.943,1.943,0,0,0,.617-1.414v-3.913a2.24,2.24,0,0,1,2.1-2.1H297.6a2,2,0,0,1,1.443.652,2.016,2.016,0,0,1,.649,1.45v3.913a1.9,1.9,0,0,1-.649,1.414,2.051,2.051,0,0,1-1.443.617H285.7a2.224,2.224,0,0,0-2.092,2.082v3.879a2.226,2.226,0,0,0,2.092,2.083h3.9a2.1,2.1,0,0,1,2.02,2.03v3.913a2.016,2.016,0,0,0,.65,1.45,1.992,1.992,0,0,0,1.443.652h3.9a2.046,2.046,0,0,1,1.443.62,1.983,1.983,0,0,1,.649,1.491v11.94a1.987,1.987,0,0,1-.649,1.493,2.048,2.048,0,0,1-1.443.618h-3.9a2.052,2.052,0,0,0-1.443.617,1.973,1.973,0,0,0-.65,1.485v3.842a2.031,2.031,0,0,1-.613,1.485,1.93,1.93,0,0,1-1.407.616H269.615A2.022,2.022,0,0,1,268.13,477.579Z"/><path class="a" d="M324.553,477.579a1.969,1.969,0,0,1-.653-1.485v-3.842a2.1,2.1,0,0,0-2.1-2.1h-3.842a2.1,2.1,0,0,1-2.1-2.1V431.955a2.067,2.067,0,0,1,.616-1.45,1.968,1.968,0,0,1,1.485-.652h11.887a1.968,1.968,0,0,1,1.485.652,2.071,2.071,0,0,1,.616,1.45v36.094a1.957,1.957,0,0,0,.659,1.485,2.088,2.088,0,0,0,1.463.616h3.949a1.973,1.973,0,0,0,1.426-.616,2.015,2.015,0,0,0,.621-1.485V431.955a2.016,2.016,0,0,1,.649-1.45,2,2,0,0,1,1.443-.652h11.906a2,2,0,0,1,1.442.652,2.018,2.018,0,0,1,.65,1.45v36.094a1.968,1.968,0,0,1-.652,1.485,2.065,2.065,0,0,1-1.45.616h-3.913a1.947,1.947,0,0,0-1.414.617,2.022,2.022,0,0,0-.616,1.485v3.842a1.968,1.968,0,0,1-.652,1.485,2.065,2.065,0,0,1-1.45.616H326A2.06,2.06,0,0,1,324.553,477.579Z"/><path class="a" d="M372.858,477.579a2.022,2.022,0,0,1-.616-1.485v-3.842a2.1,2.1,0,0,1,2.1-2.1h11.887a2.02,2.02,0,0,0,1.485-.618,2.042,2.042,0,0,0,.616-1.493V464.18a2.11,2.11,0,0,0-2.1-2.111h-3.842a2,2,0,0,1-1.449-.654,2.023,2.023,0,0,1-.653-1.457V456.1a2.11,2.11,0,0,0-2.1-2.111l-3.842.073a1.972,1.972,0,0,1-1.486-.653,2.06,2.06,0,0,1-.616-1.449V440a2.065,2.065,0,0,1,.616-1.45,1.971,1.971,0,0,1,1.486-.651h3.842a2.023,2.023,0,0,0,1.485-.617,1.946,1.946,0,0,0,.616-1.414v-3.913a2.242,2.242,0,0,1,2.1-2.1h19.94a2,2,0,0,1,1.444.652,2.02,2.02,0,0,1,.649,1.45v3.913a1.9,1.9,0,0,1-.649,1.414,2.053,2.053,0,0,1-1.444.617h-11.9a2.226,2.226,0,0,0-2.093,2.082v3.879a2.228,2.228,0,0,0,2.093,2.083h3.9a2.1,2.1,0,0,1,2.021,2.03v3.913a2.019,2.019,0,0,0,.649,1.45,1.994,1.994,0,0,0,1.444.652h3.9a2.048,2.048,0,0,1,1.444.62,1.987,1.987,0,0,1,.649,1.491v11.94a1.991,1.991,0,0,1-.649,1.493,2.05,2.05,0,0,1-1.444.618h-3.9a2.054,2.054,0,0,0-1.444.617,1.976,1.976,0,0,0-.649,1.485v3.842a2.031,2.031,0,0,1-.613,1.485,1.933,1.933,0,0,1-1.408.616H374.344A2.026,2.026,0,0,1,372.858,477.579Z"/><path class="a" d="M445.335,477.579a2.022,2.022,0,0,1-.616-1.485V431.955a2.067,2.067,0,0,1,.616-1.45,1.968,1.968,0,0,1,1.485-.652h11.887a1.968,1.968,0,0,1,1.485.652,2.068,2.068,0,0,1,.617,1.45v36.094a1.968,1.968,0,0,0,.652,1.485,2.061,2.061,0,0,0,1.449.616h11.959a2.071,2.071,0,0,1,1.45.617,1.968,1.968,0,0,1,.652,1.485v3.842a1.968,1.968,0,0,1-.652,1.485,2.066,2.066,0,0,1-1.45.616H446.82A2.022,2.022,0,0,1,445.335,477.579Z"/><path class="a" d="M485.632,477.579a2.022,2.022,0,0,1-.616-1.485V431.955a2.067,2.067,0,0,1,.616-1.45,1.968,1.968,0,0,1,1.485-.652h28.049a2.24,2.24,0,0,1,2.1,2.1v3.913a1.893,1.893,0,0,1-.652,1.414,2.067,2.067,0,0,1-1.45.617H503.207a2.238,2.238,0,0,0-2.1,2.1v3.914a2.242,2.242,0,0,0,2.1,2.1h11.959a2.07,2.07,0,0,1,1.45.616,1.894,1.894,0,0,1,.652,1.413v3.914a2.242,2.242,0,0,1-2.1,2.1H503.207a2.064,2.064,0,0,0-1.449.616,1.968,1.968,0,0,0-.652,1.485v11.887a1.968,1.968,0,0,0,.652,1.485,2.06,2.06,0,0,0,1.449.616h11.959a2.071,2.071,0,0,1,1.45.617,1.968,1.968,0,0,1,.652,1.485v3.842a1.968,1.968,0,0,1-.652,1.485,2.066,2.066,0,0,1-1.45.616H487.117A2.022,2.022,0,0,1,485.632,477.579Z"/><path class="a" d="M542.055,477.579a1.969,1.969,0,0,1-.653-1.485V456.162a2.1,2.1,0,0,0-2.1-2.1h-3.842a1.957,1.957,0,0,1-1.485-.659,2.087,2.087,0,0,1-.616-1.462v-3.95a1.974,1.974,0,0,0-.617-1.425,2.012,2.012,0,0,0-1.485-.622h-3.842a1.972,1.972,0,0,1-1.485-.649,2.05,2.05,0,0,1-.616-1.443V431.945a2.049,2.049,0,0,1,.616-1.442,1.973,1.973,0,0,1,1.485-.65H547.4a2,2,0,0,1,1.5.652,2.06,2.06,0,0,1,.621,1.45v20a1.993,1.993,0,0,0,.658,1.449,2.036,2.036,0,0,0,1.463.653h3.949a1.919,1.919,0,0,0,1.426-.653,2.054,2.054,0,0,0,.622-1.449v-20a2.019,2.019,0,0,1,.648-1.45,2,2,0,0,1,1.445-.652h11.9a2.236,2.236,0,0,1,2.093,2.092v11.906a1.99,1.99,0,0,1-.657,1.443,2.022,2.022,0,0,1-1.455.649h-3.931a1.945,1.945,0,0,0-1.42.622,1.968,1.968,0,0,0-.618,1.425v3.95a2.261,2.261,0,0,1-2.112,2.121H559.6a2.08,2.08,0,0,0-1.457.616,1.964,1.964,0,0,0-.655,1.485v19.932a2.026,2.026,0,0,1-.616,1.485,1.943,1.943,0,0,1-1.413.616H543.5A2.06,2.06,0,0,1,542.055,477.579Z"/><path class="a" d="M582.316,477.579a2.019,2.019,0,0,1-.617-1.485V431.955a2.064,2.064,0,0,1,.617-1.45,1.968,1.968,0,0,1,1.485-.652H611.85a2.238,2.238,0,0,1,2.1,2.1v3.913a1.9,1.9,0,0,1-.651,1.414,2.068,2.068,0,0,1-1.45.617H599.891a2.24,2.24,0,0,0-2.1,2.1v3.914a2.244,2.244,0,0,0,2.1,2.1H611.85a2.071,2.071,0,0,1,1.45.616,1.9,1.9,0,0,1,.651,1.413v3.914a2.24,2.24,0,0,1-2.1,2.1H599.891a2.062,2.062,0,0,0-1.449.616,1.969,1.969,0,0,0-.653,1.485v11.887a1.969,1.969,0,0,0,.653,1.485,2.058,2.058,0,0,0,1.449.616H611.85a2.073,2.073,0,0,1,1.45.617,1.97,1.97,0,0,1,.651,1.485v3.842a1.97,1.97,0,0,1-.651,1.485,2.067,2.067,0,0,1-1.45.616H583.8A2.022,2.022,0,0,1,582.316,477.579Z"/><path class="a" d="M630.657,477.579a2.022,2.022,0,0,1-.616-1.485v-3.842a2.1,2.1,0,0,1,2.1-2.1h11.886a2.106,2.106,0,0,0,2.1-2.111V464.18a2.11,2.11,0,0,0-2.1-2.111h-3.841a2,2,0,0,1-1.45-.654,2.026,2.026,0,0,1-.652-1.457V456.1a2.11,2.11,0,0,0-2.1-2.111l-3.841.073a1.971,1.971,0,0,1-1.486-.653,2.06,2.06,0,0,1-.616-1.449V440a2.065,2.065,0,0,1,.616-1.45,1.969,1.969,0,0,1,1.486-.651h3.841a2.024,2.024,0,0,0,1.486-.617,1.946,1.946,0,0,0,.616-1.414v-3.913a2.24,2.24,0,0,1,2.1-2.1h19.94a1.994,1.994,0,0,1,1.443.652,2.017,2.017,0,0,1,.65,1.45v3.913a1.9,1.9,0,0,1-.65,1.414,2.049,2.049,0,0,1-1.443.617h-11.9a2.224,2.224,0,0,0-2.093,2.082v3.879a2.226,2.226,0,0,0,2.093,2.083h3.9a2.1,2.1,0,0,1,2.021,2.03v3.913a2.019,2.019,0,0,0,.649,1.45,1.994,1.994,0,0,0,1.444.652h3.9a2.044,2.044,0,0,1,1.443.62,1.984,1.984,0,0,1,.65,1.491v11.94a1.988,1.988,0,0,1-.65,1.493,2.046,2.046,0,0,1-1.443.618h-3.9a2.054,2.054,0,0,0-1.444.617,1.976,1.976,0,0,0-.649,1.485v3.842a2.028,2.028,0,0,1-.614,1.485,1.929,1.929,0,0,1-1.407.616H632.143A2.025,2.025,0,0,1,630.657,477.579Z"/><path class="c" d="M64.072,472.449H36.024a2.6,2.6,0,0,1-2.6-2.6V425.709a2.554,2.554,0,0,1,.753-1.793,2.46,2.46,0,0,1,1.849-.809H47.91a2.466,2.466,0,0,1,1.849.808,2.563,2.563,0,0,1,.753,1.794V461.8a1.479,1.479,0,0,0,.495,1.122,1.572,1.572,0,0,0,1.106.479H64.072a2.561,2.561,0,0,1,1.793.752,2.464,2.464,0,0,1,.809,1.85v3.842a2.455,2.455,0,0,1-.809,1.848A2.554,2.554,0,0,1,64.072,472.449ZM36.024,424.107a1.48,1.48,0,0,0-1.123.495,1.574,1.574,0,0,0-.479,1.107v44.139a1.526,1.526,0,0,0,.47,1.132h0a1.526,1.526,0,0,0,1.132.469H64.072a1.576,1.576,0,0,0,1.108-.479,1.481,1.481,0,0,0,.494-1.122v-3.842a1.478,1.478,0,0,0-.5-1.122,1.575,1.575,0,0,0-1.107-.48H52.113a2.556,2.556,0,0,1-1.793-.753,2.459,2.459,0,0,1-.808-1.848V425.709a1.57,1.57,0,0,0-.481-1.107,1.475,1.475,0,0,0-1.121-.495Z"/><path class="c" d="M104.37,472.449H76.321a2.6,2.6,0,0,1-2.6-2.6V425.709a2.554,2.554,0,0,1,.753-1.793,2.459,2.459,0,0,1,1.848-.809H104.37a2.735,2.735,0,0,1,2.6,2.6v3.913a2.381,2.381,0,0,1-.809,1.778,2.553,2.553,0,0,1-1.793.752H92.411a1.744,1.744,0,0,0-1.6,1.6v3.914a1.747,1.747,0,0,0,1.6,1.6H104.37a2.563,2.563,0,0,1,1.793.752,2.384,2.384,0,0,1,.809,1.777v3.914a2.737,2.737,0,0,1-2.6,2.6H92.411a1.575,1.575,0,0,0-1.106.479,1.48,1.48,0,0,0-.5,1.122V461.8a1.479,1.479,0,0,0,.5,1.122,1.572,1.572,0,0,0,1.106.479H104.37a2.563,2.563,0,0,1,1.793.752,2.464,2.464,0,0,1,.809,1.85v3.842a2.455,2.455,0,0,1-.809,1.848A2.554,2.554,0,0,1,104.37,472.449ZM76.321,424.107a1.48,1.48,0,0,0-1.122.495,1.574,1.574,0,0,0-.479,1.107v44.139a1.526,1.526,0,0,0,.47,1.132h0a1.525,1.525,0,0,0,1.131.469H104.37a1.576,1.576,0,0,0,1.108-.479,1.481,1.481,0,0,0,.494-1.122v-3.842a1.478,1.478,0,0,0-.5-1.122,1.575,1.575,0,0,0-1.107-.48H92.411a2.556,2.556,0,0,1-1.793-.753,2.459,2.459,0,0,1-.808-1.848V449.916a2.466,2.466,0,0,1,.808-1.849,2.558,2.558,0,0,1,1.793-.752H104.37a1.744,1.744,0,0,0,1.6-1.6V441.8a1.406,1.406,0,0,0-.5-1.05,1.574,1.574,0,0,0-1.107-.479H92.411a2.737,2.737,0,0,1-2.6-2.6v-3.914a2.735,2.735,0,0,1,2.6-2.6H104.37a1.576,1.576,0,0,0,1.108-.479,1.406,1.406,0,0,0,.494-1.051v-3.913a1.742,1.742,0,0,0-1.6-1.6Z"/><path class="c" d="M144.64,472.449H124.663a2.6,2.6,0,0,1-2.6-2.6v-3.842a2.6,2.6,0,0,1,2.6-2.6H136.55a1.53,1.53,0,0,0,1.132-.471,1.549,1.549,0,0,0,.469-1.14v-3.859a1.608,1.608,0,0,0-1.6-1.611h-3.842a2.738,2.738,0,0,1-2.6-2.611v-3.859a1.61,1.61,0,0,0-1.6-1.611l-3.832.073a2.463,2.463,0,0,1-1.858-.81,2.55,2.55,0,0,1-.753-1.792V433.754a2.554,2.554,0,0,1,.753-1.793,2.453,2.453,0,0,1,1.848-.809h3.842a1.532,1.532,0,0,0,1.132-.469,1.454,1.454,0,0,0,.47-1.061v-3.913a2.735,2.735,0,0,1,2.6-2.6h19.941a2.482,2.482,0,0,1,1.8.8,2.509,2.509,0,0,1,.795,1.8v3.913a2.387,2.387,0,0,1-.8,1.778,2.542,2.542,0,0,1-1.787.752h-11.9a1.519,1.519,0,0,0-1.091.5,1.5,1.5,0,0,0-.5,1.081v3.88a1.5,1.5,0,0,0,.5,1.081,1.513,1.513,0,0,0,1.091.5h3.9a2.6,2.6,0,0,1,2.52,2.53v3.913a1.524,1.524,0,0,0,.5,1.1,1.5,1.5,0,0,0,1.089.505h3.9a2.542,2.542,0,0,1,1.788.757,2.478,2.478,0,0,1,.8,1.854v11.94a2.479,2.479,0,0,1-.8,1.856,2.541,2.541,0,0,1-1.788.755h-3.9a1.559,1.559,0,0,0-1.1.48,1.481,1.481,0,0,0-.493,1.122v3.842a2.52,2.52,0,0,1-.759,1.838A2.421,2.421,0,0,1,144.64,472.449ZM124.663,464.4a1.6,1.6,0,0,0-1.6,1.6v3.842a1.529,1.529,0,0,0,.469,1.132h0a1.529,1.529,0,0,0,1.132.469H144.64a1.436,1.436,0,0,0,1.052-.468,1.535,1.535,0,0,0,.468-1.133v-3.842a2.468,2.468,0,0,1,.8-1.848,2.547,2.547,0,0,1,1.788-.754h3.9a1.551,1.551,0,0,0,1.1-.48,1.5,1.5,0,0,0,.494-1.131v-11.94a1.491,1.491,0,0,0-.494-1.129,1.553,1.553,0,0,0-1.1-.482h-3.9a2.482,2.482,0,0,1-1.8-.8,2.509,2.509,0,0,1-.795-1.8v-3.913a1.459,1.459,0,0,0-.468-1.062,1.443,1.443,0,0,0-1.052-.468h-3.9a2.726,2.726,0,0,1-2.593-2.583v-3.88a2.724,2.724,0,0,1,2.593-2.582h11.9a1.553,1.553,0,0,0,1.1-.478,1.406,1.406,0,0,0,.494-1.052v-3.913a1.528,1.528,0,0,0-.5-1.1,1.5,1.5,0,0,0-1.088-.5H132.708a1.742,1.742,0,0,0-1.6,1.6v3.913a2.437,2.437,0,0,1-.763,1.768,2.517,2.517,0,0,1-1.839.762h-3.842a1.482,1.482,0,0,0-1.122.495,1.574,1.574,0,0,0-.479,1.107v11.959a1.566,1.566,0,0,0,.479,1.1,1.478,1.478,0,0,0,1.122.5l3.832-.073a2.61,2.61,0,0,1,2.612,2.611v3.859a1.541,1.541,0,0,0,.506,1.1,1.516,1.516,0,0,0,1.095.506h3.842a2.608,2.608,0,0,1,2.6,2.611v3.859a2.605,2.605,0,0,1-2.6,2.611Z"/><path class="c" d="M203.734,471.333a1.971,1.971,0,0,1-.652-1.485V449.916a2.1,2.1,0,0,0-2.1-2.1h-3.842a1.961,1.961,0,0,1-1.486-.659,2.088,2.088,0,0,1-.616-1.463v-3.949a1.977,1.977,0,0,0-.616-1.426,2.015,2.015,0,0,0-1.485-.621h-3.842a1.976,1.976,0,0,1-1.486-.649,2.05,2.05,0,0,1-.616-1.443V425.7a2.049,2.049,0,0,1,.616-1.442,1.977,1.977,0,0,1,1.486-.65h19.984a2,2,0,0,1,1.5.652,2.059,2.059,0,0,1,.621,1.45v20a1.994,1.994,0,0,0,.659,1.449,2.034,2.034,0,0,0,1.462.653h3.95a1.917,1.917,0,0,0,1.425-.653,2.054,2.054,0,0,0,.622-1.449v-20a2.235,2.235,0,0,1,2.093-2.1h11.9a2.234,2.234,0,0,1,2.092,2.092v11.906a1.989,1.989,0,0,1-.656,1.443,2.024,2.024,0,0,1-1.455.649h-3.932a1.951,1.951,0,0,0-1.42.621,1.971,1.971,0,0,0-.618,1.426v3.949a2.259,2.259,0,0,1-2.111,2.122h-3.932a2.084,2.084,0,0,0-1.457.616,1.966,1.966,0,0,0-.654,1.485v19.932a2.026,2.026,0,0,1-.616,1.485,1.943,1.943,0,0,1-1.413.616H205.184A2.062,2.062,0,0,1,203.734,471.333Z"/><path class="c" d="M268.13,471.333a2.022,2.022,0,0,1-.616-1.485v-3.842a2.1,2.1,0,0,1,2.1-2.1H281.5a2.108,2.108,0,0,0,2.1-2.111v-3.859a2.11,2.11,0,0,0-2.1-2.111H277.66a2,2,0,0,1-1.449-.654,2.022,2.022,0,0,1-.652-1.457v-3.859a2.11,2.11,0,0,0-2.1-2.111l-3.842.073a1.969,1.969,0,0,1-1.485-.653,2.06,2.06,0,0,1-.616-1.449V433.754a2.065,2.065,0,0,1,.616-1.45,1.968,1.968,0,0,1,1.485-.652h3.842a2.022,2.022,0,0,0,1.485-.616,1.943,1.943,0,0,0,.617-1.414v-3.913a2.24,2.24,0,0,1,2.1-2.1H297.6a2.235,2.235,0,0,1,2.092,2.1v3.913a1.9,1.9,0,0,1-.649,1.414,2.05,2.05,0,0,1-1.443.616H285.7a2.226,2.226,0,0,0-2.092,2.082v3.88A2.226,2.226,0,0,0,285.7,439.7h3.9a2.1,2.1,0,0,1,2.02,2.03v3.913a2.016,2.016,0,0,0,.65,1.45,1.992,1.992,0,0,0,1.443.652h3.9a2.049,2.049,0,0,1,1.443.619,1.987,1.987,0,0,1,.649,1.492v11.94a1.987,1.987,0,0,1-.649,1.493,2.048,2.048,0,0,1-1.443.618h-3.9a2.047,2.047,0,0,0-1.443.617,1.973,1.973,0,0,0-.65,1.485v3.842a2.031,2.031,0,0,1-.613,1.485,1.93,1.93,0,0,1-1.407.616H269.615A2.022,2.022,0,0,1,268.13,471.333Z"/><path class="c" d="M324.553,471.333a1.969,1.969,0,0,1-.653-1.485v-3.842a2.1,2.1,0,0,0-2.1-2.1h-3.842a2.1,2.1,0,0,1-2.1-2.1V425.709a2.066,2.066,0,0,1,.616-1.45,1.968,1.968,0,0,1,1.485-.652h11.887a1.968,1.968,0,0,1,1.485.652,2.07,2.07,0,0,1,.616,1.45V461.8a1.957,1.957,0,0,0,.659,1.485,2.088,2.088,0,0,0,1.463.616h3.949a1.973,1.973,0,0,0,1.426-.616,2.015,2.015,0,0,0,.621-1.485V425.709a2.235,2.235,0,0,1,2.092-2.1h11.906a2,2,0,0,1,1.442.652,2.016,2.016,0,0,1,.65,1.45V461.8a1.968,1.968,0,0,1-.652,1.485,2.065,2.065,0,0,1-1.45.616h-3.913a1.943,1.943,0,0,0-1.414.617,2.022,2.022,0,0,0-.616,1.485v3.842a1.968,1.968,0,0,1-.652,1.485,2.065,2.065,0,0,1-1.45.616H326A2.06,2.06,0,0,1,324.553,471.333Z"/><path class="c" d="M372.858,471.333a2.022,2.022,0,0,1-.616-1.485v-3.842a2.1,2.1,0,0,1,2.1-2.1h11.887a2.02,2.02,0,0,0,1.485-.618,2.042,2.042,0,0,0,.616-1.493v-3.859a2.042,2.042,0,0,0-.616-1.492,2.021,2.021,0,0,0-1.485-.619h-3.842a2,2,0,0,1-1.449-.654,2.023,2.023,0,0,1-.653-1.457v-3.859a2.042,2.042,0,0,0-.616-1.492,2.021,2.021,0,0,0-1.485-.619l-3.842.073a1.972,1.972,0,0,1-1.486-.653,2.06,2.06,0,0,1-.616-1.449V433.754a2.065,2.065,0,0,1,.616-1.45,1.971,1.971,0,0,1,1.486-.652h3.842a2.022,2.022,0,0,0,1.485-.616,1.946,1.946,0,0,0,.616-1.414v-3.913a2.242,2.242,0,0,1,2.1-2.1h19.94a2,2,0,0,1,1.444.652,2.019,2.019,0,0,1,.649,1.45v3.913a1.9,1.9,0,0,1-.649,1.414,2.052,2.052,0,0,1-1.444.616h-11.9a2.228,2.228,0,0,0-2.093,2.082v3.88a2.228,2.228,0,0,0,2.093,2.083h3.9a2.1,2.1,0,0,1,2.021,2.03v3.913a2.019,2.019,0,0,0,.649,1.45,1.994,1.994,0,0,0,1.444.652h3.9a2.051,2.051,0,0,1,1.444.619,1.99,1.99,0,0,1,.649,1.492v11.94a1.991,1.991,0,0,1-.649,1.493,2.05,2.05,0,0,1-1.444.618h-3.9a2.05,2.05,0,0,0-1.444.617,1.976,1.976,0,0,0-.649,1.485v3.842a2.031,2.031,0,0,1-.613,1.485,1.933,1.933,0,0,1-1.408.616H374.344A2.026,2.026,0,0,1,372.858,471.333Z"/><path class="c" d="M445.335,471.333a2.022,2.022,0,0,1-.616-1.485V425.709a2.066,2.066,0,0,1,.616-1.45,1.968,1.968,0,0,1,1.485-.652h11.887a1.968,1.968,0,0,1,1.485.652,2.067,2.067,0,0,1,.617,1.45V461.8a1.968,1.968,0,0,0,.652,1.485,2.061,2.061,0,0,0,1.449.616h11.959a2.067,2.067,0,0,1,1.45.617,1.968,1.968,0,0,1,.652,1.485v3.842a1.968,1.968,0,0,1-.652,1.485,2.066,2.066,0,0,1-1.45.616H446.82A2.022,2.022,0,0,1,445.335,471.333Z"/><path class="c" d="M485.632,471.333a2.022,2.022,0,0,1-.616-1.485V425.709a2.066,2.066,0,0,1,.616-1.45,1.968,1.968,0,0,1,1.485-.652h28.049a2.24,2.24,0,0,1,2.1,2.1v3.913a1.893,1.893,0,0,1-.652,1.414,2.066,2.066,0,0,1-1.45.616H503.207a2.24,2.24,0,0,0-2.1,2.1v3.914a2.242,2.242,0,0,0,2.1,2.1h11.959a2.07,2.07,0,0,1,1.45.616,1.894,1.894,0,0,1,.652,1.413v3.914a2.242,2.242,0,0,1-2.1,2.1H503.207a2.064,2.064,0,0,0-1.449.616,1.968,1.968,0,0,0-.652,1.485V461.8a1.968,1.968,0,0,0,.652,1.485,2.06,2.06,0,0,0,1.449.616h11.959a2.067,2.067,0,0,1,1.45.617,1.968,1.968,0,0,1,.652,1.485v3.842a1.968,1.968,0,0,1-.652,1.485,2.066,2.066,0,0,1-1.45.616H487.117A2.022,2.022,0,0,1,485.632,471.333Z"/><path class="c" d="M542.055,471.333a1.969,1.969,0,0,1-.653-1.485V449.916a2.1,2.1,0,0,0-2.1-2.1h-3.842a1.957,1.957,0,0,1-1.485-.659,2.088,2.088,0,0,1-.616-1.463v-3.949a1.978,1.978,0,0,0-.617-1.426,2.015,2.015,0,0,0-1.485-.621h-3.842a1.972,1.972,0,0,1-1.485-.649,2.05,2.05,0,0,1-.616-1.443V425.7a2.049,2.049,0,0,1,.616-1.442,1.973,1.973,0,0,1,1.485-.65H547.4a2,2,0,0,1,1.5.652,2.059,2.059,0,0,1,.621,1.45v20a1.993,1.993,0,0,0,.658,1.449,2.036,2.036,0,0,0,1.463.653h3.949a1.919,1.919,0,0,0,1.426-.653,2.054,2.054,0,0,0,.622-1.449v-20a2.017,2.017,0,0,1,.648-1.45,2,2,0,0,1,1.445-.652h11.9a2.236,2.236,0,0,1,2.093,2.092v11.906a1.99,1.99,0,0,1-.657,1.443,2.022,2.022,0,0,1-1.455.649h-3.931a1.947,1.947,0,0,0-1.42.621,1.972,1.972,0,0,0-.618,1.426v3.949a2.261,2.261,0,0,1-2.112,2.122H559.6a2.08,2.08,0,0,0-1.457.616,1.964,1.964,0,0,0-.655,1.485v19.932a2.026,2.026,0,0,1-.616,1.485,1.943,1.943,0,0,1-1.413.616H543.5A2.06,2.06,0,0,1,542.055,471.333Z"/><path class="c" d="M582.316,471.333a2.019,2.019,0,0,1-.617-1.485V425.709a2.062,2.062,0,0,1,.617-1.45,1.968,1.968,0,0,1,1.485-.652H611.85a2.238,2.238,0,0,1,2.1,2.1v3.913a1.9,1.9,0,0,1-.651,1.414,2.067,2.067,0,0,1-1.45.616H599.891a2.242,2.242,0,0,0-2.1,2.1v3.914a2.244,2.244,0,0,0,2.1,2.1H611.85a2.072,2.072,0,0,1,1.45.616,1.9,1.9,0,0,1,.651,1.413v3.914a2.24,2.24,0,0,1-2.1,2.1H599.891a2.062,2.062,0,0,0-1.449.616,1.969,1.969,0,0,0-.653,1.485V461.8a1.969,1.969,0,0,0,.653,1.485,2.058,2.058,0,0,0,1.449.616H611.85a2.068,2.068,0,0,1,1.45.617,1.97,1.97,0,0,1,.651,1.485v3.842a1.97,1.97,0,0,1-.651,1.485,2.067,2.067,0,0,1-1.45.616H583.8A2.022,2.022,0,0,1,582.316,471.333Z"/><path class="c" d="M630.657,471.333a2.022,2.022,0,0,1-.616-1.485v-3.842a2.1,2.1,0,0,1,2.1-2.1h11.886a2.106,2.106,0,0,0,2.1-2.111v-3.859a2.108,2.108,0,0,0-2.1-2.111h-3.841a2,2,0,0,1-1.45-.654,2.026,2.026,0,0,1-.652-1.457v-3.859a2.108,2.108,0,0,0-2.1-2.111l-3.841.073a1.971,1.971,0,0,1-1.486-.653,2.06,2.06,0,0,1-.616-1.449V433.754a2.065,2.065,0,0,1,.616-1.45,1.97,1.97,0,0,1,1.486-.652h3.841a2.023,2.023,0,0,0,1.486-.616,1.946,1.946,0,0,0,.616-1.414v-3.913a2.24,2.24,0,0,1,2.1-2.1h19.94a1.994,1.994,0,0,1,1.443.652,2.016,2.016,0,0,1,.65,1.45v3.913a1.9,1.9,0,0,1-.65,1.414,2.048,2.048,0,0,1-1.443.616h-11.9a2.226,2.226,0,0,0-2.093,2.082v3.88a2.226,2.226,0,0,0,2.093,2.083h3.9a2.1,2.1,0,0,1,2.021,2.03v3.913a2.019,2.019,0,0,0,.649,1.45,1.994,1.994,0,0,0,1.444.652h3.9a2.047,2.047,0,0,1,1.443.619,1.988,1.988,0,0,1,.65,1.492v11.94a1.988,1.988,0,0,1-.65,1.493,2.046,2.046,0,0,1-1.443.618h-3.9a2.05,2.05,0,0,0-1.444.617,1.976,1.976,0,0,0-.649,1.485v3.842a2.028,2.028,0,0,1-.614,1.485,1.929,1.929,0,0,1-1.407.616H632.143A2.025,2.025,0,0,1,630.657,471.333Z"/><path class="a" d="M904.5,478.7H876.455a2.6,2.6,0,0,1-2.6-2.6V431.956a2.556,2.556,0,0,1,.753-1.793,2.456,2.456,0,0,1,1.848-.809h11.887a2.466,2.466,0,0,1,1.849.808,2.562,2.562,0,0,1,.752,1.794V468.05a1.479,1.479,0,0,0,.5,1.122,1.57,1.57,0,0,0,1.106.479H904.5a2.562,2.562,0,0,1,1.793.752,2.464,2.464,0,0,1,.809,1.85V476.1a2.453,2.453,0,0,1-.809,1.848A2.554,2.554,0,0,1,904.5,478.7Zm-28.049-48.342a1.479,1.479,0,0,0-1.122.495,1.576,1.576,0,0,0-.479,1.107V476.1a1.529,1.529,0,0,0,.469,1.132h0a1.529,1.529,0,0,0,1.132.469H904.5a1.574,1.574,0,0,0,1.107-.479,1.482,1.482,0,0,0,.495-1.122v-3.842a1.479,1.479,0,0,0-.5-1.122,1.573,1.573,0,0,0-1.106-.48H892.545a2.553,2.553,0,0,1-1.793-.752,2.463,2.463,0,0,1-.809-1.849V431.956a1.574,1.574,0,0,0-.48-1.107,1.476,1.476,0,0,0-1.121-.495Z"/><path class="a" d="M944.8,478.7h-20a2.554,2.554,0,0,1-1.793-.753,2.46,2.46,0,0,1-.809-1.848v-3.842a1.6,1.6,0,0,0-1.6-1.6h-3.842a2.6,2.6,0,0,1-2.6-2.6V440a2.554,2.554,0,0,1,.753-1.793,2.456,2.456,0,0,1,1.849-.808h3.842a1.533,1.533,0,0,0,1.132-.47,1.453,1.453,0,0,0,.469-1.061v-3.913a2.737,2.737,0,0,1,2.6-2.6h20a2.733,2.733,0,0,1,2.6,2.6v3.913a1.611,1.611,0,0,0,1.531,1.531h3.913a2.733,2.733,0,0,1,2.6,2.6V468.05a2.46,2.46,0,0,1-.809,1.849,2.555,2.555,0,0,1-1.793.752h-3.913a1.454,1.454,0,0,0-1.061.47,1.533,1.533,0,0,0-.47,1.132V476.1a2.452,2.452,0,0,1-.808,1.848A2.554,2.554,0,0,1,944.8,478.7Zm-28.049-40.3a1.479,1.479,0,0,0-1.122.494,1.575,1.575,0,0,0-.48,1.107V468.05a1.6,1.6,0,0,0,1.6,1.6h3.842a2.6,2.6,0,0,1,2.6,2.6V476.1a1.48,1.48,0,0,0,.5,1.122h0a1.566,1.566,0,0,0,1.1.479h20a1.574,1.574,0,0,0,1.107-.479,1.481,1.481,0,0,0,.494-1.122v-3.842a2.518,2.518,0,0,1,.763-1.839,2.437,2.437,0,0,1,1.768-.763h3.913a1.576,1.576,0,0,0,1.107-.479,1.478,1.478,0,0,0,.495-1.122V440a1.742,1.742,0,0,0-1.6-1.6h-3.913a2.609,2.609,0,0,1-2.531-2.531v-3.913a1.74,1.74,0,0,0-1.6-1.6h-20a1.744,1.744,0,0,0-1.6,1.6v3.913a2.436,2.436,0,0,1-.762,1.768,2.518,2.518,0,0,1-1.839.763Zm20.059,32.251h-3.95a2.578,2.578,0,0,1-1.8-.751,2.446,2.446,0,0,1-.817-1.85V440a2.5,2.5,0,0,1,.807-1.806,2.525,2.525,0,0,1,1.814-.8h3.95a2.414,2.414,0,0,1,1.787.8,2.553,2.553,0,0,1,.76,1.8V468.05a2.506,2.506,0,0,1-.77,1.841A2.46,2.46,0,0,1,936.811,470.651Zm-3.95-32.251a1.548,1.548,0,0,0-1.111.506,1.512,1.512,0,0,0-.51,1.1V468.05a1.466,1.466,0,0,0,.5,1.12,1.6,1.6,0,0,0,1.122.481h3.95a1.477,1.477,0,0,0,1.074-.471,1.522,1.522,0,0,0,.473-1.13V440a1.565,1.565,0,0,0-.484-1.105,1.427,1.427,0,0,0-1.063-.5Z"/><path class="a" d="M993.116,478.7H973.14a2.6,2.6,0,0,1-2.6-2.6v-3.842a2.605,2.605,0,0,1,2.6-2.6h11.886a1.527,1.527,0,0,0,1.132-.471,1.546,1.546,0,0,0,.47-1.14v-3.859a1.61,1.61,0,0,0-1.6-1.611h-3.841a2.494,2.494,0,0,1-1.8-.8,2.522,2.522,0,0,1-.8-1.81V456.1a1.61,1.61,0,0,0-1.6-1.611l-3.832.073a2.467,2.467,0,0,1-1.859-.81,2.55,2.55,0,0,1-.753-1.792V440a2.554,2.554,0,0,1,.753-1.793,2.456,2.456,0,0,1,1.849-.808h3.842a1.529,1.529,0,0,0,1.131-.47,1.45,1.45,0,0,0,.47-1.061v-3.913a2.737,2.737,0,0,1,2.6-2.6h19.94a2.484,2.484,0,0,1,1.8.8,2.513,2.513,0,0,1,.8,1.8v3.913a2.388,2.388,0,0,1-.806,1.778,2.541,2.541,0,0,1-1.787.753h-11.9a1.516,1.516,0,0,0-1.091.5,1.494,1.494,0,0,0-.5,1.082v3.879a1.49,1.49,0,0,0,.5,1.081,1.511,1.511,0,0,0,1.091.5h3.9a2.6,2.6,0,0,1,2.521,2.53v3.913a1.524,1.524,0,0,0,.5,1.1,1.5,1.5,0,0,0,1.089.505h3.9a2.541,2.541,0,0,1,1.788.757,2.479,2.479,0,0,1,.8,1.854v11.94a2.48,2.48,0,0,1-.8,1.856,2.539,2.539,0,0,1-1.788.755h-3.9a1.557,1.557,0,0,0-1.1.48,1.481,1.481,0,0,0-.493,1.122V476.1a2.52,2.52,0,0,1-.759,1.838A2.42,2.42,0,0,1,993.116,478.7Zm-19.976-8.045a1.6,1.6,0,0,0-1.6,1.6V476.1a1.53,1.53,0,0,0,.47,1.132h0a1.526,1.526,0,0,0,1.132.469h19.976a1.437,1.437,0,0,0,1.053-.468,1.539,1.539,0,0,0,.468-1.133v-3.842a2.464,2.464,0,0,1,.8-1.848,2.546,2.546,0,0,1,1.788-.754h3.9a1.553,1.553,0,0,0,1.1-.48,1.5,1.5,0,0,0,.494-1.131V456.1a1.491,1.491,0,0,0-.494-1.129,1.553,1.553,0,0,0-1.1-.482h-3.9a2.732,2.732,0,0,1-2.593-2.6v-3.913a1.463,1.463,0,0,0-.468-1.062,1.444,1.444,0,0,0-1.053-.468h-3.9a2.726,2.726,0,0,1-2.593-2.583v-3.879a2.724,2.724,0,0,1,2.593-2.582h11.9a1.556,1.556,0,0,0,1.1-.479,1.406,1.406,0,0,0,.494-1.052v-3.913a1.524,1.524,0,0,0-.5-1.1,1.5,1.5,0,0,0-1.089-.505h-19.94a1.744,1.744,0,0,0-1.6,1.6v3.913a2.437,2.437,0,0,1-.763,1.768,2.516,2.516,0,0,1-1.838.763H973.14a1.477,1.477,0,0,0-1.122.494,1.571,1.571,0,0,0-.48,1.107V451.96a1.567,1.567,0,0,0,.48,1.106,1.474,1.474,0,0,0,1.122.5l3.832-.073a2.61,2.61,0,0,1,2.611,2.611v3.859a1.536,1.536,0,0,0,.507,1.1,1.515,1.515,0,0,0,1.095.506h3.841a2.61,2.61,0,0,1,2.6,2.611v3.859a2.607,2.607,0,0,1-2.6,2.611Z"/><path class="a" d="M1073.665,478.7h-28.049a2.6,2.6,0,0,1-2.6-2.6V431.956a2.556,2.556,0,0,1,.753-1.793,2.459,2.459,0,0,1,1.848-.809h28.049a2.735,2.735,0,0,1,2.6,2.6v3.913a1.609,1.609,0,0,0,1.53,1.531h3.913a2.735,2.735,0,0,1,2.6,2.6V468.05a2.461,2.461,0,0,1-.81,1.849,2.553,2.553,0,0,1-1.793.752H1077.8a1.456,1.456,0,0,0-1.061.47,1.532,1.532,0,0,0-.469,1.132V476.1a2.453,2.453,0,0,1-.809,1.848A2.554,2.554,0,0,1,1073.665,478.7Zm-28.049-48.342a1.48,1.48,0,0,0-1.122.495,1.576,1.576,0,0,0-.479,1.107V476.1a1.529,1.529,0,0,0,.469,1.132h0a1.529,1.529,0,0,0,1.132.469h28.049a1.578,1.578,0,0,0,1.108-.479,1.48,1.48,0,0,0,.494-1.122v-3.842a2.521,2.521,0,0,1,.762-1.839,2.437,2.437,0,0,1,1.768-.763h3.913a1.574,1.574,0,0,0,1.107-.479,1.479,1.479,0,0,0,.5-1.122V440a1.742,1.742,0,0,0-1.6-1.6H1077.8a2.607,2.607,0,0,1-2.53-2.531v-3.913a1.742,1.742,0,0,0-1.6-1.6Zm20.059,40.3h-3.949a2.58,2.58,0,0,1-1.8-.751,2.445,2.445,0,0,1-.816-1.85V440a2.494,2.494,0,0,1,.806-1.806,2.525,2.525,0,0,1,1.815-.8h3.949a2.413,2.413,0,0,1,1.787.8,2.553,2.553,0,0,1,.76,1.8V468.05a2.506,2.506,0,0,1-.77,1.841A2.46,2.46,0,0,1,1065.675,470.651Zm-3.949-32.251a1.549,1.549,0,0,0-1.112.506,1.514,1.514,0,0,0-.509,1.1V468.05a1.466,1.466,0,0,0,.5,1.12,1.6,1.6,0,0,0,1.122.481h3.949a1.477,1.477,0,0,0,1.074-.471,1.522,1.522,0,0,0,.473-1.13V440a1.561,1.561,0,0,0-.484-1.105,1.427,1.427,0,0,0-1.063-.5Z"/><path class="a" d="M1138.107,478.7H1126.2a2.544,2.544,0,0,1-1.788-.754,2.459,2.459,0,0,1-.8-1.847V464.208a1.527,1.527,0,0,0-.473-1.131,1.48,1.48,0,0,0-1.073-.47h-3.95a1.6,1.6,0,0,0-1.121.481,1.465,1.465,0,0,0-.5,1.12V476.1a2.6,2.6,0,0,1-2.6,2.6H1102a2.6,2.6,0,0,1-2.6-2.6V440a2.554,2.554,0,0,1,.753-1.793A2.456,2.456,0,0,1,1102,437.4h3.842a1.533,1.533,0,0,0,1.132-.47,1.453,1.453,0,0,0,.469-1.061v-3.913a2.737,2.737,0,0,1,2.6-2.6h20a2.733,2.733,0,0,1,2.6,2.6v3.913a1.611,1.611,0,0,0,1.531,1.531h3.913a2.735,2.735,0,0,1,2.6,2.6V476.1a2.463,2.463,0,0,1-.806,1.848A2.542,2.542,0,0,1,1138.107,478.7Zm-19.995-17.089h3.95a2.463,2.463,0,0,1,1.777.76,2.509,2.509,0,0,1,.769,1.841V476.1a1.48,1.48,0,0,0,.494,1.122,1.554,1.554,0,0,0,1.1.479h11.906a1.552,1.552,0,0,0,1.1-.478,1.485,1.485,0,0,0,.495-1.123V440a1.742,1.742,0,0,0-1.6-1.6h-3.913a2.609,2.609,0,0,1-2.531-2.531v-3.913a1.74,1.74,0,0,0-1.6-1.6h-20a1.744,1.744,0,0,0-1.6,1.6v3.913a2.436,2.436,0,0,1-.762,1.768,2.518,2.518,0,0,1-1.839.763H1102a1.479,1.479,0,0,0-1.122.494,1.575,1.575,0,0,0-.48,1.107V476.1a1.53,1.53,0,0,0,.47,1.132h0a1.529,1.529,0,0,0,1.132.469h11.887a1.6,1.6,0,0,0,1.6-1.6V464.208a2.449,2.449,0,0,1,.817-1.85A2.583,2.583,0,0,1,1118.112,461.607Zm3.95-7.045h-3.95a2.529,2.529,0,0,1-1.814-.8,2.492,2.492,0,0,1-.807-1.805V440a2.5,2.5,0,0,1,.807-1.806,2.525,2.525,0,0,1,1.814-.8h3.95a2.414,2.414,0,0,1,1.787.8,2.552,2.552,0,0,1,.759,1.8V451.96a2.547,2.547,0,0,1-.758,1.794A2.414,2.414,0,0,1,1122.062,454.562Zm-3.95-16.162a1.548,1.548,0,0,0-1.111.506,1.512,1.512,0,0,0-.51,1.1V451.96a1.506,1.506,0,0,0,.51,1.094,1.543,1.543,0,0,0,1.111.508h3.95a1.431,1.431,0,0,0,1.064-.5,1.563,1.563,0,0,0,.482-1.1V440a1.564,1.564,0,0,0-.483-1.105,1.427,1.427,0,0,0-1.063-.5Z"/><path class="a" d="M1178.4,478.7h-11.959a2.555,2.555,0,0,1-1.793-.753,2.46,2.46,0,0,1-.809-1.848V440a1.573,1.573,0,0,0-.48-1.107,1.479,1.479,0,0,0-1.121-.494h-11.887a2.513,2.513,0,0,1-1.839-.763,2.434,2.434,0,0,1-.763-1.768v-3.913a2.556,2.556,0,0,1,.753-1.793,2.46,2.46,0,0,1,1.849-.809h44.138a2.737,2.737,0,0,1,2.6,2.6v3.913a2.382,2.382,0,0,1-.81,1.778,2.552,2.552,0,0,1-1.793.753h-11.959a1.743,1.743,0,0,0-1.6,1.6V476.1a2.518,2.518,0,0,1-.763,1.839A2.434,2.434,0,0,1,1178.4,478.7Zm-28.049-48.342a1.476,1.476,0,0,0-1.122.495,1.573,1.573,0,0,0-.48,1.107v3.913a1.45,1.45,0,0,0,.47,1.061,1.528,1.528,0,0,0,1.132.47h11.887a2.461,2.461,0,0,1,1.848.807,2.563,2.563,0,0,1,.753,1.794V476.1a1.48,1.48,0,0,0,.495,1.122h0a1.568,1.568,0,0,0,1.106.479H1178.4a1.45,1.45,0,0,0,1.059-.469,1.529,1.529,0,0,0,.47-1.132V440a2.735,2.735,0,0,1,2.6-2.6h11.959a1.578,1.578,0,0,0,1.108-.48,1.405,1.405,0,0,0,.495-1.051v-3.913a1.744,1.744,0,0,0-1.6-1.6Z"/><path class="a" d="M1234.781,478.7h-20a2.556,2.556,0,0,1-1.793-.753,2.459,2.459,0,0,1-.808-1.848v-3.842a1.6,1.6,0,0,0-1.6-1.6h-3.841a2.6,2.6,0,0,1-2.6-2.6V440a2.554,2.554,0,0,1,.753-1.793,2.456,2.456,0,0,1,1.849-.808h3.841a1.53,1.53,0,0,0,1.132-.47,1.451,1.451,0,0,0,.47-1.061v-3.913a2.737,2.737,0,0,1,2.6-2.6h20a2.735,2.735,0,0,1,2.6,2.6v3.913a1.611,1.611,0,0,0,1.53,1.531h3.913a2.735,2.735,0,0,1,2.6,2.6V468.05a2.461,2.461,0,0,1-.81,1.849,2.553,2.553,0,0,1-1.793.752h-3.913a1.452,1.452,0,0,0-1.06.47,1.529,1.529,0,0,0-.47,1.132V476.1a2.453,2.453,0,0,1-.809,1.848A2.554,2.554,0,0,1,1234.781,478.7Zm-28.048-40.3a1.481,1.481,0,0,0-1.123.494,1.574,1.574,0,0,0-.479,1.107V468.05a1.6,1.6,0,0,0,1.6,1.6h3.841a2.605,2.605,0,0,1,2.6,2.6V476.1a1.48,1.48,0,0,0,.495,1.122h0a1.568,1.568,0,0,0,1.1.479h20a1.576,1.576,0,0,0,1.108-.479,1.481,1.481,0,0,0,.494-1.122v-3.842a2.518,2.518,0,0,1,.763-1.839,2.433,2.433,0,0,1,1.767-.763h3.913a1.576,1.576,0,0,0,1.108-.479,1.478,1.478,0,0,0,.495-1.122V440a1.742,1.742,0,0,0-1.6-1.6h-3.913a2.609,2.609,0,0,1-2.53-2.531v-3.913a1.742,1.742,0,0,0-1.6-1.6h-20a1.744,1.744,0,0,0-1.6,1.6v3.913a2.437,2.437,0,0,1-.763,1.768,2.518,2.518,0,0,1-1.839.763Zm20.058,32.251h-3.949a2.58,2.58,0,0,1-1.805-.751,2.445,2.445,0,0,1-.816-1.85V440a2.494,2.494,0,0,1,.806-1.806,2.527,2.527,0,0,1,1.815-.8h3.949a2.413,2.413,0,0,1,1.787.8,2.553,2.553,0,0,1,.76,1.8V468.05a2.506,2.506,0,0,1-.77,1.841A2.458,2.458,0,0,1,1226.791,470.651Zm-3.949-32.251a1.547,1.547,0,0,0-1.111.506,1.512,1.512,0,0,0-.51,1.1V468.05a1.466,1.466,0,0,0,.5,1.12,1.6,1.6,0,0,0,1.122.481h3.949a1.477,1.477,0,0,0,1.074-.471,1.518,1.518,0,0,0,.473-1.13V440a1.563,1.563,0,0,0-.483-1.105,1.429,1.429,0,0,0-1.064-.5Z"/><path class="c" d="M904.5,472.449H876.455a2.6,2.6,0,0,1-2.6-2.6V425.709a2.554,2.554,0,0,1,.753-1.793,2.456,2.456,0,0,1,1.848-.809h11.887a2.466,2.466,0,0,1,1.849.808,2.562,2.562,0,0,1,.752,1.794V461.8a1.48,1.48,0,0,0,.5,1.122,1.57,1.57,0,0,0,1.106.479H904.5a2.563,2.563,0,0,1,1.793.752,2.464,2.464,0,0,1,.809,1.85v3.842a2.455,2.455,0,0,1-.809,1.848A2.554,2.554,0,0,1,904.5,472.449Zm-28.049-48.342a1.48,1.48,0,0,0-1.122.495,1.574,1.574,0,0,0-.479,1.107v44.139a1.529,1.529,0,0,0,.469,1.132h0a1.529,1.529,0,0,0,1.132.469H904.5a1.574,1.574,0,0,0,1.107-.479,1.482,1.482,0,0,0,.495-1.122v-3.842a1.479,1.479,0,0,0-.5-1.122,1.573,1.573,0,0,0-1.106-.48H892.545a2.554,2.554,0,0,1-1.793-.753,2.46,2.46,0,0,1-.809-1.848V425.709a1.573,1.573,0,0,0-.48-1.107,1.476,1.476,0,0,0-1.121-.495Z"/><path class="c" d="M944.8,472.449h-20A2.554,2.554,0,0,1,923,471.7a2.461,2.461,0,0,1-.809-1.848v-3.842a1.6,1.6,0,0,0-1.6-1.6h-3.842a2.6,2.6,0,0,1-2.6-2.6V433.754a2.554,2.554,0,0,1,.753-1.793,2.457,2.457,0,0,1,1.849-.809h3.842a1.532,1.532,0,0,0,1.132-.469,1.453,1.453,0,0,0,.469-1.061v-3.913a2.737,2.737,0,0,1,2.6-2.6h20a2.733,2.733,0,0,1,2.6,2.6v3.913a1.609,1.609,0,0,0,1.531,1.53h3.913a2.735,2.735,0,0,1,2.6,2.6V461.8a2.456,2.456,0,0,1-.809,1.848,2.556,2.556,0,0,1-1.793.753h-3.913a1.454,1.454,0,0,0-1.061.47,1.533,1.533,0,0,0-.47,1.132v3.842a2.454,2.454,0,0,1-.808,1.848A2.554,2.554,0,0,1,944.8,472.449Zm-28.049-40.3a1.48,1.48,0,0,0-1.122.495,1.575,1.575,0,0,0-.48,1.107V461.8a1.6,1.6,0,0,0,1.6,1.6h3.842a2.6,2.6,0,0,1,2.6,2.6v3.842a1.48,1.48,0,0,0,.5,1.122h0a1.566,1.566,0,0,0,1.1.479h20a1.574,1.574,0,0,0,1.107-.479,1.481,1.481,0,0,0,.494-1.122v-3.842a2.518,2.518,0,0,1,.763-1.839,2.438,2.438,0,0,1,1.768-.763h3.913a1.576,1.576,0,0,0,1.107-.479,1.479,1.479,0,0,0,.495-1.122V433.754a1.744,1.744,0,0,0-1.6-1.6h-3.913a2.607,2.607,0,0,1-2.531-2.53v-3.913a1.74,1.74,0,0,0-1.6-1.6h-20a1.744,1.744,0,0,0-1.6,1.6v3.913a2.436,2.436,0,0,1-.762,1.768,2.517,2.517,0,0,1-1.839.762ZM936.811,464.4h-3.95a2.579,2.579,0,0,1-1.8-.752,2.442,2.442,0,0,1-.817-1.849V433.754a2.5,2.5,0,0,1,.807-1.806,2.526,2.526,0,0,1,1.814-.8h3.95a2.416,2.416,0,0,1,1.787.806,2.553,2.553,0,0,1,.76,1.8V461.8a2.506,2.506,0,0,1-.77,1.841A2.46,2.46,0,0,1,936.811,464.4Zm-3.95-32.252a1.546,1.546,0,0,0-1.111.507,1.512,1.512,0,0,0-.51,1.1V461.8a1.468,1.468,0,0,0,.5,1.12,1.6,1.6,0,0,0,1.122.481h3.95a1.477,1.477,0,0,0,1.074-.471,1.522,1.522,0,0,0,.473-1.13V433.754a1.565,1.565,0,0,0-.484-1.105,1.428,1.428,0,0,0-1.063-.5Z"/><path class="c" d="M993.116,472.449H973.14a2.6,2.6,0,0,1-2.6-2.6v-3.842a2.605,2.605,0,0,1,2.6-2.6h11.886a1.527,1.527,0,0,0,1.132-.471,1.546,1.546,0,0,0,.47-1.14v-3.859a1.61,1.61,0,0,0-1.6-1.611h-3.841a2.494,2.494,0,0,1-1.8-.8,2.522,2.522,0,0,1-.8-1.81v-3.859a1.61,1.61,0,0,0-1.6-1.611l-3.832.073a2.467,2.467,0,0,1-1.859-.81,2.55,2.55,0,0,1-.753-1.792V433.754a2.554,2.554,0,0,1,.753-1.793,2.457,2.457,0,0,1,1.849-.809h3.842a1.528,1.528,0,0,0,1.131-.469,1.45,1.45,0,0,0,.47-1.061v-3.913a2.737,2.737,0,0,1,2.6-2.6h19.94a2.484,2.484,0,0,1,1.8.8,2.513,2.513,0,0,1,.8,1.8v3.913a2.388,2.388,0,0,1-.806,1.778,2.54,2.54,0,0,1-1.787.752h-11.9a1.517,1.517,0,0,0-1.091.5,1.493,1.493,0,0,0-.5,1.081v3.88a1.492,1.492,0,0,0,.5,1.081,1.511,1.511,0,0,0,1.091.5h3.9a2.6,2.6,0,0,1,2.521,2.53v3.913a1.524,1.524,0,0,0,.5,1.1,1.5,1.5,0,0,0,1.089.505h3.9a2.541,2.541,0,0,1,1.788.757,2.479,2.479,0,0,1,.8,1.854v11.94a2.48,2.48,0,0,1-.8,1.856,2.539,2.539,0,0,1-1.788.755h-3.9a1.557,1.557,0,0,0-1.1.48,1.481,1.481,0,0,0-.493,1.122v3.842a2.52,2.52,0,0,1-.759,1.838A2.424,2.424,0,0,1,993.116,472.449ZM973.14,464.4a1.6,1.6,0,0,0-1.6,1.6v3.842a1.53,1.53,0,0,0,.47,1.132h0a1.526,1.526,0,0,0,1.132.469h19.976a1.437,1.437,0,0,0,1.053-.468,1.539,1.539,0,0,0,.468-1.133v-3.842a2.464,2.464,0,0,1,.8-1.848,2.546,2.546,0,0,1,1.788-.754h3.9a1.553,1.553,0,0,0,1.1-.48,1.5,1.5,0,0,0,.494-1.131v-11.94a1.491,1.491,0,0,0-.494-1.129,1.553,1.553,0,0,0-1.1-.482h-3.9a2.734,2.734,0,0,1-2.593-2.6v-3.913a1.463,1.463,0,0,0-.468-1.062,1.444,1.444,0,0,0-1.053-.468h-3.9a2.726,2.726,0,0,1-2.593-2.583v-3.88a2.724,2.724,0,0,1,2.593-2.582h11.9a1.555,1.555,0,0,0,1.1-.478,1.406,1.406,0,0,0,.494-1.052v-3.913a1.528,1.528,0,0,0-.5-1.1,1.505,1.505,0,0,0-1.089-.5h-19.94a1.744,1.744,0,0,0-1.6,1.6v3.913a2.438,2.438,0,0,1-.763,1.768,2.515,2.515,0,0,1-1.838.762H973.14a1.478,1.478,0,0,0-1.122.495,1.571,1.571,0,0,0-.48,1.107v11.959a1.563,1.563,0,0,0,.48,1.1,1.475,1.475,0,0,0,1.122.5l3.832-.073a2.61,2.61,0,0,1,2.611,2.611v3.859a1.538,1.538,0,0,0,.507,1.1,1.515,1.515,0,0,0,1.095.506h3.841a2.61,2.61,0,0,1,2.6,2.611v3.859a2.607,2.607,0,0,1-2.6,2.611Z"/><path class="c" d="M1073.665,472.449h-28.049a2.6,2.6,0,0,1-2.6-2.6V425.709a2.554,2.554,0,0,1,.753-1.793,2.459,2.459,0,0,1,1.848-.809h28.049a2.735,2.735,0,0,1,2.6,2.6v3.913a1.607,1.607,0,0,0,1.53,1.53h3.913a2.737,2.737,0,0,1,2.6,2.6V461.8a2.457,2.457,0,0,1-.81,1.848,2.554,2.554,0,0,1-1.793.753H1077.8a1.456,1.456,0,0,0-1.061.47,1.532,1.532,0,0,0-.469,1.132v3.842a2.455,2.455,0,0,1-.809,1.848A2.554,2.554,0,0,1,1073.665,472.449Zm-28.049-48.342a1.48,1.48,0,0,0-1.122.495,1.574,1.574,0,0,0-.479,1.107v44.139a1.529,1.529,0,0,0,.469,1.132h0a1.529,1.529,0,0,0,1.132.469h28.049a1.578,1.578,0,0,0,1.108-.479,1.48,1.48,0,0,0,.494-1.122v-3.842a2.521,2.521,0,0,1,.762-1.839,2.437,2.437,0,0,1,1.768-.763h3.913a1.574,1.574,0,0,0,1.107-.479,1.48,1.48,0,0,0,.5-1.122V433.754a1.744,1.744,0,0,0-1.6-1.6H1077.8a2.605,2.605,0,0,1-2.53-2.53v-3.913a1.742,1.742,0,0,0-1.6-1.6Zm20.059,40.3h-3.949a2.581,2.581,0,0,1-1.8-.752,2.441,2.441,0,0,1-.816-1.849V433.754a2.494,2.494,0,0,1,.806-1.806,2.526,2.526,0,0,1,1.815-.8h3.949a2.414,2.414,0,0,1,1.787.806,2.553,2.553,0,0,1,.76,1.8V461.8a2.506,2.506,0,0,1-.77,1.841A2.46,2.46,0,0,1,1065.675,464.4Zm-3.949-32.252a1.546,1.546,0,0,0-1.112.507,1.514,1.514,0,0,0-.509,1.1V461.8a1.467,1.467,0,0,0,.5,1.12,1.6,1.6,0,0,0,1.122.481h3.949a1.478,1.478,0,0,0,1.074-.471,1.522,1.522,0,0,0,.473-1.13V433.754a1.561,1.561,0,0,0-.484-1.105,1.428,1.428,0,0,0-1.063-.5Z"/><path class="c" d="M1138.107,472.449H1126.2a2.544,2.544,0,0,1-1.788-.754,2.461,2.461,0,0,1-.8-1.847V457.961a1.527,1.527,0,0,0-.473-1.131,1.481,1.481,0,0,0-1.073-.471h-3.95a1.6,1.6,0,0,0-1.121.482,1.465,1.465,0,0,0-.5,1.12v11.887a2.6,2.6,0,0,1-2.6,2.6H1102a2.6,2.6,0,0,1-2.6-2.6V433.754a2.554,2.554,0,0,1,.753-1.793,2.457,2.457,0,0,1,1.849-.809h3.842a1.532,1.532,0,0,0,1.132-.469,1.453,1.453,0,0,0,.469-1.061v-3.913a2.737,2.737,0,0,1,2.6-2.6h20a2.733,2.733,0,0,1,2.6,2.6v3.913a1.609,1.609,0,0,0,1.531,1.53h3.913a2.737,2.737,0,0,1,2.6,2.6v36.094a2.464,2.464,0,0,1-.806,1.848A2.542,2.542,0,0,1,1138.107,472.449Zm-19.995-17.09h3.95a2.464,2.464,0,0,1,1.777.761,2.509,2.509,0,0,1,.769,1.841v11.887a1.48,1.48,0,0,0,.494,1.122,1.554,1.554,0,0,0,1.1.479h11.906a1.552,1.552,0,0,0,1.1-.478,1.485,1.485,0,0,0,.495-1.123V433.754a1.744,1.744,0,0,0-1.6-1.6h-3.913a2.607,2.607,0,0,1-2.531-2.53v-3.913a1.74,1.74,0,0,0-1.6-1.6h-20a1.744,1.744,0,0,0-1.6,1.6v3.913a2.437,2.437,0,0,1-.762,1.768,2.517,2.517,0,0,1-1.839.762H1102a1.48,1.48,0,0,0-1.122.495,1.575,1.575,0,0,0-.48,1.107v36.094a1.53,1.53,0,0,0,.47,1.132h0a1.529,1.529,0,0,0,1.132.469h11.887a1.6,1.6,0,0,0,1.6-1.6V457.961a2.453,2.453,0,0,1,.817-1.851A2.587,2.587,0,0,1,1118.112,455.359Zm3.95-7.044h-3.95a2.529,2.529,0,0,1-1.814-.8,2.491,2.491,0,0,1-.807-1.8V433.754a2.5,2.5,0,0,1,.807-1.806,2.526,2.526,0,0,1,1.814-.8h3.95a2.415,2.415,0,0,1,1.787.806,2.552,2.552,0,0,1,.759,1.8v11.959a2.547,2.547,0,0,1-.758,1.794A2.414,2.414,0,0,1,1122.062,448.315Zm-3.95-16.163a1.546,1.546,0,0,0-1.111.507,1.512,1.512,0,0,0-.51,1.1v11.959a1.508,1.508,0,0,0,.51,1.094,1.543,1.543,0,0,0,1.111.508h3.95a1.434,1.434,0,0,0,1.064-.5,1.563,1.563,0,0,0,.482-1.1V433.754a1.564,1.564,0,0,0-.483-1.105,1.428,1.428,0,0,0-1.063-.5Z"/><path class="c" d="M1178.4,472.449h-11.959a2.55,2.55,0,0,1-1.792-.753h0a2.459,2.459,0,0,1-.81-1.848V433.754a1.573,1.573,0,0,0-.48-1.107,1.48,1.48,0,0,0-1.121-.495h-11.887a2.512,2.512,0,0,1-1.839-.762,2.434,2.434,0,0,1-.763-1.768v-3.913a2.554,2.554,0,0,1,.753-1.793,2.46,2.46,0,0,1,1.849-.809h44.138a2.737,2.737,0,0,1,2.6,2.6v3.913a2.382,2.382,0,0,1-.81,1.778,2.551,2.551,0,0,1-1.793.752h-11.959a1.745,1.745,0,0,0-1.6,1.6v36.094a2.518,2.518,0,0,1-.763,1.839A2.438,2.438,0,0,1,1178.4,472.449Zm-28.049-48.342a1.477,1.477,0,0,0-1.122.495,1.571,1.571,0,0,0-.48,1.107v3.913a1.451,1.451,0,0,0,.47,1.061,1.527,1.527,0,0,0,1.132.469h11.887a2.462,2.462,0,0,1,1.848.808,2.563,2.563,0,0,1,.753,1.794v36.094a1.48,1.48,0,0,0,.495,1.122h0a1.568,1.568,0,0,0,1.106.479H1178.4a1.45,1.45,0,0,0,1.059-.469,1.529,1.529,0,0,0,.47-1.132V433.754a2.737,2.737,0,0,1,2.6-2.6h11.959a1.576,1.576,0,0,0,1.108-.479,1.405,1.405,0,0,0,.495-1.051v-3.913a1.744,1.744,0,0,0-1.6-1.6Z"/><path class="c" d="M1234.781,472.449h-20a2.556,2.556,0,0,1-1.793-.753,2.46,2.46,0,0,1-.808-1.848v-3.842a1.6,1.6,0,0,0-1.6-1.6h-3.841a2.6,2.6,0,0,1-2.6-2.6V433.754a2.554,2.554,0,0,1,.753-1.793,2.457,2.457,0,0,1,1.849-.809h3.841a1.529,1.529,0,0,0,1.132-.469,1.451,1.451,0,0,0,.47-1.061v-3.913a2.737,2.737,0,0,1,2.6-2.6h20a2.735,2.735,0,0,1,2.6,2.6v3.913a1.609,1.609,0,0,0,1.53,1.53h3.913a2.737,2.737,0,0,1,2.6,2.6V461.8a2.457,2.457,0,0,1-.81,1.848,2.554,2.554,0,0,1-1.793.753h-3.913a1.452,1.452,0,0,0-1.06.47,1.529,1.529,0,0,0-.47,1.132v3.842a2.455,2.455,0,0,1-.809,1.848A2.554,2.554,0,0,1,1234.781,472.449Zm-28.048-40.3a1.482,1.482,0,0,0-1.123.495,1.574,1.574,0,0,0-.479,1.107V461.8a1.6,1.6,0,0,0,1.6,1.6h3.841a2.605,2.605,0,0,1,2.6,2.6v3.842a1.48,1.48,0,0,0,.495,1.122h0a1.568,1.568,0,0,0,1.1.479h20a1.576,1.576,0,0,0,1.108-.479,1.481,1.481,0,0,0,.494-1.122v-3.842a2.518,2.518,0,0,1,.763-1.839,2.434,2.434,0,0,1,1.767-.763h3.913a1.576,1.576,0,0,0,1.108-.479,1.479,1.479,0,0,0,.495-1.122V433.754a1.744,1.744,0,0,0-1.6-1.6h-3.913a2.607,2.607,0,0,1-2.53-2.53v-3.913a1.742,1.742,0,0,0-1.6-1.6h-20a1.744,1.744,0,0,0-1.6,1.6v3.913a2.438,2.438,0,0,1-.763,1.768,2.517,2.517,0,0,1-1.839.762Zm20.058,32.252h-3.949a2.581,2.581,0,0,1-1.805-.752,2.441,2.441,0,0,1-.816-1.849V433.754a2.494,2.494,0,0,1,.806-1.806,2.528,2.528,0,0,1,1.815-.8h3.949a2.414,2.414,0,0,1,1.787.806,2.553,2.553,0,0,1,.76,1.8V461.8a2.506,2.506,0,0,1-.77,1.841A2.458,2.458,0,0,1,1226.791,464.4Zm-3.949-32.252a1.544,1.544,0,0,0-1.111.507,1.512,1.512,0,0,0-.51,1.1V461.8a1.468,1.468,0,0,0,.5,1.12,1.6,1.6,0,0,0,1.122.481h3.949a1.477,1.477,0,0,0,1.074-.471,1.518,1.518,0,0,0,.473-1.13V433.754a1.563,1.563,0,0,0-.483-1.105,1.43,1.43,0,0,0-1.064-.5Z"/><rect class="d" width="10.679" height="33.415" rx="1.754" transform="translate(785.288 435.918) rotate(90)"/><rect class="d" width="10.679" height="31.045" rx="1.754" transform="translate(741.194 414.56) rotate(90)"/><rect class="d" width="10.679" height="31.045" rx="1.754" transform="translate(741.194 484.663) rotate(90)"/><rect class="d" width="10.679" height="14.296" rx="1.754" transform="translate(810.263 435.918) rotate(90)"/><rect class="d" width="10.679" height="10.679" rx="1.754" transform="translate(820.943 446.597) rotate(90)"/><rect class="d" width="10.679" height="10.679" rx="1.754" transform="translate(795.967 446.597) rotate(90)"/><rect class="d" width="10.679" height="10.679" rx="1.754" transform="translate(751.873 425.239) rotate(90)"/><rect class="d" width="10.679" height="10.679" rx="1.754" transform="translate(751.873 473.984) rotate(90)"/><rect class="d" width="10.679" height="10.679" rx="1.754" transform="translate(710.149 425.239) rotate(90)"/><rect class="d" width="17.337" height="17.337" rx="1.754" transform="translate(725.671 446.283) rotate(90)"/><rect class="d" width="38.066" height="10.679" rx="1.754" transform="translate(699.47 435.918) rotate(90)"/><rect class="d" width="10.679" height="10.679" rx="1.754" transform="translate(710.149 473.984) rotate(90)"/><rect class="d" width="10.679" height="14.296" rx="1.754" transform="translate(835.239 435.918) rotate(90)"/><rect class="d" width="10.679" height="83.366" rx="1.754" transform="translate(835.239 463.305) rotate(90)"/><rect class="d" width="10.679" height="16.708" rx="1.754" transform="translate(845.918 463.305) rotate(180)"/><rect class="e" width="10.679" height="33.415" rx="1.754" transform="translate(785.288 431.918) rotate(90)"/><rect class="e" width="10.679" height="31.045" rx="1.754" transform="translate(741.194 410.56) rotate(90)"/><rect class="e" width="10.679" height="31.045" rx="1.754" transform="translate(741.194 480.663) rotate(90)"/><rect class="e" width="10.679" height="14.296" rx="1.754" transform="translate(810.263 431.918) rotate(90)"/><rect class="e" width="10.679" height="10.679" rx="1.754" transform="translate(820.943 442.597) rotate(90)"/><rect class="e" width="10.679" height="10.679" rx="1.754" transform="translate(795.967 442.597) rotate(90)"/><rect class="e" width="10.679" height="10.679" rx="1.754" transform="translate(751.873 421.239) rotate(90)"/><rect class="e" width="10.679" height="10.679" rx="1.754" transform="translate(751.873 469.984) rotate(90)"/><rect class="e" width="10.679" height="10.679" rx="1.754" transform="translate(710.149 421.239) rotate(90)"/><rect class="e" width="17.337" height="17.337" rx="1.754" transform="translate(725.671 442.283) rotate(90)"/><rect class="e" width="38.066" height="10.679" rx="1.754" transform="translate(699.47 431.918) rotate(90)"/><rect class="e" width="10.679" height="10.679" rx="1.754" transform="translate(710.149 469.984) rotate(90)"/><rect class="e" width="10.679" height="14.296" rx="1.754" transform="translate(835.239 431.918) rotate(90)"/><rect class="e" width="10.679" height="83.366" rx="1.754" transform="translate(835.239 459.305) rotate(90)"/><rect class="e" width="10.679" height="16.708" rx="1.754" transform="translate(845.918 459.305) rotate(180)"/><path class="a" d="M1280,477.7h-16.881a1.6,1.6,0,0,1-1.6-1.6v-3.842a1.6,1.6,0,0,1,1.6-1.6h11.887a2.607,2.607,0,0,0,2.6-2.611v-3.859a2.61,2.61,0,0,0-2.6-2.611h-3.842a1.517,1.517,0,0,1-1.095-.506,1.539,1.539,0,0,1-.506-1.1V456.1a2.61,2.61,0,0,0-2.612-2.611l-3.832.073a1.477,1.477,0,0,1-1.122-.5,1.57,1.57,0,0,1-.479-1.106V440a1.574,1.574,0,0,1,.479-1.107,1.481,1.481,0,0,1,1.122-.494h3.842a2.518,2.518,0,0,0,1.839-.763,2.437,2.437,0,0,0,.763-1.768v-3.913a1.742,1.742,0,0,1,1.6-1.6H1280v-1h-8.836a2.735,2.735,0,0,0-2.6,2.6v3.913a1.454,1.454,0,0,1-.47,1.061,1.533,1.533,0,0,1-1.132.47h-3.842a2.454,2.454,0,0,0-1.848.808,2.554,2.554,0,0,0-.753,1.793V451.96a2.55,2.55,0,0,0,.753,1.792,2.465,2.465,0,0,0,1.858.81l3.832-.073a1.61,1.61,0,0,1,1.6,1.611v3.859a2.521,2.521,0,0,0,.8,1.81,2.5,2.5,0,0,0,1.8.8h3.842a1.53,1.53,0,0,1,1.131.472,1.546,1.546,0,0,1,.471,1.139v3.859a1.549,1.549,0,0,1-.47,1.14,1.529,1.529,0,0,1-1.132.471h-11.887a2.6,2.6,0,0,0-2.6,2.6V476.1a2.6,2.6,0,0,0,2.6,2.6H1280Z"/><path class="a" d="M1277.4,438.192a2.473,2.473,0,0,0-.8,1.79v3.879a2.724,2.724,0,0,0,2.592,2.583h.8v-1h-.8a1.513,1.513,0,0,1-1.091-.5,1.492,1.492,0,0,1-.5-1.081v-3.879a1.5,1.5,0,0,1,.5-1.082,1.518,1.518,0,0,1,1.091-.5h.8v-1h-.8A2.493,2.493,0,0,0,1277.4,438.192Z"/><path class="c" d="M1277.4,431.944a2.477,2.477,0,0,0-.8,1.79v3.88a2.723,2.723,0,0,0,2.592,2.583h.8v-1h-.8a1.513,1.513,0,0,1-1.091-.5,1.494,1.494,0,0,1-.5-1.081v-3.88a1.5,1.5,0,0,1,.5-1.081,1.519,1.519,0,0,1,1.091-.5h.8v-1h-.8A2.5,2.5,0,0,0,1277.4,431.944Z"/><path class="c" d="M1280,471.449h-16.881a1.6,1.6,0,0,1-1.6-1.6v-3.842a1.6,1.6,0,0,1,1.6-1.6h11.887a2.607,2.607,0,0,0,2.6-2.611v-3.859a2.61,2.61,0,0,0-2.6-2.611h-3.842a1.517,1.517,0,0,1-1.095-.506,1.541,1.541,0,0,1-.506-1.1v-3.859a2.61,2.61,0,0,0-2.612-2.611l-3.832.073a1.478,1.478,0,0,1-1.122-.5,1.566,1.566,0,0,1-.479-1.1V433.754a1.574,1.574,0,0,1,.479-1.107,1.482,1.482,0,0,1,1.122-.495h3.842a2.517,2.517,0,0,0,1.839-.762,2.437,2.437,0,0,0,.763-1.768v-3.913a1.742,1.742,0,0,1,1.6-1.6H1280v-1h-8.836a2.735,2.735,0,0,0-2.6,2.6v3.913a1.454,1.454,0,0,1-.47,1.061,1.532,1.532,0,0,1-1.132.469h-3.842a2.455,2.455,0,0,0-1.848.809,2.554,2.554,0,0,0-.753,1.793v11.959a2.55,2.55,0,0,0,.753,1.792,2.465,2.465,0,0,0,1.858.81l3.832-.073a1.61,1.61,0,0,1,1.6,1.611v3.859a2.521,2.521,0,0,0,.8,1.81,2.5,2.5,0,0,0,1.8.8h3.842a1.61,1.61,0,0,1,1.6,1.611v3.859a1.55,1.55,0,0,1-.47,1.14,1.53,1.53,0,0,1-1.132.471h-11.887a2.6,2.6,0,0,0-2.6,2.6v3.842a2.6,2.6,0,0,0,2.6,2.6H1280Z"/><path class="a" d="M1274.775,346.364a2.476,2.476,0,0,0-.8,1.79v3.88a2.726,2.726,0,0,0,2.592,2.583H1280v-1h-3.429a1.509,1.509,0,0,1-1.09-.5,1.492,1.492,0,0,1-.5-1.081v-3.88a1.493,1.493,0,0,1,.5-1.081,1.512,1.512,0,0,1,1.09-.5H1280v-1h-3.429A2.5,2.5,0,0,0,1274.775,346.364Z"/><path class="a" d="M1280,385.869h-19.51a1.6,1.6,0,0,1-1.6-1.6v-3.842a1.6,1.6,0,0,1,1.6-1.6h11.887a2.607,2.607,0,0,0,2.6-2.611v-3.859a2.61,2.61,0,0,0-2.6-2.611h-3.842a1.51,1.51,0,0,1-1.094-.507,1.534,1.534,0,0,1-.507-1.1v-3.859a2.61,2.61,0,0,0-2.612-2.611l-3.832.072a1.477,1.477,0,0,1-1.122-.5,1.566,1.566,0,0,1-.479-1.105V348.174a1.574,1.574,0,0,1,.479-1.107,1.478,1.478,0,0,1,1.122-.495h3.842a2.517,2.517,0,0,0,1.839-.762,2.437,2.437,0,0,0,.763-1.768v-3.913a1.746,1.746,0,0,1,1.6-1.6H1280v-1h-11.465a2.739,2.739,0,0,0-2.6,2.6v3.913a1.454,1.454,0,0,1-.47,1.061,1.53,1.53,0,0,1-1.132.469h-3.842a2.456,2.456,0,0,0-1.848.809,2.554,2.554,0,0,0-.753,1.793v11.959a2.55,2.55,0,0,0,.753,1.792,2.465,2.465,0,0,0,1.858.809l3.832-.072a1.529,1.529,0,0,1,1.131.472,1.544,1.544,0,0,1,.471,1.139v3.859a2.518,2.518,0,0,0,.8,1.81,2.492,2.492,0,0,0,1.8.8h3.842a1.529,1.529,0,0,1,1.131.472,1.545,1.545,0,0,1,.471,1.139v3.859a1.55,1.55,0,0,1-.47,1.14,1.53,1.53,0,0,1-1.132.471H1260.49a2.6,2.6,0,0,0-2.6,2.6v3.842a2.6,2.6,0,0,0,2.6,2.6H1280Z"/><path class="c" d="M1280,379.62h-19.51a1.6,1.6,0,0,1-1.6-1.6v-3.842a1.6,1.6,0,0,1,1.6-1.6h11.887a2.607,2.607,0,0,0,2.6-2.611v-3.859a2.61,2.61,0,0,0-2.6-2.611h-3.842a1.51,1.51,0,0,1-1.094-.507,1.534,1.534,0,0,1-.507-1.1v-3.859a2.61,2.61,0,0,0-2.612-2.611l-3.832.072a1.477,1.477,0,0,1-1.122-.5,1.566,1.566,0,0,1-.479-1.105V341.925a1.578,1.578,0,0,1,.479-1.108,1.48,1.48,0,0,1,1.122-.494h3.842a2.517,2.517,0,0,0,1.839-.762,2.437,2.437,0,0,0,.763-1.768V333.88a1.746,1.746,0,0,1,1.6-1.6H1280v-1h-11.465a2.739,2.739,0,0,0-2.6,2.6v3.913a1.454,1.454,0,0,1-.47,1.061,1.53,1.53,0,0,1-1.132.469h-3.842a2.456,2.456,0,0,0-1.848.809,2.554,2.554,0,0,0-.753,1.793v11.959a2.55,2.55,0,0,0,.753,1.792,2.465,2.465,0,0,0,1.858.809l3.832-.072a1.525,1.525,0,0,1,1.131.472,1.544,1.544,0,0,1,.471,1.139v3.859a2.514,2.514,0,0,0,.8,1.809,2.489,2.489,0,0,0,1.8.8h3.842a1.529,1.529,0,0,1,1.131.472,1.545,1.545,0,0,1,.471,1.139v3.859a1.55,1.55,0,0,1-.47,1.14,1.53,1.53,0,0,1-1.132.471H1260.49a2.6,2.6,0,0,0-2.6,2.6v3.842a2.6,2.6,0,0,0,2.6,2.6H1280Z"/><path class="c" d="M1274.775,340.115a2.477,2.477,0,0,0-.8,1.79v3.88a2.726,2.726,0,0,0,2.592,2.583H1280v-1h-3.429a1.509,1.509,0,0,1-1.09-.5,1.492,1.492,0,0,1-.5-1.081V341.9a1.493,1.493,0,0,1,.5-1.081,1.512,1.512,0,0,1,1.09-.5H1280v-1h-3.429A2.5,2.5,0,0,0,1274.775,340.115Z"/><path class="a" d="M2.242,451.959V440a2.556,2.556,0,0,0-.759-1.8A2.451,2.451,0,0,0,0,437.43v1a1.52,1.52,0,0,1,.759.461A1.564,1.564,0,0,1,1.242,440v11.959a1.563,1.563,0,0,1-.482,1.1,1.533,1.533,0,0,1-.76.462v1a2.444,2.444,0,0,0,1.483-.776A2.549,2.549,0,0,0,2.242,451.959Z"/><path class="a" d="M17.534,438.2a2.5,2.5,0,0,0-1.8-.8H11.817a1.611,1.611,0,0,1-1.53-1.531v-3.913a2.5,2.5,0,0,0-.8-1.8,2.5,2.5,0,0,0-1.8-.8H0v1H7.686a1.52,1.52,0,0,1,1.1.506,1.517,1.517,0,0,1,.505,1.1v3.913a2.609,2.609,0,0,0,2.53,2.531h3.914a1.742,1.742,0,0,1,1.6,1.6v36.094a1.485,1.485,0,0,1-.5,1.123,1.553,1.553,0,0,1-1.1.478H3.835a1.556,1.556,0,0,1-1.1-.479,1.48,1.48,0,0,1-.493-1.122V464.207a2.512,2.512,0,0,0-.769-1.841A2.492,2.492,0,0,0,0,461.635v1a1.557,1.557,0,0,1,.769.437,1.527,1.527,0,0,1,.473,1.131v11.887a2.463,2.463,0,0,0,.8,1.848,2.541,2.541,0,0,0,1.788.753h11.9a2.535,2.535,0,0,0,1.786-.753,2.461,2.461,0,0,0,.807-1.848V440A2.5,2.5,0,0,0,17.534,438.2Z"/><path class="c" d="M17.534,431.95a2.5,2.5,0,0,0-1.8-.8H11.817a1.609,1.609,0,0,1-1.53-1.53v-3.913a2.5,2.5,0,0,0-.8-1.8,2.5,2.5,0,0,0-1.8-.8H0v1H7.686a1.523,1.523,0,0,1,1.1.505,1.521,1.521,0,0,1,.505,1.1v3.913a2.607,2.607,0,0,0,2.53,2.53h3.914a1.744,1.744,0,0,1,1.6,1.6v36.094a1.485,1.485,0,0,1-.5,1.123,1.553,1.553,0,0,1-1.1.478H3.835a1.556,1.556,0,0,1-1.1-.479,1.48,1.48,0,0,1-.493-1.122V457.961a2.512,2.512,0,0,0-.769-1.841A2.492,2.492,0,0,0,0,455.389v1a1.55,1.55,0,0,1,.769.437,1.527,1.527,0,0,1,.473,1.131v11.887a2.461,2.461,0,0,0,.8,1.847,2.542,2.542,0,0,0,1.788.754h11.9a2.539,2.539,0,0,0,1.786-.753,2.461,2.461,0,0,0,.807-1.848V433.754A2.5,2.5,0,0,0,17.534,431.95Z"/><path class="c" d="M2.242,445.713V433.754a2.556,2.556,0,0,0-.759-1.8A2.446,2.446,0,0,0,0,431.184v1a1.521,1.521,0,0,1,.759.461,1.564,1.564,0,0,1,.483,1.105v11.959a1.563,1.563,0,0,1-.482,1.1,1.531,1.531,0,0,1-.76.461v1a2.444,2.444,0,0,0,1.483-.776A2.549,2.549,0,0,0,2.242,445.713Z"/><path class="a" d="M1.9,347.077a1.514,1.514,0,0,1,1.1-.505H14.951a2.554,2.554,0,0,0,1.793-.753,2.378,2.378,0,0,0,.809-1.777v-3.913a2.737,2.737,0,0,0-2.6-2.6H0v1H14.951a1.744,1.744,0,0,1,1.6,1.6v3.913a1.407,1.407,0,0,1-.494,1.051,1.576,1.576,0,0,1-1.108.479H2.992a2.5,2.5,0,0,0-1.8.8,2.5,2.5,0,0,0-.8,1.8v3.914a2.5,2.5,0,0,0,.8,1.8,2.5,2.5,0,0,0,1.8.8H14.951a1.574,1.574,0,0,1,1.107.479,1.4,1.4,0,0,1,.495,1.05v3.914a1.742,1.742,0,0,1-1.6,1.6H2.992a2.559,2.559,0,0,0-1.793.753,2.466,2.466,0,0,0-.808,1.849v11.887a2.46,2.46,0,0,0,.808,1.848,2.556,2.556,0,0,0,1.793.753H14.951a1.575,1.575,0,0,1,1.107.48,1.477,1.477,0,0,1,.495,1.122v3.842a1.481,1.481,0,0,1-.494,1.122,1.576,1.576,0,0,1-1.108.479H0v1H14.951a2.554,2.554,0,0,0,1.793-.753,2.456,2.456,0,0,0,.809-1.848v-3.842a2.464,2.464,0,0,0-.809-1.85,2.563,2.563,0,0,0-1.793-.752H2.992a1.572,1.572,0,0,1-1.106-.479,1.48,1.48,0,0,1-.5-1.122V364.336a1.48,1.48,0,0,1,.5-1.122,1.576,1.576,0,0,1,1.106-.48H14.951a2.735,2.735,0,0,0,2.6-2.6v-3.914a2.384,2.384,0,0,0-.809-1.777,2.558,2.558,0,0,0-1.793-.752H2.992a1.514,1.514,0,0,1-1.1-.506,1.518,1.518,0,0,1-.506-1.1v-3.914A1.522,1.522,0,0,1,1.9,347.077Z"/><path class="c" d="M1.9,340.827a1.514,1.514,0,0,1,1.1-.505H14.951a2.554,2.554,0,0,0,1.793-.753,2.378,2.378,0,0,0,.809-1.777v-3.913a2.737,2.737,0,0,0-2.6-2.6H0v1H14.951a1.744,1.744,0,0,1,1.6,1.6v3.913a1.407,1.407,0,0,1-.494,1.051,1.576,1.576,0,0,1-1.108.479H2.992a2.5,2.5,0,0,0-1.8.8,2.5,2.5,0,0,0-.8,1.8v3.914a2.5,2.5,0,0,0,.8,1.8,2.5,2.5,0,0,0,1.8.8H14.951a1.574,1.574,0,0,1,1.107.479,1.4,1.4,0,0,1,.495,1.05v3.914a1.742,1.742,0,0,1-1.6,1.6H2.992a2.559,2.559,0,0,0-1.793.753,2.466,2.466,0,0,0-.808,1.849v11.887a2.46,2.46,0,0,0,.808,1.848,2.556,2.556,0,0,0,1.793.753H14.951a1.575,1.575,0,0,1,1.107.48,1.477,1.477,0,0,1,.495,1.122v3.842a1.481,1.481,0,0,1-.494,1.122,1.576,1.576,0,0,1-1.108.479H0v1H14.951a2.554,2.554,0,0,0,1.793-.753,2.456,2.456,0,0,0,.809-1.848v-3.842a2.464,2.464,0,0,0-.809-1.85,2.563,2.563,0,0,0-1.793-.752H2.992a1.572,1.572,0,0,1-1.106-.479,1.48,1.48,0,0,1-.5-1.122V358.086a1.48,1.48,0,0,1,.5-1.122,1.576,1.576,0,0,1,1.106-.48H14.951a2.735,2.735,0,0,0,2.6-2.6v-3.914a2.384,2.384,0,0,0-.809-1.777,2.558,2.558,0,0,0-1.793-.752H2.992a1.514,1.514,0,0,1-1.1-.506,1.518,1.518,0,0,1-.506-1.1v-3.914A1.522,1.522,0,0,1,1.9,340.827Z"/></g></svg>